<svg xmlns="http://www.w3.org/2000/svg" width="166" height="39" viewBox="0 0 166 39" fill="none"><path fill-rule="evenodd" clip-rule="evenodd" d="M56.2592 17.0428C55.5238 17.9823 54.5959 18.6807 53.4978 19.1435L57.5755 26.8906C57.7428 27.1925 57.8293 27.5247 57.8293 27.8718C57.8293 28.7105 57.3819 29.3799 56.7769 29.8783C56.1851 30.384 55.4912 30.6793 54.7171 30.6793C53.6412 30.6793 52.8974 29.9894 52.4427 29.0984L52.4407 29.0945L47.8847 20.0684H46.1459V28.4074C46.1459 29.1733 45.7345 29.7557 45.1511 30.1244L45.1435 30.1292L45.1357 30.134C44.6147 30.4501 44.0182 30.5789 43.3977 30.5789C42.7876 30.5789 42.2063 30.4454 41.6838 30.1481L41.651 30.1295L41.6197 30.1084C41.0529 29.7262 40.6826 29.1431 40.6826 28.4074V6.24834C40.6826 5.6694 40.8985 5.1487 41.3029 4.73975C41.7218 4.31612 42.2565 4.11026 42.835 4.11026H49.1236C51.788 4.11026 53.9719 4.70527 55.4944 6.07099C57.0386 7.45618 57.73 9.47684 57.73 11.9387C57.73 13.9751 57.2802 15.7114 56.2653 17.0349L56.2592 17.0428ZM45.1519 19.0684H48.4947L53.327 28.6417C53.68 29.3335 54.1434 29.6793 54.7171 29.6793C55.2245 29.6793 55.6989 29.4897 56.1402 29.1103C56.6036 28.7309 56.8353 28.3181 56.8353 27.8718C56.8353 27.6933 56.7912 27.5259 56.7029 27.3697L52.0693 18.5663C52.4061 18.4825 52.7265 18.3789 53.0305 18.2557C54.0208 17.8542 54.8368 17.2436 55.4783 16.4241C56.3168 15.3306 56.736 13.8355 56.736 11.9387C56.736 7.38641 54.1985 5.11026 49.1236 5.11026H42.835C42.5041 5.11026 42.2283 5.22184 42.0076 5.44499C41.787 5.66814 41.6766 5.93592 41.6766 6.24834V28.4074C41.6766 28.7644 41.8421 29.0545 42.1731 29.2777C42.5261 29.4785 42.9343 29.5789 43.3977 29.5789C43.8831 29.5789 44.2913 29.4785 44.6223 29.2777C44.9753 29.0545 45.1519 28.7644 45.1519 28.4074V19.0684ZM72.9216 21.6971L72.9184 21.7054C72.691 22.2968 72.3025 22.789 71.7329 23.0962L71.7095 23.1089L71.6854 23.1202C71.2899 23.3069 70.8894 23.442 70.4884 23.5044C70.1308 23.56 69.6992 23.5831 69.2112 23.5831H63.229C63.2769 24.3049 63.5551 24.8384 64.0511 25.2589C64.6271 25.7254 65.4236 26.0015 66.5303 26.0015C67.2735 26.0015 67.963 25.8291 68.6129 25.4822L68.6228 25.4769C69.0401 25.2602 69.3935 25.0882 69.6751 24.968C69.8152 24.9082 69.952 24.8549 70.0788 24.815C70.1832 24.7821 70.3665 24.7295 70.5682 24.7295C71.316 24.7295 71.9106 25.1087 72.3247 25.6671C72.6755 26.1402 72.9192 26.6911 72.9192 27.3028C72.9192 27.9214 72.622 28.4356 72.2536 28.8314C71.8876 29.2247 71.3888 29.5721 70.8119 29.8881L70.8047 29.892L70.7976 29.8958C69.5607 30.5473 68.0907 30.8467 66.431 30.8467C63.9926 30.8467 61.9073 30.1773 60.2597 28.7674C58.5914 27.3398 57.7584 25.4487 57.7584 23.1856V20.0057C57.7584 17.9518 58.5558 16.1765 60.0876 14.7275C61.6219 13.2536 63.4901 12.5119 65.6366 12.5119C67.6807 12.5119 69.4661 13.1878 70.9362 14.5435C72.4514 15.8972 73.2171 17.6427 73.2171 19.7044C73.2171 20.4401 73.1337 21.1149 72.9247 21.6887L72.9216 21.6971ZM60.7713 15.4534C59.4253 16.7253 58.7524 18.2428 58.7524 20.0057V23.1856C58.7524 25.1717 59.4695 26.7784 60.9037 28.0057C62.3379 29.233 64.1804 29.8467 66.431 29.8467C67.9755 29.8467 69.2774 29.5678 70.3365 29.0099C71.3956 28.4297 71.9252 27.8606 71.9252 27.3028C71.9252 26.968 71.7928 26.6221 71.528 26.2651C71.2632 25.9081 70.9433 25.7295 70.5682 25.7295C70.3917 25.7295 69.8952 25.9415 69.0788 26.3655C68.2845 26.7895 67.435 27.0015 66.5303 27.0015C65.2505 27.0015 64.2135 26.6779 63.4191 26.0308C62.6802 25.408 62.2849 24.5921 62.2334 23.5831C62.2295 23.5075 62.2276 23.4308 62.2276 23.353V22.5831H69.2112C69.6745 22.5831 70.0497 22.5608 70.3365 22.5161C70.6233 22.4715 70.9323 22.3711 71.2632 22.2149C71.5942 22.0364 71.8369 21.7463 71.9914 21.3446C72.1458 20.9206 72.2231 20.3739 72.2231 19.7044C72.2231 17.9192 71.5721 16.4464 70.2703 15.286C68.9905 14.1033 67.446 13.5119 65.6366 13.5119C63.7391 13.5119 62.1173 14.1591 60.7713 15.4534ZM67.9524 19.3998C67.9516 18.7807 67.7416 18.2814 67.2943 17.8446C66.8526 17.4133 66.3121 17.1898 65.6036 17.1898C64.9129 17.1898 64.3591 17.4058 63.8874 17.8351L63.8805 17.8414L63.8735 17.8475C63.4369 18.2302 63.2216 18.6986 63.2216 19.3362V19.4074H67.7218C67.8135 19.4074 67.8898 19.4044 67.9524 19.3998ZM62.2276 20.4074V19.3362C62.2276 18.4213 62.5586 17.6737 63.2205 17.0935C63.8825 16.491 64.6768 16.1898 65.6036 16.1898C66.5523 16.1898 67.3467 16.5022 67.9866 17.127C68.6265 17.7518 68.9464 18.5106 68.9464 19.4032C68.9464 19.8048 68.8581 20.0726 68.6816 20.2065C68.5272 20.3404 68.2072 20.4074 67.7218 20.4074H62.2276ZM82.3718 29.2107C82.1733 29.6793 81.6437 29.9136 80.7832 29.9136C79.9226 29.9136 79.3931 29.6793 79.1945 29.2107L73.6672 15.6542C73.5569 15.4311 73.5017 15.2414 73.5017 15.0852C73.5017 14.6835 73.7555 14.3376 74.2629 14.0475C74.7704 13.7351 75.2779 13.5789 75.7854 13.5789C76.3371 13.5789 76.6901 13.7909 76.8446 14.2149L80.7832 24.7923L84.7218 14.2818C84.8983 13.8132 85.2513 13.5789 85.7809 13.5789C86.2001 13.5789 86.6856 13.7351 87.2372 14.0475C87.7888 14.3599 88.0646 14.7058 88.0646 15.0852C88.0646 15.2414 88.0205 15.4311 87.9322 15.6542L82.3718 29.2107ZM80.7861 21.9496L83.7923 13.9275C83.941 13.5326 84.1912 13.1723 84.5716 12.9199C84.9471 12.6706 85.3706 12.5789 85.7809 12.5789C86.4364 12.5789 87.0943 12.819 87.7248 13.1761C88.3685 13.5407 89.0586 14.1469 89.0586 15.0852C89.0586 15.4172 88.9682 15.7397 88.8558 16.0239L88.8512 16.0357L83.2863 29.6029C82.8399 30.6563 81.7395 30.9136 80.7832 30.9136C79.8268 30.9136 78.7265 30.6563 78.2801 29.6029L78.2747 29.5902L72.7601 16.0645C72.6248 15.7834 72.5077 15.4461 72.5077 15.0852C72.5077 14.1786 73.103 13.5644 73.7576 13.1863C74.3901 12.7996 75.0704 12.5789 75.7854 12.5789C76.1813 12.5789 76.5988 12.6543 76.9734 12.8792C77.3628 13.113 77.6282 13.4623 77.7764 13.8668C77.7769 13.8681 77.7774 13.8695 77.7779 13.8708L80.7861 21.9496ZM94.0332 9.92955L94.022 9.93962C93.4356 10.4668 92.7229 10.7295 91.9365 10.7295C91.1501 10.7295 90.4374 10.4668 89.851 9.93962L89.8398 9.92955L89.8289 9.91915C89.2607 9.37641 88.9236 8.68852 88.9236 7.88851C88.9236 7.07661 89.2533 6.37468 89.851 5.8374C90.4374 5.31026 91.1501 5.0475 91.9365 5.0475C92.7229 5.0475 93.4356 5.31026 94.022 5.8374C94.6197 6.37468 94.9495 7.0766 94.9495 7.88851C94.9495 8.68852 94.6123 9.37642 94.0441 9.91915L94.0332 9.92955ZM110.9 21.6971L110.897 21.7054C110.669 22.2968 110.281 22.789 109.711 23.0962L109.688 23.1089L109.664 23.1202C109.268 23.3069 108.867 23.442 108.467 23.5044C108.109 23.56 107.677 23.5831 107.189 23.5831H101.207C101.255 24.3049 101.533 24.8383 102.029 25.2589C102.605 25.7254 103.402 26.0015 104.508 26.0015C105.252 26.0015 105.941 25.8291 106.591 25.4822L106.601 25.4769C107.018 25.2602 107.372 25.0882 107.653 24.968C107.793 24.9082 107.93 24.8549 108.057 24.815C108.161 24.7821 108.345 24.7295 108.546 24.7295C109.294 24.7295 109.889 25.1087 110.303 25.6671C110.654 26.1402 110.897 26.6911 110.897 27.3028C110.897 27.9214 110.6 28.4356 110.232 28.8314C109.866 29.2247 109.367 29.5721 108.79 29.8881L108.783 29.892L108.776 29.8958C107.539 30.5473 106.069 30.8467 104.409 30.8467C101.971 30.8467 99.8854 30.1773 98.2378 28.7674C96.5695 27.3398 95.7365 25.4487 95.7365 23.1856V20.0057C95.7365 17.9518 96.5339 16.1765 98.0658 14.7275C99.6 13.2536 101.468 12.5119 103.615 12.5119C105.659 12.5119 107.444 13.1878 108.914 14.5435C110.429 15.8972 111.195 17.6426 111.195 19.7044C111.195 20.4401 111.112 21.1149 110.903 21.6887L110.9 21.6971ZM100.212 23.5831C100.208 23.5075 100.206 23.4308 100.206 23.353V22.5831H107.189C107.653 22.5831 108.028 22.5608 108.315 22.5161C108.601 22.4715 108.91 22.3711 109.241 22.2149C109.572 22.0364 109.815 21.7463 109.969 21.3446C110.124 20.9206 110.201 20.3739 110.201 19.7044C110.201 17.9192 109.55 16.4464 108.248 15.286C106.969 14.1033 105.424 13.5119 103.615 13.5119C101.717 13.5119 100.095 14.1591 98.7494 15.4534C97.4035 16.7253 96.7305 18.2428 96.7305 20.0057V23.1856C96.7305 25.1717 97.4476 26.7784 98.8818 28.0057C100.316 29.233 102.158 29.8467 104.409 29.8467C105.954 29.8467 107.255 29.5678 108.315 29.0099C109.374 28.4297 109.903 27.8606 109.903 27.3028C109.903 26.968 109.771 26.6221 109.506 26.2651C109.241 25.9081 108.921 25.7295 108.546 25.7295C108.37 25.7295 107.873 25.9415 107.057 26.3655C106.263 26.7895 105.413 27.0015 104.508 27.0015C103.229 27.0015 102.192 26.6779 101.397 26.0308C100.658 25.408 100.263 24.5921 100.212 23.5831ZM105.931 19.3998C105.93 18.7807 105.72 18.2814 105.272 17.8446C104.831 17.4133 104.29 17.1898 103.582 17.1898C102.891 17.1898 102.337 17.4058 101.866 17.8351L101.859 17.8414L101.852 17.8475C101.415 18.2302 101.2 18.6986 101.2 19.3362V19.4074H105.7C105.792 19.4074 105.868 19.4044 105.931 19.3998ZM100.206 20.4074V19.3362C100.206 18.4213 100.537 17.6737 101.199 17.0935C101.861 16.491 102.655 16.1898 103.582 16.1898C104.53 16.1898 105.325 16.5022 105.965 17.127C106.605 17.7518 106.925 18.5106 106.925 19.4032C106.925 19.8048 106.836 20.0726 106.66 20.2065C106.505 20.3404 106.185 20.4074 105.7 20.4074H100.206ZM115.723 13.8708L115.726 13.8803L118.394 21.4392L120.325 15.0967C120.325 15.0961 120.326 15.0956 120.326 15.0951C120.465 14.6342 120.742 14.2313 121.172 13.961C121.583 13.7027 122.051 13.6166 122.501 13.6166C122.951 13.6166 123.42 13.7027 123.831 13.961C124.261 14.2316 124.538 14.6351 124.677 15.0967L124.678 15.0986L126.586 21.4846L129.271 13.8945C129.403 13.4861 129.658 13.1276 130.047 12.8865C130.423 12.6535 130.845 12.5789 131.239 12.5789C131.928 12.5789 132.584 12.7857 133.195 13.1495C133.875 13.5407 134.451 14.1726 134.451 15.0852C134.451 15.4161 134.372 15.729 134.238 16.016L129.124 29.5651C129.123 29.5653 129.124 29.5649 129.124 29.5651C128.73 30.61 127.722 30.9136 126.804 30.9136C125.902 30.9136 124.911 30.6366 124.474 29.6528L124.454 29.6083L122.501 23.7524L120.59 29.4844L120.581 29.5065C120.168 30.5747 119.151 30.9136 118.166 30.9136C117.694 30.9136 117.216 30.8317 116.793 30.5972C116.349 30.3516 116.03 29.9733 115.849 29.5065L115.847 29.5003L110.709 15.9565L110.702 15.9355C110.616 15.6749 110.519 15.3441 110.519 15.0517C110.519 14.1609 111.085 13.5419 111.733 13.1543C112.355 12.783 113.025 12.5789 113.73 12.5789C114.126 12.5789 114.544 12.6543 114.918 12.8792C115.309 13.1138 115.575 13.4645 115.723 13.8708ZM122.501 20.6082L125.381 29.2442C125.579 29.6905 126.054 29.9136 126.804 29.9136C127.554 29.9136 128.018 29.6793 128.194 29.2107L133.324 15.6207C133.412 15.4422 133.457 15.2637 133.457 15.0852C133.457 14.6612 133.203 14.3041 132.695 14.014C132.21 13.7239 131.724 13.5789 131.239 13.5789C130.687 13.5789 130.345 13.7909 130.213 14.2149L126.506 24.6919L123.726 15.3864C123.571 14.8732 123.163 14.6166 122.501 14.6166C121.839 14.6166 121.431 14.8732 121.277 15.3864L118.463 24.6249L114.79 14.2149C114.635 13.7909 114.282 13.5789 113.73 13.5789C113.223 13.5789 112.726 13.7239 112.241 14.014C111.756 14.3041 111.513 14.65 111.513 15.0517C111.513 15.1633 111.557 15.353 111.645 15.6207L116.775 29.1438C116.974 29.657 117.437 29.9136 118.166 29.9136C118.96 29.9136 119.456 29.657 119.655 29.1438L122.501 20.6082ZM149.201 21.6971L149.198 21.7054C148.97 22.2968 148.582 22.789 148.012 23.0962L147.989 23.1089L147.965 23.1202C147.569 23.3069 147.169 23.442 146.768 23.5044C146.41 23.56 145.979 23.5831 145.491 23.5831H139.508C139.556 24.3049 139.835 24.8383 140.331 25.2588C140.907 25.7254 141.703 26.0015 142.81 26.0015C143.553 26.0015 144.242 25.8291 144.892 25.4822L144.902 25.4769C145.32 25.2602 145.673 25.0882 145.955 24.968C146.095 24.9082 146.231 24.8549 146.358 24.815C146.463 24.7821 146.646 24.7295 146.848 24.7295C147.595 24.7295 148.19 25.1087 148.604 25.6671C148.955 26.1402 149.199 26.6911 149.199 27.3028C149.199 27.9214 148.901 28.4356 148.533 28.8314C148.167 29.2247 147.668 29.5721 147.091 29.8881L147.084 29.892L147.077 29.8958C145.84 30.5473 144.37 30.8467 142.71 30.8467C140.272 30.8467 138.187 30.1773 136.539 28.7674C134.871 27.3398 134.038 25.4487 134.038 23.1856V20.0057C134.038 17.9518 134.835 16.1765 136.367 14.7275C137.901 13.2536 139.77 12.5119 141.916 12.5119C143.96 12.5119 145.746 13.1879 147.216 14.5437C148.731 15.8974 149.497 17.6428 149.497 19.7044C149.497 20.44 149.413 21.1149 149.204 21.6887L149.201 21.6971ZM146.55 15.286C145.27 14.1033 143.725 13.5119 141.916 13.5119C140.019 13.5119 138.397 14.1591 137.051 15.4534C135.705 16.7253 135.032 18.2428 135.032 20.0057V23.1856C135.032 25.1717 135.749 26.7784 137.183 28.0057C138.617 29.233 140.46 29.8467 142.71 29.8467C144.255 29.8467 145.557 29.5678 146.616 29.0099C147.675 28.4297 148.205 27.8606 148.205 27.3028C148.205 26.968 148.072 26.6221 147.807 26.2651C147.543 25.9081 147.223 25.7295 146.848 25.7295C146.671 25.7295 146.175 25.9415 145.358 26.3655C144.564 26.7895 143.714 27.0015 142.81 27.0015C141.53 27.0015 140.493 26.6779 139.699 26.0308C138.96 25.408 138.564 24.5921 138.513 23.5831C138.509 23.5075 138.507 23.4308 138.507 23.353V22.5831H145.491C145.954 22.5831 146.329 22.5608 146.616 22.5161C146.903 22.4715 147.212 22.3711 147.543 22.2149C147.874 22.0364 148.116 21.7463 148.271 21.3446C148.425 20.9206 148.503 20.3739 148.503 19.7044C148.503 17.9192 147.852 16.4464 146.55 15.286ZM144.232 19.3998C144.231 18.7807 144.021 18.2814 143.574 17.8446C143.132 17.4133 142.592 17.1898 141.883 17.1898C141.192 17.1898 140.639 17.4058 140.167 17.8351L140.16 17.8414L140.153 17.8475C139.716 18.2302 139.501 18.6986 139.501 19.3362V19.4074H144.001C144.093 19.4074 144.169 19.4044 144.232 19.3998ZM138.507 20.4074V19.3362C138.507 18.4213 138.838 17.6737 139.5 17.0935C140.162 16.491 140.956 16.1898 141.883 16.1898C142.832 16.1898 143.626 16.5022 144.266 17.127C144.906 17.7518 145.226 18.5106 145.226 19.4032C145.226 19.8048 145.138 20.0726 144.961 20.2065C144.807 20.3404 144.487 20.4074 144.001 20.4074H138.507ZM164.004 28.4922L163.999 28.4984C162.671 30.0182 161.055 30.8467 159.181 30.8467C158.008 30.8467 156.913 30.5408 155.917 29.9311C155.683 29.7877 155.461 29.6354 155.253 29.4738C155.101 29.6831 154.914 29.8601 154.72 30.0058C154.227 30.3931 153.646 30.5789 153.025 30.5789C152.367 30.5789 151.741 30.4095 151.21 30.0156L151.197 30.0058L151.184 29.9954C150.729 29.6341 150.343 29.1054 150.343 28.4074V5.41151C150.343 4.70583 150.695 4.14433 151.24 3.78178C151.762 3.41221 152.386 3.27344 153.025 3.27344C153.663 3.27344 154.277 3.41175 154.805 3.75677C155.373 4.09144 155.806 4.64669 155.806 5.41151V13.5124C155.856 13.4778 155.907 13.4437 155.958 13.4101C156.883 12.8046 157.935 12.5119 159.082 12.5119C161.014 12.5119 162.667 13.293 163.991 14.7844C165.33 16.2687 166 18.0606 166 20.1061V23.1856C166 25.175 165.324 26.956 164.004 28.4922ZM163.252 15.4534C162.104 14.1591 160.714 13.5119 159.082 13.5119C158.111 13.5119 157.25 13.7574 156.5 14.2483C156.247 14.4136 156.016 14.5916 155.806 14.7822C155.392 15.1576 155.061 15.5822 154.812 16.0559V5.41151C154.812 5.07679 154.635 4.809 154.282 4.60817C153.951 4.38501 153.532 4.27344 153.025 4.27344C152.517 4.27344 152.109 4.38501 151.8 4.60817C151.491 4.809 151.337 5.07679 151.337 5.41151V28.4074C151.337 28.6975 151.491 28.9652 151.8 29.2107C152.131 29.4562 152.539 29.5789 153.025 29.5789C153.444 29.5789 153.808 29.4562 154.117 29.2107C154.296 29.0782 154.426 28.9392 154.508 28.7936C154.578 28.6696 154.613 28.5409 154.613 28.4074V27.2358C154.837 27.6621 155.144 28.0526 155.533 28.4074C155.557 28.4294 155.581 28.4512 155.606 28.4729C155.851 28.6877 156.127 28.889 156.434 29.0768C157.272 29.5901 158.188 29.8467 159.181 29.8467C160.725 29.8467 162.082 29.1772 163.252 27.8383C164.421 26.4771 165.006 24.9262 165.006 23.1856V20.1061C165.006 18.2986 164.421 16.7477 163.252 15.4534ZM159.783 18.3841L159.778 18.3781C159.289 17.8503 158.762 17.6249 158.155 17.6249C157.571 17.6249 157.037 17.834 156.519 18.3241C156.053 18.7648 155.806 19.3289 155.806 20.1061V23.9555C155.806 24.0189 155.884 24.355 156.531 25.0126C157.074 25.5234 157.618 25.7337 158.188 25.7337C158.793 25.7337 159.318 25.51 159.806 24.9861C160.314 24.4183 160.537 23.8285 160.537 23.1856V20.1061C160.537 19.502 160.316 18.9402 159.789 18.39L159.783 18.3841ZM160.538 25.6626C159.876 26.3767 159.093 26.7337 158.188 26.7337C157.327 26.7337 156.544 26.399 155.838 25.7295C155.154 25.0378 154.812 24.4464 154.812 23.9555V20.1061C154.812 19.0796 155.154 18.2428 155.838 17.5956C156.522 16.9485 157.294 16.6249 158.155 16.6249C159.06 16.6249 159.843 16.982 160.505 17.6961C161.189 18.4101 161.531 19.2135 161.531 20.1061V23.1856C161.531 24.1005 161.2 24.9262 160.538 25.6626ZM46.1459 15.2232H49.1236C50.3471 15.2232 51.0807 14.9259 51.5115 14.5078C51.9357 14.096 52.2337 13.4043 52.2337 12.24C52.2337 11.0757 51.9357 10.3839 51.5115 9.97221C51.0807 9.55405 50.3471 9.25671 49.1236 9.25671H46.1459V15.2232ZM45.1519 16.2232H49.1236C51.8596 16.2232 53.2277 14.8955 53.2277 12.24C53.2277 9.58447 51.8596 8.25671 49.1236 8.25671H45.1519V16.2232ZM89.2214 28.4074V14.8509C89.2214 14.1394 89.5794 13.5745 90.1322 13.2122C90.665 12.8554 91.2884 12.7128 91.9365 12.7128C92.5794 12.7128 93.1982 12.8531 93.7281 13.2038C94.2895 13.552 94.6847 14.1125 94.6847 14.8509V28.4074C94.6847 29.1585 94.2175 29.6883 93.7385 30.0248C93.2101 30.4122 92.5896 30.5789 91.9365 30.5789C91.2783 30.5789 90.6532 30.4095 90.1221 30.0156C89.6518 29.6668 89.2214 29.1355 89.2214 28.4074ZM93.1611 29.2107C93.5142 28.9652 93.6907 28.6975 93.6907 28.4074V14.8509C93.6907 14.5161 93.5252 14.2483 93.1942 14.0475C92.8632 13.8244 92.444 13.7128 91.9365 13.7128C91.429 13.7128 91.0098 13.8244 90.6788 14.0475C90.3699 14.2483 90.2154 14.5161 90.2154 14.8509V28.4074C90.2154 28.6975 90.3809 28.9652 90.7119 29.2107C91.0429 29.4562 91.4511 29.5789 91.9365 29.5789C92.4219 29.5789 92.8301 29.4562 93.1611 29.2107ZM90.5133 6.58306C90.1161 6.94011 89.9176 7.37526 89.9176 7.88851C89.9176 8.37944 90.1161 8.81459 90.5133 9.19395C90.9105 9.55099 91.3849 9.72951 91.9365 9.72951C92.4881 9.72951 92.9625 9.55099 93.3597 9.19395C93.7569 8.81459 93.9555 8.37944 93.9555 7.88851C93.9555 7.37526 93.7569 6.94011 93.3597 6.58306C92.9625 6.22602 92.4881 6.0475 91.9365 6.0475C91.3849 6.0475 90.9105 6.22602 90.5133 6.58306Z" fill="white"></path><path d="M16.2116 26.6551C20.1808 26.9738 24.9188 33.5283 29.8626 27.1608C30.1786 26.7138 30.4931 26.2556 30.8073 25.7856C30.4917 26.2995 30.1767 26.7562 29.8626 27.1608C26.1985 32.3441 22.3384 36.0141 16.4333 38.9509C16.1228 39.1053 15.7617 38.8763 15.7617 38.5281V27.0995C15.7617 26.8462 15.9603 26.6349 16.2116 26.6551Z" fill="#DE220F"></path><path d="M33.5193 16.8409C33.5193 26.1419 26.0157 33.6819 16.7596 33.6819C7.50354 33.6819 0 26.1419 0 16.8409C0 7.53995 7.50354 0 16.7596 0C26.0157 0 33.5193 7.53995 33.5193 16.8409Z" fill="#F9250F"></path><path d="M24.2592 14.526L19.3765 13.8118L17.1938 9.35797C17.1342 9.23603 17.0361 9.13731 16.9149 9.07731C16.6111 8.92633 16.2419 9.05215 16.0899 9.35797L13.9072 13.8118L9.02455 14.526C8.88994 14.5453 8.76686 14.6092 8.67263 14.706C8.55871 14.8238 8.49594 14.9824 8.4981 15.1468C8.50026 15.3112 8.56719 15.468 8.68417 15.5828L12.2169 19.0495L11.3822 23.9446C11.3627 24.0584 11.3752 24.1755 11.4184 24.2826C11.4616 24.3897 11.5337 24.4824 11.6266 24.5503C11.7195 24.6183 11.8294 24.6586 11.944 24.6668C12.0585 24.675 12.173 24.6508 12.2746 24.5968L16.6419 22.2858L21.0092 24.5968C21.1284 24.6607 21.2668 24.682 21.3995 24.6588C21.7342 24.6007 21.9592 24.2813 21.9015 23.9446L21.0668 19.0495L24.5995 15.5828C24.6957 15.488 24.7592 15.3641 24.7784 15.2286C24.8303 14.8899 24.5957 14.5763 24.2592 14.526ZM19.5803 18.5617L20.2745 22.6322L16.6419 20.7121L13.0092 22.6342L13.7034 18.5636L10.7649 15.6796L14.8265 15.0854L16.6419 11.3826L18.4572 15.0854L22.5188 15.6796L19.5803 18.5617Z" fill="white"></path></svg>