<svg xmlns="http://www.w3.org/2000/svg" width="166" height="39" viewBox="0 0 166 39" fill="none"><mask id="path-1-outside-1_1_6640" maskUnits="userSpaceOnUse" x="40.6753" y="3.25269" width="126" height="28" fill="black"><rect fill="white" x="40.6753" y="3.25269" width="126" height="28"></rect><path d="M41.6753 28.2692V6.21798C41.6753 5.90708 41.7856 5.6406 42.0063 5.41854C42.2269 5.19647 42.5027 5.08544 42.8337 5.08544H49.122C54.1967 5.08544 56.7341 7.35052 56.7341 11.8807C56.7341 13.7682 56.3149 15.2561 55.4764 16.3442C54.638 17.4101 53.5017 18.1208 52.0675 18.4761L56.701 27.2366C56.7893 27.392 56.8334 27.5586 56.8334 27.7362C56.8334 28.1804 56.6017 28.5912 56.1384 28.9687C55.6971 29.3462 55.2227 29.535 54.7152 29.535C54.1416 29.535 53.6782 29.1908 53.3252 28.5024L48.4931 18.9757H45.1504V28.2692C45.1504 28.6245 44.9739 28.9132 44.6209 29.1353C44.2899 29.3351 43.8817 29.435 43.3963 29.435C42.933 29.435 42.5248 29.3351 42.1717 29.1353C41.8408 28.9132 41.6753 28.6245 41.6753 28.2692ZM45.1504 16.1444H49.122C51.8579 16.1444 53.2259 14.8231 53.2259 12.1805C53.2259 9.53787 51.8579 8.21658 49.122 8.21658H45.1504V16.1444Z"></path><path d="M58.7504 23.0728V19.9084C58.7504 18.1541 59.4233 16.644 60.7693 15.3782C62.1152 14.0902 63.7369 13.4462 65.6344 13.4462C67.4437 13.4462 68.9882 14.0347 70.2679 15.2117C71.5697 16.3664 72.2206 17.8321 72.2206 19.6086C72.2206 20.2748 72.1433 20.8189 71.9889 21.2408C71.8344 21.6405 71.5917 21.9292 71.2608 22.1068C70.9298 22.2623 70.6209 22.3622 70.3341 22.4066C70.0472 22.4511 69.6722 22.4733 69.2088 22.4733H62.2255V23.2394C62.2255 24.3497 62.6227 25.238 63.417 25.9042C64.2113 26.5482 65.2483 26.8702 66.528 26.8702C67.4326 26.8702 68.2821 26.6592 69.0764 26.2373C69.8928 25.8154 70.3892 25.6044 70.5658 25.6044C70.9409 25.6044 71.2608 25.782 71.5255 26.1374C71.7903 26.4927 71.9227 26.8369 71.9227 27.17C71.9227 27.7251 71.3932 28.2914 70.3341 28.8688C69.275 29.4239 67.9732 29.7015 66.4287 29.7015C64.1782 29.7015 62.3358 29.0908 60.9016 27.8695C59.4675 26.6481 58.7504 25.0492 58.7504 23.0728ZM62.2255 20.3081H67.7195C68.2049 20.3081 68.5248 20.2415 68.6793 20.1082C68.8558 19.975 68.944 19.7085 68.944 19.3088C68.944 18.4205 68.6241 17.6655 67.9842 17.0437C67.3444 16.4219 66.5501 16.111 65.6013 16.111C64.6746 16.111 63.8803 16.4108 63.2184 17.0104C62.5565 17.5878 62.2255 18.3317 62.2255 19.2422V20.3081Z"></path><path d="M73.4992 15.0118C73.4992 14.6121 73.7529 14.2679 74.2604 13.9792C74.7679 13.6683 75.2753 13.5129 75.7828 13.5129C76.3344 13.5129 76.6875 13.7238 76.8419 14.1458L80.7804 24.6717L84.7188 14.2124C84.8953 13.746 85.2484 13.5129 85.7779 13.5129C86.1971 13.5129 86.6825 13.6683 87.2341 13.9792C87.7857 14.2901 88.0615 14.6343 88.0615 15.0118C88.0615 15.1673 88.0174 15.356 87.9292 15.5781L82.369 29.0686C82.1704 29.535 81.6409 29.7681 80.7804 29.7681C79.9199 29.7681 79.3903 29.535 79.1917 29.0686L73.6647 15.5781C73.5543 15.356 73.4992 15.1673 73.4992 15.0118Z"></path><path d="M89.9144 7.85017C89.9144 7.33941 90.113 6.90638 90.5101 6.55108C90.9073 6.19577 91.3817 6.01812 91.9333 6.01812C92.4849 6.01812 92.9593 6.19577 93.3564 6.55108C93.7536 6.90638 93.9522 7.33941 93.9522 7.85017C93.9522 8.33871 93.7536 8.77174 93.3564 9.14926C92.9593 9.50456 92.4849 9.68221 91.9333 9.68221C91.3817 9.68221 90.9073 9.50456 90.5101 9.14926C90.113 8.77174 89.9144 8.33871 89.9144 7.85017ZM90.2123 28.2692V14.7786C90.2123 14.4455 90.3667 14.1791 90.6756 13.9792C91.0066 13.7571 91.4258 13.6461 91.9333 13.6461C92.4408 13.6461 92.86 13.7571 93.1909 13.9792C93.5219 14.1791 93.6874 14.4455 93.6874 14.7786V28.2692C93.6874 28.5579 93.5109 28.8244 93.1578 29.0686C92.8269 29.3129 92.4187 29.435 91.9333 29.435C91.4479 29.435 91.0397 29.3129 90.7087 29.0686C90.3778 28.8244 90.2123 28.5579 90.2123 28.2692Z"></path><path d="M96.7271 23.0728V19.9084C96.7271 18.1541 97.4 16.644 98.7459 15.3782C100.092 14.0902 101.714 13.4462 103.611 13.4462C105.42 13.4462 106.965 14.0347 108.245 15.2117C109.546 16.3664 110.197 17.8321 110.197 19.6086C110.197 20.2748 110.12 20.8189 109.966 21.2408C109.811 21.6405 109.568 21.9292 109.237 22.1068C108.907 22.2623 108.598 22.3622 108.311 22.4066C108.024 22.4511 107.649 22.4733 107.186 22.4733H100.202V23.2394C100.202 24.3497 100.599 25.238 101.394 25.9042C102.188 26.5482 103.225 26.8702 104.505 26.8702C105.409 26.8702 106.259 26.6592 107.053 26.2373C107.869 25.8154 108.366 25.6044 108.542 25.6044C108.918 25.6044 109.237 25.782 109.502 26.1374C109.767 26.4927 109.899 26.8369 109.899 27.17C109.899 27.7251 109.37 28.2914 108.311 28.8688C107.252 29.4239 105.95 29.7015 104.405 29.7015C102.155 29.7015 100.313 29.0908 98.8783 27.8695C97.4442 26.6481 96.7271 25.0492 96.7271 23.0728ZM100.202 20.3081H105.696C106.182 20.3081 106.502 20.2415 106.656 20.1082C106.832 19.975 106.921 19.7085 106.921 19.3088C106.921 18.4205 106.601 17.6655 105.961 17.0437C105.321 16.4219 104.527 16.111 103.578 16.111C102.651 16.111 101.857 16.4108 101.195 17.0104C100.533 17.5878 100.202 18.3317 100.202 19.2422V20.3081Z"></path><path d="M111.509 14.9785C111.509 14.5788 111.752 14.2346 112.237 13.9459C112.722 13.6572 113.219 13.5129 113.726 13.5129C114.278 13.5129 114.631 13.7238 114.785 14.1458L118.459 24.5052L121.272 15.3116C121.427 14.8009 121.835 14.5455 122.497 14.5455C123.159 14.5455 123.567 14.8009 123.721 15.3116L126.502 24.5718L130.208 14.1458C130.341 13.7238 130.683 13.5129 131.234 13.5129C131.72 13.5129 132.205 13.6572 132.691 13.9459C133.198 14.2346 133.452 14.5899 133.452 15.0118C133.452 15.1895 133.408 15.3671 133.319 15.5448L128.189 29.0686C128.013 29.535 127.55 29.7681 126.799 29.7681C126.049 29.7681 125.575 29.5461 125.376 29.1019L122.497 20.508L119.651 29.002C119.452 29.5128 118.956 29.7681 118.161 29.7681C117.433 29.7681 116.97 29.5128 116.771 29.002L111.641 15.5448C111.553 15.2783 111.509 15.0895 111.509 14.9785Z"></path><path d="M135.027 23.0728V19.9084C135.027 18.1541 135.7 16.644 137.046 15.3782C138.392 14.0902 140.013 13.4462 141.911 13.4462C143.72 13.4462 145.265 14.0347 146.544 15.2117C147.846 16.3664 148.497 17.8321 148.497 19.6086C148.497 20.2748 148.42 20.8189 148.265 21.2408C148.111 21.6405 147.868 21.9292 147.537 22.1068C147.206 22.2623 146.898 22.3622 146.611 22.4066C146.324 22.4511 145.949 22.4733 145.485 22.4733H138.502V23.2394C138.502 24.3497 138.899 25.238 139.694 25.9042C140.488 26.5482 141.525 26.8702 142.805 26.8702C143.709 26.8702 144.559 26.6592 145.353 26.2373C146.169 25.8154 146.666 25.6044 146.842 25.6044C147.217 25.6044 147.537 25.782 147.802 26.1374C148.067 26.4927 148.199 26.8369 148.199 27.17C148.199 27.7251 147.67 28.2914 146.611 28.8688C145.552 29.4239 144.25 29.7015 142.705 29.7015C140.455 29.7015 138.612 29.0908 137.178 27.8695C135.744 26.6481 135.027 25.0492 135.027 23.0728ZM138.502 20.3081H143.996C144.481 20.3081 144.801 20.2415 144.956 20.1082C145.132 19.975 145.221 19.7085 145.221 19.3088C145.221 18.4205 144.901 17.6655 144.261 17.0437C143.621 16.4219 142.827 16.111 141.878 16.111C140.951 16.111 140.157 16.4108 139.495 17.0104C138.833 17.5878 138.502 18.3317 138.502 19.2422V20.3081Z"></path><path d="M151.331 28.2692V5.38522C151.331 5.05212 151.486 4.78564 151.795 4.58578C152.104 4.36372 152.512 4.25269 153.019 4.25269C153.527 4.25269 153.946 4.36372 154.277 4.58578C154.63 4.78564 154.806 5.05212 154.806 5.38522V15.9778C155.181 15.2672 155.744 14.6676 156.494 14.1791C157.244 13.6905 158.105 13.4462 159.076 13.4462C160.709 13.4462 162.099 14.0902 163.246 15.3782C164.415 16.6662 165 18.2096 165 20.0083V23.0728C165 24.805 164.415 26.3483 163.246 27.7029C162.077 29.0353 160.72 29.7015 159.175 29.7015C158.182 29.7015 157.267 29.4462 156.428 28.9354C155.59 28.4246 154.983 27.814 154.608 27.1033V28.2692C154.608 28.5579 154.442 28.8244 154.111 29.0686C153.802 29.3129 153.438 29.435 153.019 29.435C152.534 29.435 152.126 29.3129 151.795 29.0686C151.486 28.8244 151.331 28.5579 151.331 28.2692ZM154.806 23.839C154.806 24.3275 155.148 24.916 155.832 25.6044C156.538 26.2706 157.322 26.6037 158.182 26.6037C159.087 26.6037 159.87 26.2484 160.532 25.5378C161.194 24.805 161.525 23.9833 161.525 23.0728V20.0083C161.525 19.12 161.183 18.3206 160.499 17.61C159.837 16.8994 159.054 16.5441 158.149 16.5441C157.289 16.5441 156.516 16.8661 155.832 17.5101C155.148 18.1541 154.806 18.9868 154.806 20.0083V23.839Z"></path></mask><path d="M41.6753 28.2692V6.21798C41.6753 5.90708 41.7856 5.6406 42.0063 5.41854C42.2269 5.19647 42.5027 5.08544 42.8337 5.08544H49.122C54.1967 5.08544 56.7341 7.35052 56.7341 11.8807C56.7341 13.7682 56.3149 15.2561 55.4764 16.3442C54.638 17.4101 53.5017 18.1208 52.0675 18.4761L56.701 27.2366C56.7893 27.392 56.8334 27.5586 56.8334 27.7362C56.8334 28.1804 56.6017 28.5912 56.1384 28.9687C55.6971 29.3462 55.2227 29.535 54.7152 29.535C54.1416 29.535 53.6782 29.1908 53.3252 28.5024L48.4931 18.9757H45.1504V28.2692C45.1504 28.6245 44.9739 28.9132 44.6209 29.1353C44.2899 29.3351 43.8817 29.435 43.3963 29.435C42.933 29.435 42.5248 29.3351 42.1717 29.1353C41.8408 28.9132 41.6753 28.6245 41.6753 28.2692ZM45.1504 16.1444H49.122C51.8579 16.1444 53.2259 14.8231 53.2259 12.1805C53.2259 9.53787 51.8579 8.21658 49.122 8.21658H45.1504V16.1444Z" stroke="#161F38" stroke-width="2" mask="url(#path-1-outside-1_1_6640)"></path><path d="M58.7504 23.0728V19.9084C58.7504 18.1541 59.4233 16.644 60.7693 15.3782C62.1152 14.0902 63.7369 13.4462 65.6344 13.4462C67.4437 13.4462 68.9882 14.0347 70.2679 15.2117C71.5697 16.3664 72.2206 17.8321 72.2206 19.6086C72.2206 20.2748 72.1433 20.8189 71.9889 21.2408C71.8344 21.6405 71.5917 21.9292 71.2608 22.1068C70.9298 22.2623 70.6209 22.3622 70.3341 22.4066C70.0472 22.4511 69.6722 22.4733 69.2088 22.4733H62.2255V23.2394C62.2255 24.3497 62.6227 25.238 63.417 25.9042C64.2113 26.5482 65.2483 26.8702 66.528 26.8702C67.4326 26.8702 68.2821 26.6592 69.0764 26.2373C69.8928 25.8154 70.3892 25.6044 70.5658 25.6044C70.9409 25.6044 71.2608 25.782 71.5255 26.1374C71.7903 26.4927 71.9227 26.8369 71.9227 27.17C71.9227 27.7251 71.3932 28.2914 70.3341 28.8688C69.275 29.4239 67.9732 29.7015 66.4287 29.7015C64.1782 29.7015 62.3358 29.0908 60.9016 27.8695C59.4675 26.6481 58.7504 25.0492 58.7504 23.0728ZM62.2255 20.3081H67.7195C68.2049 20.3081 68.5248 20.2415 68.6793 20.1082C68.8558 19.975 68.944 19.7085 68.944 19.3088C68.944 18.4205 68.6241 17.6655 67.9842 17.0437C67.3444 16.4219 66.5501 16.111 65.6013 16.111C64.6746 16.111 63.8803 16.4108 63.2184 17.0104C62.5565 17.5878 62.2255 18.3317 62.2255 19.2422V20.3081Z" stroke="#161F38" stroke-width="2" mask="url(#path-1-outside-1_1_6640)"></path><path d="M73.4992 15.0118C73.4992 14.6121 73.7529 14.2679 74.2604 13.9792C74.7679 13.6683 75.2753 13.5129 75.7828 13.5129C76.3344 13.5129 76.6875 13.7238 76.8419 14.1458L80.7804 24.6717L84.7188 14.2124C84.8953 13.746 85.2484 13.5129 85.7779 13.5129C86.1971 13.5129 86.6825 13.6683 87.2341 13.9792C87.7857 14.2901 88.0615 14.6343 88.0615 15.0118C88.0615 15.1673 88.0174 15.356 87.9292 15.5781L82.369 29.0686C82.1704 29.535 81.6409 29.7681 80.7804 29.7681C79.9199 29.7681 79.3903 29.535 79.1917 29.0686L73.6647 15.5781C73.5543 15.356 73.4992 15.1673 73.4992 15.0118Z" stroke="#161F38" stroke-width="2" mask="url(#path-1-outside-1_1_6640)"></path><path d="M89.9144 7.85017C89.9144 7.33941 90.113 6.90638 90.5101 6.55108C90.9073 6.19577 91.3817 6.01812 91.9333 6.01812C92.4849 6.01812 92.9593 6.19577 93.3564 6.55108C93.7536 6.90638 93.9522 7.33941 93.9522 7.85017C93.9522 8.33871 93.7536 8.77174 93.3564 9.14926C92.9593 9.50456 92.4849 9.68221 91.9333 9.68221C91.3817 9.68221 90.9073 9.50456 90.5101 9.14926C90.113 8.77174 89.9144 8.33871 89.9144 7.85017ZM90.2123 28.2692V14.7786C90.2123 14.4455 90.3667 14.1791 90.6756 13.9792C91.0066 13.7571 91.4258 13.6461 91.9333 13.6461C92.4408 13.6461 92.86 13.7571 93.1909 13.9792C93.5219 14.1791 93.6874 14.4455 93.6874 14.7786V28.2692C93.6874 28.5579 93.5109 28.8244 93.1578 29.0686C92.8269 29.3129 92.4187 29.435 91.9333 29.435C91.4479 29.435 91.0397 29.3129 90.7087 29.0686C90.3778 28.8244 90.2123 28.5579 90.2123 28.2692Z" stroke="#161F38" stroke-width="2" mask="url(#path-1-outside-1_1_6640)"></path><path d="M96.7271 23.0728V19.9084C96.7271 18.1541 97.4 16.644 98.7459 15.3782C100.092 14.0902 101.714 13.4462 103.611 13.4462C105.42 13.4462 106.965 14.0347 108.245 15.2117C109.546 16.3664 110.197 17.8321 110.197 19.6086C110.197 20.2748 110.12 20.8189 109.966 21.2408C109.811 21.6405 109.568 21.9292 109.237 22.1068C108.907 22.2623 108.598 22.3622 108.311 22.4066C108.024 22.4511 107.649 22.4733 107.186 22.4733H100.202V23.2394C100.202 24.3497 100.599 25.238 101.394 25.9042C102.188 26.5482 103.225 26.8702 104.505 26.8702C105.409 26.8702 106.259 26.6592 107.053 26.2373C107.869 25.8154 108.366 25.6044 108.542 25.6044C108.918 25.6044 109.237 25.782 109.502 26.1374C109.767 26.4927 109.899 26.8369 109.899 27.17C109.899 27.7251 109.37 28.2914 108.311 28.8688C107.252 29.4239 105.95 29.7015 104.405 29.7015C102.155 29.7015 100.313 29.0908 98.8783 27.8695C97.4442 26.6481 96.7271 25.0492 96.7271 23.0728ZM100.202 20.3081H105.696C106.182 20.3081 106.502 20.2415 106.656 20.1082C106.832 19.975 106.921 19.7085 106.921 19.3088C106.921 18.4205 106.601 17.6655 105.961 17.0437C105.321 16.4219 104.527 16.111 103.578 16.111C102.651 16.111 101.857 16.4108 101.195 17.0104C100.533 17.5878 100.202 18.3317 100.202 19.2422V20.3081Z" stroke="#161F38" stroke-width="2" mask="url(#path-1-outside-1_1_6640)"></path><path d="M111.509 14.9785C111.509 14.5788 111.752 14.2346 112.237 13.9459C112.722 13.6572 113.219 13.5129 113.726 13.5129C114.278 13.5129 114.631 13.7238 114.785 14.1458L118.459 24.5052L121.272 15.3116C121.427 14.8009 121.835 14.5455 122.497 14.5455C123.159 14.5455 123.567 14.8009 123.721 15.3116L126.502 24.5718L130.208 14.1458C130.341 13.7238 130.683 13.5129 131.234 13.5129C131.72 13.5129 132.205 13.6572 132.691 13.9459C133.198 14.2346 133.452 14.5899 133.452 15.0118C133.452 15.1895 133.408 15.3671 133.319 15.5448L128.189 29.0686C128.013 29.535 127.55 29.7681 126.799 29.7681C126.049 29.7681 125.575 29.5461 125.376 29.1019L122.497 20.508L119.651 29.002C119.452 29.5128 118.956 29.7681 118.161 29.7681C117.433 29.7681 116.97 29.5128 116.771 29.002L111.641 15.5448C111.553 15.2783 111.509 15.0895 111.509 14.9785Z" stroke="#161F38" stroke-width="2" mask="url(#path-1-outside-1_1_6640)"></path><path d="M135.027 23.0728V19.9084C135.027 18.1541 135.7 16.644 137.046 15.3782C138.392 14.0902 140.013 13.4462 141.911 13.4462C143.72 13.4462 145.265 14.0347 146.544 15.2117C147.846 16.3664 148.497 17.8321 148.497 19.6086C148.497 20.2748 148.42 20.8189 148.265 21.2408C148.111 21.6405 147.868 21.9292 147.537 22.1068C147.206 22.2623 146.898 22.3622 146.611 22.4066C146.324 22.4511 145.949 22.4733 145.485 22.4733H138.502V23.2394C138.502 24.3497 138.899 25.238 139.694 25.9042C140.488 26.5482 141.525 26.8702 142.805 26.8702C143.709 26.8702 144.559 26.6592 145.353 26.2373C146.169 25.8154 146.666 25.6044 146.842 25.6044C147.217 25.6044 147.537 25.782 147.802 26.1374C148.067 26.4927 148.199 26.8369 148.199 27.17C148.199 27.7251 147.67 28.2914 146.611 28.8688C145.552 29.4239 144.25 29.7015 142.705 29.7015C140.455 29.7015 138.612 29.0908 137.178 27.8695C135.744 26.6481 135.027 25.0492 135.027 23.0728ZM138.502 20.3081H143.996C144.481 20.3081 144.801 20.2415 144.956 20.1082C145.132 19.975 145.221 19.7085 145.221 19.3088C145.221 18.4205 144.901 17.6655 144.261 17.0437C143.621 16.4219 142.827 16.111 141.878 16.111C140.951 16.111 140.157 16.4108 139.495 17.0104C138.833 17.5878 138.502 18.3317 138.502 19.2422V20.3081Z" stroke="#161F38" stroke-width="2" mask="url(#path-1-outside-1_1_6640)"></path><path d="M151.331 28.2692V5.38522C151.331 5.05212 151.486 4.78564 151.795 4.58578C152.104 4.36372 152.512 4.25269 153.019 4.25269C153.527 4.25269 153.946 4.36372 154.277 4.58578C154.63 4.78564 154.806 5.05212 154.806 5.38522V15.9778C155.181 15.2672 155.744 14.6676 156.494 14.1791C157.244 13.6905 158.105 13.4462 159.076 13.4462C160.709 13.4462 162.099 14.0902 163.246 15.3782C164.415 16.6662 165 18.2096 165 20.0083V23.0728C165 24.805 164.415 26.3483 163.246 27.7029C162.077 29.0353 160.72 29.7015 159.175 29.7015C158.182 29.7015 157.267 29.4462 156.428 28.9354C155.59 28.4246 154.983 27.814 154.608 27.1033V28.2692C154.608 28.5579 154.442 28.8244 154.111 29.0686C153.802 29.3129 153.438 29.435 153.019 29.435C152.534 29.435 152.126 29.3129 151.795 29.0686C151.486 28.8244 151.331 28.5579 151.331 28.2692ZM154.806 23.839C154.806 24.3275 155.148 24.916 155.832 25.6044C156.538 26.2706 157.322 26.6037 158.182 26.6037C159.087 26.6037 159.87 26.2484 160.532 25.5378C161.194 24.805 161.525 23.9833 161.525 23.0728V20.0083C161.525 19.12 161.183 18.3206 160.499 17.61C159.837 16.8994 159.054 16.5441 158.149 16.5441C157.289 16.5441 156.516 16.8661 155.832 17.5101C155.148 18.1541 154.806 18.9868 154.806 20.0083V23.839Z" stroke="#161F38" stroke-width="2" mask="url(#path-1-outside-1_1_6640)"></path><path d="M16.2111 26.5253C20.1801 26.8425 24.9179 33.3651 29.8616 27.0286C30.1775 26.5838 30.492 26.1278 30.8063 25.6602C30.4906 26.1715 30.1757 26.626 29.8616 27.0286C26.1976 32.1867 22.3377 35.8388 16.4328 38.7613C16.1223 38.915 15.7612 38.6871 15.7612 38.3406V26.9677C15.7612 26.7155 15.9598 26.5053 16.2111 26.5253Z" fill="#F9250F"></path><path d="M33.518 16.759C33.518 26.0147 26.0147 33.518 16.759 33.518C7.50326 33.518 0 26.0147 0 16.759C0 7.50326 7.50326 0 16.759 0C26.0147 0 33.518 7.50326 33.518 16.759Z" fill="#F9250F"></path><path d="M24.2581 14.4555L19.3756 13.7447L17.193 9.31259C17.1333 9.19124 17.0353 9.09301 16.9141 9.0333C16.6103 8.88306 16.2411 9.00826 16.0892 9.31259L13.9065 13.7447L9.02405 14.4555C8.88944 14.4747 8.76636 14.5383 8.67214 14.6346C8.55822 14.7519 8.49545 14.9097 8.49761 15.0733C8.49978 15.2369 8.5667 15.3929 8.68368 15.5072L12.2162 18.9569L11.3816 23.8282C11.3621 23.9415 11.3746 24.0581 11.4178 24.1646C11.461 24.2712 11.5331 24.3635 11.626 24.431C11.7189 24.4986 11.8288 24.5388 11.9434 24.547C12.0579 24.5551 12.1724 24.531 12.2739 24.4773L16.6411 22.1775L21.0082 24.4773C21.1274 24.5409 21.2659 24.5621 21.3986 24.539C21.7332 24.4812 21.9582 24.1634 21.9005 23.8282L21.0659 18.9569L24.5984 15.5072C24.6946 15.4128 24.7581 15.2895 24.7773 15.1547C24.8292 14.8176 24.5946 14.5055 24.2581 14.4555ZM19.5794 18.4715L20.2736 22.5223L16.6411 20.6115L13.0085 22.5242L13.7027 18.4735L10.7644 15.6035L14.8257 15.0121L16.6411 11.3274L18.4564 15.0121L22.5178 15.6035L19.5794 18.4715Z" fill="white"></path></svg>