<svg xmlns="http://www.w3.org/2000/svg" width="122" height="205" viewBox="0 0 122 205" fill="none"><path d="M74.2085 63.0986H82.2428C81.0565 60.4011 80.3196 58.7287 80.3196 58.7287L0.245621 27.4565V161.249C0.245621 161.267 0.245621 161.285 0.245621 161.285V161.411C0.281569 161.645 0.425361 161.878 0.730918 162.058L73.7411 204.228C73.8849 204.3 74.0287 204.372 74.2085 204.408V63.0986Z" fill="#242993"></path><path d="M121.228 43.9468L75.143 70.2557V150.783L75.1071 150.765V204.534C75.125 204.534 75.125 204.534 75.143 204.534C75.6643 204.516 76.2035 204.372 76.6169 204.138L120.509 178.782C120.959 178.513 121.192 178.189 121.21 177.865L121.228 43.9468Z" fill="url(#paint0_linear_1_1891)"></path><path d="M71.8358 30.01V148.877V183.548V203.149L73.7411 204.246C74.1005 204.462 74.6038 204.552 75.1071 204.534C75.6463 204.516 75.6643 204.21 76.0956 203.958L76.4911 203.796L76.0597 183.26V151.071L77.0123 30.01H71.8358Z" fill="#3947BA"></path><path d="M77.0482 183.53V151.862V69.1768L75.161 70.2557V150.783L75.125 150.765V204.534C75.143 204.534 75.143 204.534 75.161 204.534C75.2688 204.534 75.3767 204.516 75.4845 204.498C75.5025 204.498 75.5204 204.498 75.5384 204.498C75.7901 204.462 76.0237 204.39 76.2394 204.318C76.2574 204.318 76.2754 204.3 76.2933 204.3C76.4192 204.246 76.527 204.192 76.6348 204.138L77.0482 203.904V183.53Z" fill="#CAE7FF"></path><g opacity="0.51"><path opacity="0.51" d="M3.85828 34.8115L68.205 71.9821V197.197L3.85828 160.026V34.8115Z" fill="#4553C7"></path></g><g opacity="0.51"><path opacity="0.51" d="M0.245621 141.953L71.8359 93.9931V69.2667L0.245621 27.4565V141.953Z" fill="#4553C7"></path></g><path d="M73.7592 70.3817L0.748946 28.2118C0.0120134 27.7803 0.101881 27.043 0.964631 26.5574L44.857 1.20158C45.7018 0.716044 46.9959 0.662096 47.7329 1.0757L120.743 43.2455C121.48 43.6771 121.39 44.4144 120.545 44.8999L76.653 70.2558C75.7722 70.7413 74.4961 70.7953 73.7592 70.3817Z" fill="#BCD5FF"></path><mask id="mask0_1_1891" style="mask-type:alpha" maskUnits="userSpaceOnUse" x="0" y="2" width="75" height="64"><path d="M46.9959 2.96387H41.7834L0.94659 26.5394C0.101814 27.0249 -0.00603104 27.7802 0.748875 28.1938L2.72601 29.3447L66.1561 65.9758L74.496 65.8859L46.9959 2.96387Z" fill="url(#paint1_linear_1_1891)"></path></mask><g mask="url(#mask0_1_1891)"><path opacity="0.78" d="M46.9959 2.96387H41.7834L0.94659 26.5394C0.101814 27.0249 -0.00603104 27.7802 0.748875 28.1938L2.72601 29.3447L66.1561 65.9758L74.496 65.8859L46.9959 2.96387Z" fill="url(#paint2_linear_1_1891)"></path><path d="M46.9958 5.55347L11.9107 25.8202L8.5136 25.1908V27.7803L74.478 65.886L107.874 43.1736L46.9958 5.55347Z" fill="url(#paint3_linear_1_1891)"></path><path d="M112.96 41.0696V43.6591L74.4781 65.8859V63.2964L112.96 41.0696Z" fill="url(#paint4_linear_1_1891)"></path><path d="M74.478 63.2964L8.5136 25.1907L46.9958 2.96387L112.96 41.0696L74.478 63.2964Z" fill="url(#paint5_linear_1_1891)"></path><path d="M33.1382 22.4034L32.0778 21.81L32.1676 21.3065L41.9275 15.6418L43.2756 16.2713L43.0239 16.7028L33.1382 22.4034Z" fill="#3F38FC"></path><path d="M41.9631 16.0914L43.0235 16.7028L43.7065 16.3072L41.9631 15.3181L31.4124 21.4143L32.0774 21.8099L41.9631 16.0914Z" fill="url(#paint6_linear_1_1891)"></path><path d="M36.3191 24.2376L35.2766 23.6442L35.3664 23.1407L45.1083 17.4761L46.4564 18.1235L46.2047 18.5371L36.3191 24.2376Z" fill="#3F38FC"></path><path d="M45.1626 17.9256L46.2051 18.537L46.8881 18.1414L45.1626 17.1523L34.5939 23.2485L35.2769 23.6442L45.1626 17.9256Z" fill="url(#paint7_linear_1_1891)"></path><path d="M39.5191 26.0898L38.4586 25.4784L38.5485 24.9749L48.3083 19.3103L49.6564 19.9577L49.4047 20.3713L39.5191 26.0898Z" fill="#3F38FC"></path><path d="M48.344 19.7598L49.4044 20.3713L50.0694 19.9756L48.344 18.9866L37.7932 25.0828L38.4583 25.4784L48.344 19.7598Z" fill="url(#paint8_linear_1_1891)"></path><path d="M42.6998 27.9241L41.6573 27.3126L41.7471 26.8271L51.489 21.1445L52.8371 21.7919L52.5854 22.2055L42.6998 27.9241Z" fill="#3F38FC"></path><path d="M51.5433 21.6121L52.5858 22.2055L53.2688 21.8099L51.5433 20.8208L40.9747 26.917L41.6577 27.3126L51.5433 21.6121Z" fill="url(#paint9_linear_1_1891)"></path><path d="M52.0279 33.337L50.9854 32.7436L51.0753 32.24L60.8172 26.5754L62.1652 27.2048L61.9136 27.6364L52.0279 33.337Z" fill="#3F38FC"></path><path d="M60.8715 27.025L61.914 27.6364L62.597 27.2408L60.8715 26.2517L50.3028 32.3479L50.9858 32.7435L60.8715 27.025Z" fill="url(#paint10_linear_1_1891)"></path><path d="M55.2277 35.1712L54.1672 34.5778L54.2571 34.0743L64.017 28.4097L65.365 29.0571L65.1134 29.4707L55.2277 35.1712Z" fill="#3F38FC"></path><path d="M64.0527 28.8592L65.1132 29.4706L65.7782 29.075L64.0527 28.0859L53.502 34.1821L54.167 34.5778L64.0527 28.8592Z" fill="url(#paint11_linear_1_1891)"></path><path d="M58.4089 37.0234L57.3664 36.412L57.4563 35.9085L67.1981 30.2439L68.5462 30.8913L68.2945 31.3049L58.4089 37.0234Z" fill="#3F38FC"></path><path d="M67.2521 30.6934L68.2945 31.3049L68.9776 30.9092L67.2521 29.9202L56.6834 36.0163L57.3664 36.412L67.2521 30.6934Z" fill="url(#paint12_linear_1_1891)"></path><path d="M61.6084 38.8577L60.5479 38.2463L60.6378 37.7607L70.3797 32.0781L71.7457 32.7255L71.4941 33.1391L61.6084 38.8577Z" fill="#3F38FC"></path><path d="M70.4335 32.5456L71.4939 33.1391L72.159 32.7434L70.4335 31.7544L59.8828 37.8506L60.5478 38.2462L70.4335 32.5456Z" fill="url(#paint13_linear_1_1891)"></path><path d="M70.9372 44.2706L69.8767 43.6772L69.9666 43.1736L79.7085 37.509L81.0745 38.1384L80.8229 38.57L70.9372 44.2706Z" fill="#3F38FC"></path><path d="M79.7623 37.9586L80.8227 38.57L81.4878 38.1744L79.7623 37.1853L69.2115 43.2815L69.8766 43.6771L79.7623 37.9586Z" fill="url(#paint14_linear_1_1891)"></path><path d="M74.1183 46.1048L73.0758 45.5114L73.1656 45.0079L82.9075 39.3433L84.2556 39.9906L84.0039 40.4043L74.1183 46.1048Z" fill="#3F38FC"></path><path d="M82.9615 39.7928L84.004 40.4042L84.687 40.0086L82.9615 39.0195L72.3928 45.1157L73.0758 45.5113L82.9615 39.7928Z" fill="url(#paint15_linear_1_1891)"></path></g><path opacity="0.51" d="M83.9145 152.132C83.6808 152.132 83.4651 152.078 83.2494 151.952C82.836 151.718 82.5844 151.287 82.5844 150.801V109.315C82.5844 108.343 83.1056 107.426 83.9504 106.941L113.895 89.6413C114.308 89.4075 114.812 89.4075 115.225 89.6413C115.639 89.8751 115.89 90.3066 115.89 90.7922V132.279C115.89 133.25 115.369 134.167 114.524 134.652L84.5795 151.952C84.3638 152.078 84.1481 152.132 83.9145 152.132ZM114.56 90.3786C114.488 90.3786 114.416 90.3966 114.344 90.4325L84.3998 107.732C83.8246 108.056 83.4831 108.667 83.4831 109.333V150.819C83.4831 151.035 83.6269 151.161 83.6988 151.197C83.7707 151.233 83.9325 151.305 84.1302 151.197L114.075 133.897C114.65 133.573 114.991 132.962 114.991 132.297V90.8102C114.991 90.5944 114.848 90.4685 114.776 90.4325C114.74 90.4145 114.668 90.3786 114.56 90.3786Z" fill="#4553C7"></path><path d="M69.9667 72.4317C69.9667 71.6045 69.3916 70.5975 68.6726 70.1838C68.3131 69.9681 67.9896 69.9501 67.7559 70.0939L66.8393 70.6334L67.4144 70.6514C67.3965 70.7413 67.3965 70.8312 67.3965 70.9391C67.3965 71.7663 67.9716 72.7734 68.6906 73.187C68.7804 73.2409 68.8883 73.2769 68.9782 73.3129L68.7086 73.8164L69.6073 73.2949C69.8229 73.151 69.9667 72.8633 69.9667 72.4317Z" fill="url(#paint16_linear_1_1891)"></path><path d="M69.0502 72.9892C69.0502 73.8164 68.475 74.158 67.756 73.7444C67.0371 73.3308 66.4619 72.3238 66.4619 71.4966C66.4619 70.6694 67.0371 70.3277 67.756 70.7413C68.457 71.1369 69.0502 72.144 69.0502 72.9892Z" fill="url(#paint17_linear_1_1891)"></path><path d="M68.4928 72.6655C68.4928 73.151 68.1513 73.3309 67.7379 73.0971C67.3245 72.8633 66.983 72.2699 66.983 71.8023C66.983 71.3168 67.3245 71.1369 67.7379 71.3707C68.1513 71.6045 68.4928 72.18 68.4928 72.6655Z" fill="#3F38FC"></path><path d="M5.61961 35.4769C5.61961 34.6497 5.04445 33.6426 4.32549 33.229C3.96601 33.0132 3.64248 32.9952 3.40882 33.1391L2.49214 33.6786L3.06731 33.6966C3.04933 33.7865 3.04934 33.8764 3.04934 33.9843C3.04934 34.8115 3.6245 35.8186 4.34346 36.2322C4.43333 36.2861 4.5232 36.3221 4.61307 36.358L4.34346 36.8616L5.24216 36.3401C5.47582 36.1962 5.61961 35.8905 5.61961 35.4769Z" fill="url(#paint18_linear_1_1891)"></path><path d="M4.70304 36.0163C4.70304 36.8435 4.12787 37.1851 3.40891 36.7715C2.68996 36.3579 2.11479 35.3509 2.11479 34.5237C2.11479 33.6965 2.68996 33.3548 3.40891 33.7684C4.1099 34.182 4.70304 35.189 4.70304 36.0163Z" fill="url(#paint19_linear_1_1891)"></path><path d="M4.14571 35.7107C4.14571 36.1962 3.8042 36.376 3.3908 36.1423C2.9774 35.9085 2.63589 35.315 2.63589 34.8475C2.63589 34.3619 2.9774 34.1821 3.3908 34.4159C3.8042 34.6497 4.14571 35.2251 4.14571 35.7107Z" fill="#3F38FC"></path><path d="M69.9667 197.61C69.9667 196.783 69.3915 195.776 68.6726 195.363C68.3131 195.147 67.9896 195.129 67.7559 195.273L66.8392 195.812C67.0729 195.686 67.3964 195.704 67.7559 195.902C68.4749 196.316 69.05 197.323 69.05 198.15C69.05 198.546 68.9062 198.833 68.6905 198.977L69.5892 198.456C69.8229 198.312 69.9667 198.024 69.9667 197.61Z" fill="url(#paint20_linear_1_1891)"></path><path d="M68.6722 198.366C68.5824 198.312 68.4925 198.258 68.4026 198.186C68.2768 198.402 68.0252 198.438 67.7376 198.276C67.3242 198.042 66.9827 197.449 66.9827 196.981C66.9827 196.639 67.1444 196.459 67.3961 196.459C67.3781 196.352 67.3601 196.244 67.3601 196.136C67.3601 196.028 67.3781 195.938 67.3781 195.848L66.8029 195.83C66.5693 195.974 66.4255 196.262 66.4255 196.675C66.4255 197.502 67.0007 198.51 67.7196 198.923C68.0971 199.139 68.4206 199.139 68.6722 198.995L68.9418 198.51C68.852 198.456 68.7621 198.42 68.6722 198.366Z" fill="url(#paint21_linear_1_1891)"></path><path d="M69.05 198.15C69.05 197.323 68.4749 196.316 67.7559 195.902C67.3964 195.704 67.0729 195.668 66.8392 195.812L67.4144 195.83C67.3964 195.92 67.3964 196.01 67.3964 196.118C67.3964 196.226 67.4144 196.334 67.4324 196.442C67.5402 196.442 67.6481 196.459 67.7739 196.531C68.1873 196.765 68.5288 197.359 68.5288 197.826C68.5288 197.97 68.4928 198.078 68.4389 198.168C68.5288 198.24 68.6187 198.294 68.7085 198.348C68.7984 198.402 68.9062 198.438 68.9961 198.474L68.7265 198.959C68.9062 198.833 69.05 198.545 69.05 198.15Z" fill="url(#paint22_linear_1_1891)"></path><path d="M69.05 198.15C69.05 197.323 68.4749 196.316 67.7559 195.902C67.3964 195.704 67.0729 195.668 66.8392 195.812L67.4144 195.83C67.3964 195.92 67.3964 196.01 67.3964 196.118C67.3964 196.226 67.4144 196.334 67.4324 196.442C67.5402 196.442 67.6481 196.459 67.7739 196.531C68.1873 196.765 68.5288 197.359 68.5288 197.826C68.5288 197.97 68.4928 198.078 68.4389 198.168C68.5288 198.24 68.6187 198.294 68.7085 198.348C68.7984 198.402 68.9062 198.438 68.9961 198.474L68.7265 198.959C68.9062 198.833 69.05 198.545 69.05 198.15Z" fill="url(#paint23_linear_1_1891)"></path><path d="M67.0009 196.963C67.0009 197.449 67.3424 198.024 67.7559 198.258C68.0434 198.42 68.2951 198.384 68.4209 198.168C67.9176 197.754 67.5222 197.071 67.4143 196.424C67.1627 196.442 67.0009 196.639 67.0009 196.963Z" fill="#3F38FC"></path><path d="M68.4028 198.168C68.4567 198.078 68.4927 197.97 68.4927 197.826C68.4927 197.341 68.1512 196.765 67.7378 196.531C67.612 196.46 67.5041 196.424 67.3963 196.442C67.5041 197.089 67.8995 197.772 68.4028 198.168Z" fill="#3F38FC"></path><path d="M4.32569 158.39C3.96621 158.174 3.64268 158.156 3.40901 158.3L2.49234 158.839C2.726 158.713 3.04953 158.731 3.40901 158.929C4.12797 159.343 4.70314 160.35 4.70314 161.177C4.70314 161.573 4.55935 161.86 4.34366 162.004L5.24236 161.483C5.47602 161.357 5.61981 161.051 5.61981 160.638C5.61981 159.828 5.04465 158.803 4.32569 158.39Z" fill="url(#paint24_linear_1_1891)"></path><path d="M4.3258 161.393C4.23593 161.339 4.14606 161.285 4.05619 161.213C3.93037 161.429 3.67874 161.465 3.39115 161.303C2.97775 161.069 2.63625 160.476 2.63625 160.008C2.63625 159.667 2.79802 159.487 3.04965 159.487C3.03168 159.379 3.0137 159.271 3.0137 159.163C3.0137 159.055 3.0137 158.965 3.03168 158.875L2.45651 158.857C2.22285 159.001 2.07906 159.289 2.07906 159.702C2.07906 160.53 2.65422 161.537 3.37318 161.95C3.75063 162.166 4.07416 162.166 4.3258 162.022L4.59541 161.537C4.50554 161.501 4.41567 161.465 4.3258 161.393Z" fill="url(#paint25_linear_1_1891)"></path><path d="M4.70314 161.195C4.70314 160.368 4.12797 159.361 3.40901 158.947C3.04953 158.731 2.726 158.714 2.49234 158.857L3.06751 158.875C3.04953 158.965 3.04954 159.055 3.04954 159.163C3.04954 159.271 3.06751 159.379 3.08548 159.487C3.19333 159.487 3.30117 159.505 3.42699 159.577C3.84039 159.81 4.18189 160.404 4.18189 160.871C4.18189 161.015 4.14595 161.123 4.09203 161.213C4.1819 161.285 4.27177 161.339 4.36164 161.393C4.45151 161.447 4.54137 161.483 4.64922 161.519L4.37961 162.004C4.55935 161.878 4.70314 161.591 4.70314 161.195Z" fill="url(#paint26_linear_1_1891)"></path><path d="M4.70314 161.195C4.70314 160.368 4.12797 159.361 3.40901 158.947C3.04953 158.731 2.726 158.714 2.49234 158.857L3.06751 158.875C3.04953 158.965 3.04954 159.055 3.04954 159.163C3.04954 159.271 3.06751 159.379 3.08548 159.487C3.19333 159.487 3.30117 159.505 3.42699 159.577C3.84039 159.81 4.18189 160.404 4.18189 160.871C4.18189 161.015 4.14595 161.123 4.09203 161.213C4.1819 161.285 4.27177 161.339 4.36164 161.393C4.45151 161.447 4.54137 161.483 4.64922 161.519L4.37961 162.004C4.55935 161.878 4.70314 161.591 4.70314 161.195Z" fill="url(#paint27_linear_1_1891)"></path><path d="M2.63609 160.008C2.63609 160.494 2.9776 161.069 3.391 161.303C3.67858 161.465 3.93022 161.429 4.05604 161.213C3.55277 160.799 3.15734 160.116 3.0495 159.469C2.81584 159.487 2.63609 159.667 2.63609 160.008Z" fill="#3F38FC"></path><path d="M4.05637 161.213C4.11029 161.123 4.14624 161.015 4.14624 160.871C4.14624 160.386 3.80474 159.81 3.39134 159.577C3.26552 159.505 3.15768 159.469 3.04984 159.487C3.15768 160.116 3.5531 160.8 4.05637 161.213Z" fill="#3F38FC"></path><defs><linearGradient id="paint0_linear_1_1891" x1="98.1716" y1="204.521" x2="98.1716" y2="43.9473" gradientUnits="userSpaceOnUse"><stop stop-color="#C0D6FF"></stop><stop offset="0.2978" stop-color="#C5DBFF"></stop><stop offset="0.6488" stop-color="#D3E9FF"></stop><stop offset="1" stop-color="#E9FFFF"></stop></linearGradient><linearGradient id="paint1_linear_1_1891" x1="11.7881" y1="34.4718" x2="86.02" y2="34.4718" gradientUnits="userSpaceOnUse"><stop></stop><stop offset="0.0469" stop-color="#2F2F2F"></stop><stop offset="0.0981" stop-color="#5A5A5A"></stop><stop offset="0.155" stop-color="#828282"></stop><stop offset="0.2161" stop-color="#A4A4A4"></stop><stop offset="0.2828" stop-color="#C0C0C0"></stop><stop offset="0.3571" stop-color="#D7D7D7"></stop><stop offset="0.442" stop-color="#E9E9E9"></stop><stop offset="0.5443" stop-color="#F6F6F6"></stop><stop offset="0.6813" stop-color="#FDFDFD"></stop><stop offset="1" stop-color="white"></stop></linearGradient><linearGradient id="paint2_linear_1_1891" x1="11.7881" y1="34.4718" x2="86.02" y2="34.4718" gradientUnits="userSpaceOnUse"><stop stop-color="#E9FFFF"></stop><stop offset="0.0374" stop-color="#D3EBFF"></stop><stop offset="0.1056" stop-color="#B2CCFF"></stop><stop offset="0.1817" stop-color="#96B2FF"></stop><stop offset="0.2663" stop-color="#7F9DFF"></stop><stop offset="0.3632" stop-color="#6D8CFF"></stop><stop offset="0.4798" stop-color="#6081FF"></stop><stop offset="0.6363" stop-color="#597AFF"></stop><stop offset="1" stop-color="#5778FF"></stop></linearGradient><linearGradient id="paint3_linear_1_1891" x1="8.51252" y1="35.7242" x2="107.879" y2="35.7242" gradientUnits="userSpaceOnUse"><stop stop-color="#5778FF"></stop><stop offset="0.1779" stop-color="#5C7DFF"></stop><stop offset="0.3876" stop-color="#6A8AFF"></stop><stop offset="0.6134" stop-color="#82A0FF"></stop><stop offset="0.849" stop-color="#A3BEFF"></stop><stop offset="1" stop-color="#BCD5FF"></stop></linearGradient><linearGradient id="paint4_linear_1_1891" x1="74.479" y1="53.4774" x2="112.958" y2="53.4774" gradientUnits="userSpaceOnUse"><stop stop-color="#C0D6FF"></stop><stop offset="0.2978" stop-color="#C5DBFF"></stop><stop offset="0.6488" stop-color="#D3E9FF"></stop><stop offset="1" stop-color="#E9FFFF"></stop></linearGradient><linearGradient id="paint5_linear_1_1891" x1="8.51252" y1="33.1262" x2="112.958" y2="33.1262" gradientUnits="userSpaceOnUse"><stop stop-color="#C0D6FF"></stop><stop offset="0.2978" stop-color="#C5DBFF"></stop><stop offset="0.6488" stop-color="#D3E9FF"></stop><stop offset="1" stop-color="#E9FFFF"></stop></linearGradient><linearGradient id="paint6_linear_1_1891" x1="31.4089" y1="18.5568" x2="43.6983" y2="18.5568" gradientUnits="userSpaceOnUse"><stop stop-color="#5778FF"></stop><stop offset="0.1779" stop-color="#5C7DFF"></stop><stop offset="0.3876" stop-color="#6A8AFF"></stop><stop offset="0.6134" stop-color="#82A0FF"></stop><stop offset="0.849" stop-color="#A3BEFF"></stop><stop offset="1" stop-color="#BCD5FF"></stop></linearGradient><linearGradient id="paint7_linear_1_1891" x1="34.5991" y1="20.3938" x2="46.8882" y2="20.3938" gradientUnits="userSpaceOnUse"><stop stop-color="#5778FF"></stop><stop offset="0.1779" stop-color="#5C7DFF"></stop><stop offset="0.3876" stop-color="#6A8AFF"></stop><stop offset="0.6134" stop-color="#82A0FF"></stop><stop offset="0.849" stop-color="#A3BEFF"></stop><stop offset="1" stop-color="#BCD5FF"></stop></linearGradient><linearGradient id="paint8_linear_1_1891" x1="37.7891" y1="22.2307" x2="50.0783" y2="22.2307" gradientUnits="userSpaceOnUse"><stop stop-color="#5778FF"></stop><stop offset="0.1779" stop-color="#5C7DFF"></stop><stop offset="0.3876" stop-color="#6A8AFF"></stop><stop offset="0.6134" stop-color="#82A0FF"></stop><stop offset="0.849" stop-color="#A3BEFF"></stop><stop offset="1" stop-color="#BCD5FF"></stop></linearGradient><linearGradient id="paint9_linear_1_1891" x1="40.9791" y1="24.0674" x2="53.2683" y2="24.0674" gradientUnits="userSpaceOnUse"><stop stop-color="#5778FF"></stop><stop offset="0.1779" stop-color="#5C7DFF"></stop><stop offset="0.3876" stop-color="#6A8AFF"></stop><stop offset="0.6134" stop-color="#82A0FF"></stop><stop offset="0.849" stop-color="#A3BEFF"></stop><stop offset="1" stop-color="#BCD5FF"></stop></linearGradient><linearGradient id="paint10_linear_1_1891" x1="50.3075" y1="29.4902" x2="62.5966" y2="29.4902" gradientUnits="userSpaceOnUse"><stop stop-color="#5778FF"></stop><stop offset="0.1779" stop-color="#5C7DFF"></stop><stop offset="0.3876" stop-color="#6A8AFF"></stop><stop offset="0.6134" stop-color="#82A0FF"></stop><stop offset="0.849" stop-color="#A3BEFF"></stop><stop offset="1" stop-color="#BCD5FF"></stop></linearGradient><linearGradient id="paint11_linear_1_1891" x1="53.4971" y1="31.3272" x2="65.7865" y2="31.3272" gradientUnits="userSpaceOnUse"><stop stop-color="#5778FF"></stop><stop offset="0.1779" stop-color="#5C7DFF"></stop><stop offset="0.3876" stop-color="#6A8AFF"></stop><stop offset="0.6134" stop-color="#82A0FF"></stop><stop offset="0.849" stop-color="#A3BEFF"></stop><stop offset="1" stop-color="#BCD5FF"></stop></linearGradient><linearGradient id="paint12_linear_1_1891" x1="56.6871" y1="33.1641" x2="68.9763" y2="33.1641" gradientUnits="userSpaceOnUse"><stop stop-color="#5778FF"></stop><stop offset="0.1779" stop-color="#5C7DFF"></stop><stop offset="0.3876" stop-color="#6A8AFF"></stop><stop offset="0.6134" stop-color="#82A0FF"></stop><stop offset="0.849" stop-color="#A3BEFF"></stop><stop offset="1" stop-color="#BCD5FF"></stop></linearGradient><linearGradient id="paint13_linear_1_1891" x1="59.8772" y1="35.001" x2="72.1663" y2="35.001" gradientUnits="userSpaceOnUse"><stop stop-color="#5778FF"></stop><stop offset="0.1779" stop-color="#5C7DFF"></stop><stop offset="0.3876" stop-color="#6A8AFF"></stop><stop offset="0.6134" stop-color="#82A0FF"></stop><stop offset="0.849" stop-color="#A3BEFF"></stop><stop offset="1" stop-color="#BCD5FF"></stop></linearGradient><linearGradient id="paint14_linear_1_1891" x1="69.2062" y1="40.4238" x2="81.4953" y2="40.4238" gradientUnits="userSpaceOnUse"><stop stop-color="#5778FF"></stop><stop offset="0.1779" stop-color="#5C7DFF"></stop><stop offset="0.3876" stop-color="#6A8AFF"></stop><stop offset="0.6134" stop-color="#82A0FF"></stop><stop offset="0.849" stop-color="#A3BEFF"></stop><stop offset="1" stop-color="#BCD5FF"></stop></linearGradient><linearGradient id="paint15_linear_1_1891" x1="72.3961" y1="42.2606" x2="84.6852" y2="42.2606" gradientUnits="userSpaceOnUse"><stop stop-color="#5778FF"></stop><stop offset="0.1779" stop-color="#5C7DFF"></stop><stop offset="0.3876" stop-color="#6A8AFF"></stop><stop offset="0.6134" stop-color="#82A0FF"></stop><stop offset="0.849" stop-color="#A3BEFF"></stop><stop offset="1" stop-color="#BCD5FF"></stop></linearGradient><linearGradient id="paint16_linear_1_1891" x1="66.8234" y1="71.9106" x2="69.9703" y2="71.9106" gradientUnits="userSpaceOnUse"><stop stop-color="#C0D6FF"></stop><stop offset="0.2978" stop-color="#C5DBFF"></stop><stop offset="0.6488" stop-color="#D3E9FF"></stop><stop offset="1" stop-color="#E9FFFF"></stop></linearGradient><linearGradient id="paint17_linear_1_1891" x1="66.4405" y1="72.2314" x2="69.043" y2="72.2314" gradientUnits="userSpaceOnUse"><stop stop-color="#5778FF"></stop><stop offset="0.1779" stop-color="#5C7DFF"></stop><stop offset="0.3876" stop-color="#6A8AFF"></stop><stop offset="0.6134" stop-color="#82A0FF"></stop><stop offset="0.849" stop-color="#A3BEFF"></stop><stop offset="1" stop-color="#BCD5FF"></stop></linearGradient><linearGradient id="paint18_linear_1_1891" x1="2.47489" y1="34.9514" x2="5.62177" y2="34.9514" gradientUnits="userSpaceOnUse"><stop stop-color="#C0D6FF"></stop><stop offset="0.2978" stop-color="#C5DBFF"></stop><stop offset="0.6488" stop-color="#D3E9FF"></stop><stop offset="1" stop-color="#E9FFFF"></stop></linearGradient><linearGradient id="paint19_linear_1_1891" x1="2.09196" y1="35.2721" x2="4.69441" y2="35.2721" gradientUnits="userSpaceOnUse"><stop stop-color="#5778FF"></stop><stop offset="0.1779" stop-color="#5C7DFF"></stop><stop offset="0.3876" stop-color="#6A8AFF"></stop><stop offset="0.6134" stop-color="#82A0FF"></stop><stop offset="0.849" stop-color="#A3BEFF"></stop><stop offset="1" stop-color="#BCD5FF"></stop></linearGradient><linearGradient id="paint20_linear_1_1891" x1="66.8234" y1="197.079" x2="69.9703" y2="197.079" gradientUnits="userSpaceOnUse"><stop stop-color="#C0D6FF"></stop><stop offset="0.2978" stop-color="#C5DBFF"></stop><stop offset="0.6488" stop-color="#D3E9FF"></stop><stop offset="1" stop-color="#E9FFFF"></stop></linearGradient><linearGradient id="paint21_linear_1_1891" x1="66.4401" y1="197.442" x2="69.0425" y2="197.442" gradientUnits="userSpaceOnUse"><stop stop-color="#5778FF"></stop><stop offset="0.1779" stop-color="#5C7DFF"></stop><stop offset="0.3876" stop-color="#6A8AFF"></stop><stop offset="0.6134" stop-color="#82A0FF"></stop><stop offset="0.849" stop-color="#A3BEFF"></stop><stop offset="1" stop-color="#BCD5FF"></stop></linearGradient><linearGradient id="paint22_linear_1_1891" x1="66.8243" y1="197.347" x2="69.9712" y2="197.347" gradientUnits="userSpaceOnUse"><stop stop-color="#C0D6FF"></stop><stop offset="0.2978" stop-color="#C5DBFF"></stop><stop offset="0.6488" stop-color="#D3E9FF"></stop><stop offset="1" stop-color="#E9FFFF"></stop></linearGradient><linearGradient id="paint23_linear_1_1891" x1="66.4404" y1="197.347" x2="69.0428" y2="197.347" gradientUnits="userSpaceOnUse"><stop stop-color="#5778FF"></stop><stop offset="0.1779" stop-color="#5C7DFF"></stop><stop offset="0.3876" stop-color="#6A8AFF"></stop><stop offset="0.6134" stop-color="#82A0FF"></stop><stop offset="0.849" stop-color="#A3BEFF"></stop><stop offset="1" stop-color="#BCD5FF"></stop></linearGradient><linearGradient id="paint24_linear_1_1891" x1="2.47509" y1="160.12" x2="5.62197" y2="160.12" gradientUnits="userSpaceOnUse"><stop stop-color="#C0D6FF"></stop><stop offset="0.2978" stop-color="#C5DBFF"></stop><stop offset="0.6488" stop-color="#D3E9FF"></stop><stop offset="1" stop-color="#E9FFFF"></stop></linearGradient><linearGradient id="paint25_linear_1_1891" x1="2.09218" y1="160.483" x2="4.69462" y2="160.483" gradientUnits="userSpaceOnUse"><stop stop-color="#5778FF"></stop><stop offset="0.1779" stop-color="#5C7DFF"></stop><stop offset="0.3876" stop-color="#6A8AFF"></stop><stop offset="0.6134" stop-color="#82A0FF"></stop><stop offset="0.849" stop-color="#A3BEFF"></stop><stop offset="1" stop-color="#BCD5FF"></stop></linearGradient><linearGradient id="paint26_linear_1_1891" x1="2.47598" y1="160.388" x2="5.62287" y2="160.388" gradientUnits="userSpaceOnUse"><stop stop-color="#C0D6FF"></stop><stop offset="0.2978" stop-color="#C5DBFF"></stop><stop offset="0.6488" stop-color="#D3E9FF"></stop><stop offset="1" stop-color="#E9FFFF"></stop></linearGradient><linearGradient id="paint27_linear_1_1891" x1="2.09206" y1="160.388" x2="4.69451" y2="160.388" gradientUnits="userSpaceOnUse"><stop stop-color="#5778FF"></stop><stop offset="0.1779" stop-color="#5C7DFF"></stop><stop offset="0.3876" stop-color="#6A8AFF"></stop><stop offset="0.6134" stop-color="#82A0FF"></stop><stop offset="0.849" stop-color="#A3BEFF"></stop><stop offset="1" stop-color="#BCD5FF"></stop></linearGradient></defs></svg>