<svg xmlns="http://www.w3.org/2000/svg" width="143" height="222" viewBox="0 0 143 222" fill="none"><g opacity="0.67"><path opacity="0.67" d="M82.3409 215.63L9.33066 173.46C8.59373 173.029 8.6836 172.291 9.54635 171.806L53.4388 146.45C54.2835 145.964 55.5777 145.91 56.3146 146.324L129.325 188.494C130.062 188.925 129.972 189.663 129.127 190.148L85.2347 215.504C84.3719 216.008 83.0778 216.062 82.3409 215.63Z" fill="#242993"></path></g><path d="M85.5582 221.241C84.9291 221.241 84.336 221.115 83.8687 220.845L0.846927 172.903C0.307708 172.597 0.0201263 172.129 0.0201263 171.626C0.0201263 171.05 0.415554 170.493 1.08059 170.097L50.9943 141.253C52.1266 140.605 53.7982 140.533 54.8048 141.109L137.826 189.069C138.366 189.375 138.653 189.843 138.653 190.346C138.653 190.921 138.258 191.479 137.593 191.875L87.6791 220.701C87.05 221.061 86.2951 221.241 85.5582 221.241ZM84.3899 219.928C85.0729 220.323 86.3311 220.252 87.1399 219.784L137.036 190.957C137.431 190.724 137.575 190.49 137.575 190.346C137.575 190.184 137.395 190.058 137.269 189.986L54.2476 142.026C53.5645 141.63 52.3064 141.702 51.5155 142.17L1.60184 170.996C1.20641 171.23 1.06262 171.464 1.06262 171.608C1.06262 171.77 1.24236 171.896 1.36817 171.968L84.3899 219.928Z" fill="url(#paint0_linear_1_1757)"></path><path d="M82.8084 62.8654H90.8428C89.6565 60.168 88.9196 58.4956 88.9196 58.4956L8.8456 27.2234V161.016C8.8456 161.034 8.8456 161.052 8.8456 161.052V161.178C8.88154 161.412 9.02534 161.645 9.33089 161.825L82.3411 203.995C82.4849 204.067 82.6287 204.139 82.8084 204.175V62.8654Z" fill="#242993"></path><path d="M129.81 43.7136L83.743 70.0226V150.55L83.707 150.532V204.301C83.725 204.301 83.725 204.301 83.743 204.301C84.2642 204.283 84.8034 204.139 85.2169 203.905L129.109 178.549C129.559 178.279 129.792 177.956 129.81 177.632V43.7136Z" fill="url(#paint1_linear_1_1757)"></path><path d="M80.4358 29.7769V148.644V183.315V202.916L82.341 204.013C82.7005 204.229 83.2038 204.319 83.707 204.301C84.2463 204.283 84.2642 203.977 84.6956 203.725L85.091 203.563L84.6597 183.027V150.838L85.6123 29.7769H80.4358Z" fill="#3947BA"></path><path d="M85.6302 183.297V151.629V68.9436L83.743 70.0226V150.55L83.707 150.532V204.301C83.725 204.301 83.725 204.301 83.743 204.301C83.8508 204.301 83.9587 204.283 84.0665 204.265C84.0845 204.265 84.1025 204.265 84.1204 204.265C84.3721 204.229 84.6057 204.157 84.8214 204.085C84.8394 204.085 84.8574 204.067 84.8753 204.067C85.0012 204.013 85.109 203.959 85.2169 203.905L85.6302 203.671V183.297Z" fill="#CAE7FF"></path><g opacity="0.51"><path opacity="0.51" d="M12.4583 34.5784L76.805 71.749V196.964L12.4583 159.793V34.5784Z" fill="#4553C7"></path></g><g opacity="0.51"><path opacity="0.51" d="M8.8456 141.72L80.4359 93.76V69.0515L8.8456 27.2234V141.72Z" fill="#4553C7"></path></g><path d="M82.3409 70.1485L9.33066 27.9787C8.59373 27.5471 8.6836 26.8098 9.54635 26.3243L53.4388 0.968427C54.2835 0.48289 55.5777 0.428942 56.3146 0.842548L129.325 43.0124C130.062 43.444 129.972 44.1812 129.127 44.6668L85.2347 70.0226C84.3719 70.5261 83.0778 70.5801 82.3409 70.1485Z" fill="#BCD5FF"></path><mask id="mask0_1_1757" style="mask-type:alpha" maskUnits="userSpaceOnUse" x="8" y="2" width="76" height="64"><path d="M55.5776 2.73071H50.3652L9.54632 26.3063C8.70154 26.7918 8.5937 27.5471 9.33063 27.9607L11.3078 29.1116L74.7379 65.7607L83.0778 65.6708L55.5776 2.73071Z" fill="url(#paint2_linear_1_1757)"></path></mask><g mask="url(#mask0_1_1757)"><path opacity="0.78" d="M55.5776 2.73071H50.3652L9.54632 26.3063C8.70154 26.7918 8.5937 27.5471 9.33063 27.9607L11.3078 29.1116L74.7379 65.7607L83.0778 65.6708L55.5776 2.73071Z" fill="url(#paint3_linear_1_1757)"></path><path d="M55.5774 5.32031L20.5102 25.587L17.1131 24.9576V27.5471L83.0775 65.6528L116.473 42.9405L55.5774 5.32031Z" fill="url(#paint4_linear_1_1757)"></path><path d="M121.56 40.8364V43.426L83.0777 65.6528V63.0632L121.56 40.8364Z" fill="url(#paint5_linear_1_1757)"></path><path d="M83.0775 63.0632L17.1131 24.9575L55.5774 2.73071L121.56 40.8364L83.0775 63.0632Z" fill="url(#paint6_linear_1_1757)"></path><path d="M41.7377 22.1882L40.6773 21.5768L40.7672 21.0733L50.509 15.4087L51.8751 16.0561L51.6234 16.4697L41.7377 22.1882Z" fill="#3F38FC"></path><path d="M50.5631 15.8582L51.6235 16.4696L52.2886 16.074L50.5631 15.085L39.9944 21.1811L40.6774 21.5768L50.5631 15.8582Z" fill="url(#paint7_linear_1_1757)"></path><path d="M44.9194 24.0225L43.859 23.411L43.9488 22.9255L53.7087 17.2429L55.0567 17.8903L54.8051 18.3039L44.9194 24.0225Z" fill="#3F38FC"></path><path d="M53.7625 17.6925L54.805 18.3039L55.488 17.9083L53.7625 16.9192L43.1939 23.0154L43.8769 23.411L53.7625 17.6925Z" fill="url(#paint8_linear_1_1757)"></path><path d="M48.1006 25.8567L47.0581 25.2453L47.148 24.7597L56.8899 19.0771L58.2559 19.7245L57.9863 20.1381L48.1006 25.8567Z" fill="#3F38FC"></path><path d="M56.9439 19.5447L57.9864 20.1381L58.6694 19.7605L56.9439 18.7534L46.3753 24.8496L47.0583 25.2452L56.9439 19.5447Z" fill="url(#paint9_linear_1_1757)"></path><path d="M51.3006 27.6909L50.2402 27.0795L50.33 26.594L60.0899 20.9114L61.4379 21.5588L61.1863 21.9724L51.3006 27.6909Z" fill="#3F38FC"></path><path d="M60.1433 21.3789L61.1858 21.9723L61.8688 21.5947L60.1433 20.5876L49.5746 26.7018L50.2577 27.0795L60.1433 21.3789Z" fill="url(#paint10_linear_1_1757)"></path><path d="M60.6292 33.1218L59.5687 32.5104L59.6586 32.0069L69.4185 26.3423L70.7665 26.9897L70.5149 27.4033L60.6292 33.1218Z" fill="#3F38FC"></path><path d="M69.4719 26.7918L70.5144 27.4032L71.1974 27.0076L69.4719 26.0186L58.9032 32.1147L59.5862 32.5104L69.4719 26.7918Z" fill="url(#paint11_linear_1_1757)"></path><path d="M63.8101 34.9561L62.7676 34.3446L62.8575 33.8411L72.5993 28.1765L73.9474 28.8239L73.6957 29.2375L63.8101 34.9561Z" fill="#3F38FC"></path><path d="M72.6535 28.626L73.696 29.2375L74.379 28.8418L72.6535 27.8528L62.0848 33.949L62.7678 34.3446L72.6535 28.626Z" fill="url(#paint12_linear_1_1757)"></path><path d="M67.0101 36.7903L65.9496 36.1789L66.0395 35.6933L75.7994 30.0107L77.1474 30.6581L76.8958 31.0717L67.0101 36.7903Z" fill="#3F38FC"></path><path d="M75.8529 30.4783L76.8954 31.0717L77.5784 30.694L75.8529 29.687L65.2842 35.7832L65.9672 36.1788L75.8529 30.4783Z" fill="url(#paint13_linear_1_1757)"></path><path d="M70.1908 38.6245L69.1483 38.0131L69.2382 37.5276L78.9801 31.845L80.3281 32.4923L80.0765 32.906L70.1908 38.6245Z" fill="#3F38FC"></path><path d="M79.0343 32.3125L80.0768 32.9059L80.7598 32.5283L79.0343 31.5212L68.4656 37.6174L69.1486 38.013L79.0343 32.3125Z" fill="url(#paint14_linear_1_1757)"></path><path d="M79.5188 44.0554L78.4763 43.444L78.5661 42.9405L88.308 37.2759L89.6561 37.9233L89.4044 38.3369L79.5188 44.0554Z" fill="#3F38FC"></path><path d="M88.3623 37.7254L89.4047 38.3368L90.0878 37.9412L88.3623 36.9521L77.7936 43.0483L78.4766 43.444L88.3623 37.7254Z" fill="url(#paint15_linear_1_1757)"></path><path d="M82.7187 45.8897L81.6582 45.2782L81.7481 44.7747L91.5079 39.1101L92.856 39.7575L92.6043 40.1711L82.7187 45.8897Z" fill="#3F38FC"></path><path d="M91.5435 39.5596L92.604 40.1711L93.287 39.7754L91.5435 38.7864L80.9928 44.8826L81.6579 45.2782L91.5435 39.5596Z" fill="url(#paint16_linear_1_1757)"></path></g><path d="M122.98 134.078L90.555 152.798V108.47L122.98 89.7498V134.078Z" fill="#BCD5FF"></path><path d="M121.165 90.7928V133.232L90.555 150.927V152.798L122.98 134.078V89.7498L121.165 90.7928Z" fill="url(#paint17_linear_1_1757)"></path><path d="M142.5 145.515L140.756 146.414L123.339 136.343C123.052 136.182 122.53 136.2 122.207 136.397L92.1545 153.751C91.8669 153.589 90.5548 152.96 90.5548 152.96L91.1839 154.614C91.2018 154.686 91.2737 154.758 91.3636 154.812L109.715 165.404C110.003 165.566 110.524 165.548 110.847 165.35L141.601 147.583C141.745 147.511 141.817 147.403 141.852 147.313L142.5 145.515Z" fill="url(#paint18_linear_1_1757)"></path><path d="M142.23 145.802L110.722 164.001C110.381 164.199 109.859 164.217 109.554 164.055L90.753 153.193C90.4474 153.014 90.4833 152.726 90.8428 152.528L122.351 134.329C122.693 134.132 123.214 134.114 123.519 134.275L142.32 145.137C142.626 145.299 142.572 145.605 142.23 145.802Z" fill="url(#paint19_linear_1_1757)"></path><path d="M101.214 160.063V159.721C101.214 159.685 101.231 159.667 101.249 159.685L102.472 160.386C102.49 160.404 102.508 160.44 102.508 160.476V160.818C102.508 160.854 102.49 160.872 102.472 160.854L101.249 160.153C101.249 160.135 101.214 160.099 101.214 160.063Z" fill="#2859CB"></path><path d="M103.047 161.124V160.782C103.047 160.746 103.065 160.728 103.083 160.746L104.305 161.448C104.323 161.465 104.341 161.501 104.341 161.537V161.879C104.341 161.915 104.323 161.933 104.305 161.915L103.083 161.214C103.065 161.196 103.047 161.16 103.047 161.124Z" fill="#2859CB"></path><path d="M95.6594 152.168L121.847 137.045C122.027 136.937 122.243 136.937 122.405 137.045L131.733 142.44C131.859 142.512 131.859 142.709 131.733 142.781L105.563 157.905C105.383 158.013 105.168 158.013 105.006 157.905L95.6774 152.51C95.5336 152.438 95.5336 152.258 95.6594 152.168Z" fill="#ADC8FF"></path><path d="M95.6597 152.528L95.7496 152.582L121.848 137.512C122.027 137.404 122.243 137.404 122.405 137.512L131.644 142.853L131.733 142.799C131.859 142.727 131.859 142.53 131.733 142.458L122.405 137.063C122.225 136.955 122.01 136.955 121.848 137.063L95.6597 152.186C95.5339 152.258 95.5339 152.438 95.6597 152.528Z" fill="#91AFFF"></path><path d="M123.106 138.411L100.369 151.557L99.3627 150.963L122.1 137.836L123.106 138.411Z" fill="#242993"></path><path d="M125.586 139.85L104.251 152.168L103.245 151.593L124.58 139.257L125.586 139.85Z" fill="#242993"></path><path d="M127.204 140.785L102.094 155.297L101.07 154.704L126.197 140.192L127.204 140.785Z" fill="#242993"></path><path d="M128.822 141.72L103.694 156.214L102.688 155.639L127.815 141.127L128.822 141.72Z" fill="#242993"></path><path d="M130.44 142.637L105.312 157.149L104.306 156.574L129.433 142.062L130.44 142.637Z" fill="#242993"></path><path d="M98.985 152.348L97.9785 152.924L96.9719 152.348L97.9785 151.755L98.985 152.348Z" fill="#242993"></path><path d="M102.562 153.157L100.459 154.362L99.4521 153.787L101.555 152.564L102.562 153.157Z" fill="#242993"></path><path d="M122.854 155.837L129.918 151.755C130.188 151.593 130.188 151.341 129.918 151.179L125.083 148.392C124.813 148.23 124.364 148.23 124.076 148.392L117.013 152.474C116.743 152.636 116.743 152.888 117.013 153.049L121.848 155.837C122.135 155.999 122.585 155.999 122.854 155.837Z" fill="url(#paint20_linear_1_1757)"></path><path d="M117.031 152.708L124.095 148.626C124.364 148.464 124.814 148.464 125.101 148.626L129.936 151.413C130.026 151.467 130.08 151.521 130.116 151.575C130.188 151.431 130.134 151.287 129.936 151.161L125.101 148.374C124.832 148.212 124.382 148.212 124.095 148.374L117.031 152.456C116.833 152.564 116.779 152.726 116.851 152.87C116.887 152.816 116.941 152.762 117.031 152.708Z" fill="#91AFFF"></path><path d="M121.165 90.7927L90.555 108.47V150.927L121.165 133.232V90.7927Z" fill="#242993"></path><path d="M121.165 90.7927L90.555 108.47V150.927L121.165 133.232V90.7927Z" fill="#242993"></path><g opacity="0.51"><path opacity="0.51" d="M119.457 134.222V93.7241L90.555 110.412V150.928L119.457 134.222Z" fill="#4553C7"></path></g><g opacity="0.11"><g opacity="0.11"><path opacity="0.11" d="M122.423 134.257L91.0585 152.366C90.717 152.564 90.1958 152.582 89.8902 152.42L71.1793 141.612C70.8738 141.433 70.9277 141.145 71.2692 140.947L102.634 122.838C102.975 122.64 103.497 122.622 103.802 122.784L122.513 133.592C122.819 133.754 122.783 134.06 122.423 134.257Z" fill="url(#paint21_linear_1_1757)"></path><path opacity="0.11" d="M90.987 137.512L98.0148 133.448C98.2844 133.286 98.2844 133.035 98.0148 132.873L93.2157 130.103C92.9461 129.941 92.4968 129.941 92.2272 130.103L85.1993 134.167C84.9297 134.329 84.9297 134.581 85.1993 134.743L89.9984 137.512C90.25 137.674 90.6994 137.674 90.987 137.512Z" fill="url(#paint22_linear_1_1757)"></path><path opacity="0.11" d="M85.181 134.383L92.2089 130.319C92.4785 130.157 92.9278 130.157 93.1974 130.319L97.9965 133.089C98.0864 133.142 98.1403 133.196 98.1762 133.25C98.2481 133.107 98.1942 132.963 97.9965 132.837L93.1974 130.067C92.9278 129.906 92.4785 129.906 92.2089 130.067L85.181 134.132C84.9833 134.239 84.9294 134.401 85.0013 134.545C85.0372 134.491 85.0912 134.437 85.181 134.383Z" fill="#91AFFF"></path><g opacity="0.11"><path opacity="0.11" d="M82.0898 143.842L108.152 128.791C108.332 128.683 108.547 128.683 108.709 128.791L117.984 134.168C118.11 134.239 118.11 134.437 117.984 134.509L91.9395 149.561C91.7598 149.669 91.5441 149.669 91.3823 149.561L82.0898 144.202C81.964 144.112 81.964 143.932 82.0898 143.842Z" fill="#ADC8FF"></path><path opacity="0.11" d="M82.09 144.202L82.1798 144.256L108.152 129.258C108.332 129.15 108.548 129.15 108.709 129.258L117.894 134.581L117.984 134.527C118.11 134.455 118.11 134.257 117.984 134.185L108.709 128.808C108.53 128.701 108.314 128.701 108.152 128.808L82.09 143.86C81.9642 143.932 81.9642 144.112 82.09 144.202Z" fill="#91AFFF"></path><g opacity="0.11"><path opacity="0.11" d="M115.557 133.808L92.8564 146.917L93.7551 147.439L116.456 134.329L115.557 133.808Z" fill="#242993"></path><path opacity="0.11" d="M113.167 132.423L91.5981 144.885L92.4968 145.407L114.066 132.945L113.167 132.423Z" fill="#242993"></path><path opacity="0.11" d="M89.9805 145.82L87.9674 146.971L88.8661 147.493L90.8792 146.342L89.9805 145.82Z" fill="#242993"></path><path opacity="0.11" d="M91.7597 147.547L90.3578 148.356L91.2565 148.877L92.6584 148.068L91.7597 147.547Z" fill="#242993"></path><path opacity="0.11" d="M111.675 131.56L86.4756 146.108L87.3743 146.63L112.574 132.082L111.675 131.56Z" fill="#242993"></path><path opacity="0.11" d="M110.165 130.697L84.9657 145.245L85.8644 145.766L111.064 131.2L110.165 130.697Z" fill="#242993"></path><path opacity="0.11" d="M108.673 129.816L83.4736 144.382L84.3723 144.903L109.572 130.337L108.673 129.816Z" fill="#242993"></path></g></g></g></g><path d="M98.9128 113.739L97.0794 114.8V113.577L98.9128 112.516V113.739Z" fill="#42FFFF"></path><path d="M98.9128 122.047L97.0794 123.09V115.915L98.9128 114.854V122.047Z" fill="#42FFFF"></path><path d="M98.9128 126.003L97.0794 127.064V124.223L98.9128 123.162V126.003Z" fill="#42FFFF"></path><path d="M98.9128 130.121L97.0794 131.182V128.323L98.9128 127.28V130.121Z" fill="#42FFFF"></path><path d="M101.627 116.131L99.8116 117.192V114.332L101.627 113.289V116.131Z" fill="#42FFFF"></path><path d="M101.627 121.58L99.8116 122.641V118.451L101.627 117.39V121.58Z" fill="#42FFFF"></path><path d="M101.627 126.597L99.8116 127.658V124.061L101.627 123V126.597Z" fill="#42FFFF"></path><path d="M98.9128 134.24L97.0794 135.301V132.441L98.9128 131.38V134.24Z" fill="#42FFFF"></path><path d="M101.627 112.157L99.8116 113.218V111.995L101.627 110.934V112.157Z" fill="#42FFFF"></path><path d="M100.279 137.44L97.0795 139.293V138.088L100.279 136.254V137.44Z" fill="#42FFFF"></path><path d="M78.5672 72.2166C78.5672 71.3894 77.992 70.3824 77.2731 69.9688C76.9136 69.753 76.5901 69.735 76.3564 69.8789L75.4397 70.4183L76.0149 70.4363C75.9969 70.5262 75.9969 70.6161 75.9969 70.724C75.9969 71.5513 76.5721 72.5583 77.291 72.9719C77.3809 73.0258 77.4708 73.0618 77.5607 73.0978L77.291 73.6013L78.1897 73.0798C78.4234 72.9179 78.5672 72.6302 78.5672 72.2166Z" fill="url(#paint23_linear_1_1757)"></path><path d="M77.6322 72.756C77.6322 73.5832 77.057 73.9249 76.3381 73.5113C75.6191 73.0977 75.0439 72.0906 75.0439 71.2634C75.0439 70.4362 75.6191 70.0945 76.3381 70.5081C77.057 70.9217 77.6322 71.9288 77.6322 72.756Z" fill="url(#paint24_linear_1_1757)"></path><path d="M77.0749 72.4325C77.0749 72.9181 76.7334 73.0979 76.32 72.8641C75.9066 72.6303 75.565 72.0369 75.565 71.5694C75.565 71.1018 75.9066 70.904 76.32 71.1378C76.7513 71.3715 77.0749 71.965 77.0749 72.4325Z" fill="#3F38FC"></path><path d="M14.2196 35.2437C14.2196 34.4165 13.6445 33.4095 12.9255 32.9959C12.566 32.7801 12.2425 32.7621 12.0088 32.906L11.0922 33.4454L11.6673 33.4634C11.6494 33.5533 11.6494 33.6432 11.6494 33.7511C11.6494 34.5784 12.2245 35.5854 12.9435 35.999C13.0334 36.0529 13.1232 36.0889 13.2131 36.1249L12.9435 36.6284L13.8422 36.1069C14.0758 35.963 14.2196 35.6753 14.2196 35.2437Z" fill="url(#paint25_linear_1_1757)"></path><path d="M13.2846 35.8012C13.2846 36.6284 12.7095 36.97 11.9905 36.5564C11.2715 36.1428 10.6964 35.1358 10.6964 34.3086C10.6964 33.4814 11.2715 33.1397 11.9905 33.5533C12.7095 33.9489 13.2846 34.956 13.2846 35.8012Z" fill="url(#paint26_linear_1_1757)"></path><path d="M12.7273 35.4775C12.7273 35.963 12.3858 36.1429 11.9724 35.9091C11.559 35.6753 11.2175 35.0819 11.2175 34.6143C11.2175 34.1288 11.559 33.949 11.9724 34.1827C12.4038 34.4165 12.7273 34.992 12.7273 35.4775Z" fill="#3F38FC"></path><path d="M78.5663 197.377C78.5663 196.55 77.9911 195.543 77.2722 195.129C76.9127 194.914 76.5891 194.896 76.3555 195.04L75.4388 195.579C75.6725 195.453 75.996 195.471 76.3555 195.669C77.0744 196.082 77.6496 197.09 77.6496 197.917C77.6496 198.312 77.5058 198.6 77.2901 198.744L78.1888 198.222C78.4225 198.097 78.5663 197.791 78.5663 197.377Z" fill="url(#paint27_linear_1_1757)"></path><path d="M77.2543 198.133C77.1644 198.079 77.0746 198.025 76.9847 197.953C76.8589 198.168 76.6072 198.204 76.3196 198.043C75.9062 197.809 75.5647 197.215 75.5647 196.748C75.5647 196.406 75.7265 196.226 75.9602 196.226C75.9422 196.118 75.9242 196.011 75.9242 195.903C75.9242 195.795 75.9242 195.705 75.9422 195.615L75.367 195.597C75.1334 195.741 74.9896 196.029 74.9896 196.442C74.9896 197.269 75.5647 198.276 76.2837 198.69C76.6612 198.906 76.9847 198.906 77.2363 198.762L77.5059 198.276C77.452 198.222 77.3621 198.186 77.2543 198.133Z" fill="url(#paint28_linear_1_1757)"></path><path d="M77.6317 197.917C77.6317 197.089 77.0565 196.082 76.3375 195.669C75.978 195.453 75.6545 195.435 75.4208 195.579L75.996 195.597C75.978 195.687 75.978 195.777 75.978 195.885C75.978 195.993 75.996 196.1 76.014 196.208C76.1218 196.208 76.2297 196.226 76.3555 196.298C76.7689 196.532 77.1104 197.125 77.1104 197.593C77.1104 197.737 77.0745 197.845 77.0205 197.935C77.1104 198.007 77.2003 198.061 77.2901 198.115C77.38 198.168 77.4699 198.204 77.5598 198.24L77.2901 198.726C77.5058 198.6 77.6317 198.312 77.6317 197.917Z" fill="url(#paint29_linear_1_1757)"></path><path d="M77.6317 197.917C77.6317 197.089 77.0565 196.082 76.3375 195.669C75.978 195.453 75.6545 195.435 75.4208 195.579L75.996 195.597C75.978 195.687 75.978 195.777 75.978 195.885C75.978 195.993 75.996 196.1 76.014 196.208C76.1218 196.208 76.2297 196.226 76.3555 196.298C76.7689 196.532 77.1104 197.125 77.1104 197.593C77.1104 197.737 77.0745 197.845 77.0205 197.935C77.1104 198.007 77.2003 198.061 77.2901 198.115C77.38 198.168 77.4699 198.204 77.5598 198.24L77.2901 198.726C77.5058 198.6 77.6317 198.312 77.6317 197.917Z" fill="url(#paint30_linear_1_1757)"></path><path d="M75.5826 196.73C75.5826 197.215 75.9241 197.791 76.3375 198.025C76.625 198.187 76.8767 198.151 77.0025 197.935C76.4992 197.521 76.1038 196.838 75.996 196.19C75.7443 196.208 75.5826 196.406 75.5826 196.73Z" fill="#3F38FC"></path><path d="M77.0028 197.953C77.0567 197.863 77.0927 197.755 77.0927 197.611C77.0927 197.126 76.7512 196.55 76.3378 196.316C76.212 196.244 76.1041 196.208 75.9963 196.226C76.1041 196.856 76.4996 197.539 77.0028 197.953Z" fill="#3F38FC"></path><path d="M12.9073 158.157C12.5478 157.941 12.2243 157.923 11.9906 158.067L11.0739 158.606C11.3076 158.48 11.6311 158.498 11.9906 158.696C12.7096 159.11 13.2847 160.117 13.2847 160.944C13.2847 161.34 13.1409 161.627 12.9252 161.771L13.8239 161.25C14.0576 161.124 14.2014 160.818 14.2014 160.404C14.2194 159.595 13.6262 158.588 12.9073 158.157Z" fill="url(#paint31_linear_1_1757)"></path><path d="M12.9074 161.178C12.8175 161.124 12.7276 161.07 12.6378 160.998C12.512 161.214 12.2603 161.25 11.9727 161.088C11.5593 160.854 11.2178 160.261 11.2178 159.793C11.2178 159.451 11.3796 159.272 11.6312 159.272C11.6133 159.164 11.5953 159.056 11.5953 158.948C11.5953 158.84 11.6133 158.75 11.6133 158.66L11.0381 158.642C10.8044 158.786 10.6606 159.074 10.6606 159.487C10.6606 160.315 11.2358 161.322 11.9548 161.735C12.3322 161.951 12.6557 161.951 12.9074 161.807L13.177 161.322C13.1051 161.268 13.0152 161.232 12.9074 161.178Z" fill="url(#paint32_linear_1_1757)"></path><path d="M13.2847 160.962C13.2847 160.135 12.7096 159.128 11.9906 158.714C11.6311 158.516 11.3076 158.48 11.0739 158.624L11.6491 158.642C11.6311 158.732 11.6311 158.822 11.6311 158.93C11.6311 159.038 11.6491 159.146 11.6671 159.254C11.7749 159.254 11.8828 159.272 12.0086 159.344C12.422 159.577 12.7635 160.171 12.7635 160.638C12.7635 160.782 12.7275 160.89 12.6736 160.98C12.7635 161.052 12.8534 161.106 12.9432 161.16C13.0331 161.214 13.123 161.25 13.2128 161.286L12.9252 161.789C13.1589 161.645 13.2847 161.358 13.2847 160.962Z" fill="url(#paint33_linear_1_1757)"></path><path d="M13.2847 160.962C13.2847 160.135 12.7096 159.128 11.9906 158.714C11.6311 158.516 11.3076 158.48 11.0739 158.624L11.6491 158.642C11.6311 158.732 11.6311 158.822 11.6311 158.93C11.6311 159.038 11.6491 159.146 11.6671 159.254C11.7749 159.254 11.8828 159.272 12.0086 159.344C12.422 159.577 12.7635 160.171 12.7635 160.638C12.7635 160.782 12.7275 160.89 12.6736 160.98C12.7635 161.052 12.8534 161.106 12.9432 161.16C13.0331 161.214 13.123 161.25 13.2128 161.286L12.9252 161.789C13.1589 161.645 13.2847 161.358 13.2847 160.962Z" fill="url(#paint34_linear_1_1757)"></path><path d="M11.2356 159.775C11.2356 160.261 11.5771 160.836 11.9905 161.07C12.2781 161.232 12.5298 161.196 12.6556 160.98C12.1523 160.566 11.7569 159.883 11.649 159.236C11.3974 159.254 11.2356 159.451 11.2356 159.775Z" fill="#3F38FC"></path><path d="M12.6555 160.98C12.7094 160.89 12.7453 160.782 12.7453 160.638C12.7453 160.153 12.4038 159.577 11.9904 159.344C11.8646 159.272 11.7568 159.236 11.6489 159.254C11.7568 159.883 12.1522 160.584 12.6555 160.98Z" fill="#3F38FC"></path><defs><linearGradient id="paint0_linear_1_1757" x1="0.0154531" y1="180.984" x2="138.642" y2="180.984" gradientUnits="userSpaceOnUse"><stop stop-color="#5778FF"></stop><stop offset="0.0726" stop-color="#5489FF"></stop><stop offset="0.2791" stop-color="#4EB3FF"></stop><stop offset="0.4801" stop-color="#49D4FF"></stop><stop offset="0.6715" stop-color="#45ECFF"></stop><stop offset="0.8493" stop-color="#43FAFF"></stop><stop offset="1" stop-color="#42FFFF"></stop></linearGradient><linearGradient id="paint1_linear_1_1757" x1="106.765" y1="204.292" x2="106.765" y2="43.7176" gradientUnits="userSpaceOnUse"><stop stop-color="#C0D6FF"></stop><stop offset="0.2978" stop-color="#C5DBFF"></stop><stop offset="0.6488" stop-color="#D3E9FF"></stop><stop offset="1" stop-color="#E9FFFF"></stop></linearGradient><linearGradient id="paint2_linear_1_1757" x1="20.3814" y1="34.2421" x2="94.6133" y2="34.2421" gradientUnits="userSpaceOnUse"><stop></stop><stop offset="0.0469" stop-color="#2F2F2F"></stop><stop offset="0.0981" stop-color="#5A5A5A"></stop><stop offset="0.155" stop-color="#828282"></stop><stop offset="0.2161" stop-color="#A4A4A4"></stop><stop offset="0.2828" stop-color="#C0C0C0"></stop><stop offset="0.3571" stop-color="#D7D7D7"></stop><stop offset="0.442" stop-color="#E9E9E9"></stop><stop offset="0.5443" stop-color="#F6F6F6"></stop><stop offset="0.6813" stop-color="#FDFDFD"></stop><stop offset="1" stop-color="white"></stop></linearGradient><linearGradient id="paint3_linear_1_1757" x1="20.3814" y1="34.2421" x2="94.6133" y2="34.2421" gradientUnits="userSpaceOnUse"><stop stop-color="#E9FFFF"></stop><stop offset="0.0374" stop-color="#D3EBFF"></stop><stop offset="0.1056" stop-color="#B2CCFF"></stop><stop offset="0.1817" stop-color="#96B2FF"></stop><stop offset="0.2663" stop-color="#7F9DFF"></stop><stop offset="0.3632" stop-color="#6D8CFF"></stop><stop offset="0.4798" stop-color="#6081FF"></stop><stop offset="0.6363" stop-color="#597AFF"></stop><stop offset="1" stop-color="#5778FF"></stop></linearGradient><linearGradient id="paint4_linear_1_1757" x1="17.1056" y1="35.4945" x2="116.472" y2="35.4945" gradientUnits="userSpaceOnUse"><stop stop-color="#5778FF"></stop><stop offset="0.1779" stop-color="#5C7DFF"></stop><stop offset="0.3876" stop-color="#6A8AFF"></stop><stop offset="0.6134" stop-color="#82A0FF"></stop><stop offset="0.849" stop-color="#A3BEFF"></stop><stop offset="1" stop-color="#BCD5FF"></stop></linearGradient><linearGradient id="paint5_linear_1_1757" x1="83.0721" y1="53.2477" x2="121.551" y2="53.2477" gradientUnits="userSpaceOnUse"><stop stop-color="#C0D6FF"></stop><stop offset="0.2978" stop-color="#C5DBFF"></stop><stop offset="0.6488" stop-color="#D3E9FF"></stop><stop offset="1" stop-color="#E9FFFF"></stop></linearGradient><linearGradient id="paint6_linear_1_1757" x1="17.1056" y1="32.8964" x2="121.551" y2="32.8964" gradientUnits="userSpaceOnUse"><stop stop-color="#C0D6FF"></stop><stop offset="0.2978" stop-color="#C5DBFF"></stop><stop offset="0.6488" stop-color="#D3E9FF"></stop><stop offset="1" stop-color="#E9FFFF"></stop></linearGradient><linearGradient id="paint7_linear_1_1757" x1="40.0026" y1="18.3273" x2="52.2918" y2="18.3273" gradientUnits="userSpaceOnUse"><stop stop-color="#5778FF"></stop><stop offset="0.1779" stop-color="#5C7DFF"></stop><stop offset="0.3876" stop-color="#6A8AFF"></stop><stop offset="0.6134" stop-color="#82A0FF"></stop><stop offset="0.849" stop-color="#A3BEFF"></stop><stop offset="1" stop-color="#BCD5FF"></stop></linearGradient><linearGradient id="paint8_linear_1_1757" x1="43.1926" y1="20.164" x2="55.4819" y2="20.164" gradientUnits="userSpaceOnUse"><stop stop-color="#5778FF"></stop><stop offset="0.1779" stop-color="#5C7DFF"></stop><stop offset="0.3876" stop-color="#6A8AFF"></stop><stop offset="0.6134" stop-color="#82A0FF"></stop><stop offset="0.849" stop-color="#A3BEFF"></stop><stop offset="1" stop-color="#BCD5FF"></stop></linearGradient><linearGradient id="paint9_linear_1_1757" x1="46.3826" y1="22.0009" x2="58.6718" y2="22.0009" gradientUnits="userSpaceOnUse"><stop stop-color="#5778FF"></stop><stop offset="0.1779" stop-color="#5C7DFF"></stop><stop offset="0.3876" stop-color="#6A8AFF"></stop><stop offset="0.6134" stop-color="#82A0FF"></stop><stop offset="0.849" stop-color="#A3BEFF"></stop><stop offset="1" stop-color="#BCD5FF"></stop></linearGradient><linearGradient id="paint10_linear_1_1757" x1="49.5727" y1="23.8379" x2="61.8618" y2="23.8379" gradientUnits="userSpaceOnUse"><stop stop-color="#5778FF"></stop><stop offset="0.1779" stop-color="#5C7DFF"></stop><stop offset="0.3876" stop-color="#6A8AFF"></stop><stop offset="0.6134" stop-color="#82A0FF"></stop><stop offset="0.849" stop-color="#A3BEFF"></stop><stop offset="1" stop-color="#BCD5FF"></stop></linearGradient><linearGradient id="paint11_linear_1_1757" x1="58.9014" y1="29.2607" x2="71.1906" y2="29.2607" gradientUnits="userSpaceOnUse"><stop stop-color="#5778FF"></stop><stop offset="0.1779" stop-color="#5C7DFF"></stop><stop offset="0.3876" stop-color="#6A8AFF"></stop><stop offset="0.6134" stop-color="#82A0FF"></stop><stop offset="0.849" stop-color="#A3BEFF"></stop><stop offset="1" stop-color="#BCD5FF"></stop></linearGradient><linearGradient id="paint12_linear_1_1757" x1="62.0917" y1="31.0974" x2="74.3808" y2="31.0974" gradientUnits="userSpaceOnUse"><stop stop-color="#5778FF"></stop><stop offset="0.1779" stop-color="#5C7DFF"></stop><stop offset="0.3876" stop-color="#6A8AFF"></stop><stop offset="0.6134" stop-color="#82A0FF"></stop><stop offset="0.849" stop-color="#A3BEFF"></stop><stop offset="1" stop-color="#BCD5FF"></stop></linearGradient><linearGradient id="paint13_linear_1_1757" x1="65.2815" y1="32.9344" x2="77.5709" y2="32.9344" gradientUnits="userSpaceOnUse"><stop stop-color="#5778FF"></stop><stop offset="0.1779" stop-color="#5C7DFF"></stop><stop offset="0.3876" stop-color="#6A8AFF"></stop><stop offset="0.6134" stop-color="#82A0FF"></stop><stop offset="0.849" stop-color="#A3BEFF"></stop><stop offset="1" stop-color="#BCD5FF"></stop></linearGradient><linearGradient id="paint14_linear_1_1757" x1="68.4715" y1="34.7713" x2="80.7607" y2="34.7713" gradientUnits="userSpaceOnUse"><stop stop-color="#5778FF"></stop><stop offset="0.1779" stop-color="#5C7DFF"></stop><stop offset="0.3876" stop-color="#6A8AFF"></stop><stop offset="0.6134" stop-color="#82A0FF"></stop><stop offset="0.849" stop-color="#A3BEFF"></stop><stop offset="1" stop-color="#BCD5FF"></stop></linearGradient><linearGradient id="paint15_linear_1_1757" x1="77.7997" y1="40.1941" x2="90.0888" y2="40.1941" gradientUnits="userSpaceOnUse"><stop stop-color="#5778FF"></stop><stop offset="0.1779" stop-color="#5C7DFF"></stop><stop offset="0.3876" stop-color="#6A8AFF"></stop><stop offset="0.6134" stop-color="#82A0FF"></stop><stop offset="0.849" stop-color="#A3BEFF"></stop><stop offset="1" stop-color="#BCD5FF"></stop></linearGradient><linearGradient id="paint16_linear_1_1757" x1="80.9896" y1="42.0308" x2="93.2787" y2="42.0308" gradientUnits="userSpaceOnUse"><stop stop-color="#5778FF"></stop><stop offset="0.1779" stop-color="#5C7DFF"></stop><stop offset="0.3876" stop-color="#6A8AFF"></stop><stop offset="0.6134" stop-color="#82A0FF"></stop><stop offset="0.849" stop-color="#A3BEFF"></stop><stop offset="1" stop-color="#BCD5FF"></stop></linearGradient><linearGradient id="paint17_linear_1_1757" x1="122.41" y1="132.902" x2="96.3762" y2="113.575" gradientUnits="userSpaceOnUse"><stop stop-color="#5778FF"></stop><stop offset="0.1779" stop-color="#5C7DFF"></stop><stop offset="0.3876" stop-color="#6A8AFF"></stop><stop offset="0.6134" stop-color="#82A0FF"></stop><stop offset="0.849" stop-color="#A3BEFF"></stop><stop offset="1" stop-color="#BCD5FF"></stop></linearGradient><linearGradient id="paint18_linear_1_1757" x1="90.5666" y1="150.893" x2="142.503" y2="150.893" gradientUnits="userSpaceOnUse"><stop stop-color="#5778FF"></stop><stop offset="0.1779" stop-color="#5C7DFF"></stop><stop offset="0.3876" stop-color="#6A8AFF"></stop><stop offset="0.6134" stop-color="#82A0FF"></stop><stop offset="0.849" stop-color="#A3BEFF"></stop><stop offset="1" stop-color="#BCD5FF"></stop></linearGradient><linearGradient id="paint19_linear_1_1757" x1="108.018" y1="149.16" x2="159.982" y2="149.16" gradientUnits="userSpaceOnUse"><stop stop-color="#C0D6FF"></stop><stop offset="0.2978" stop-color="#C5DBFF"></stop><stop offset="0.6488" stop-color="#D3E9FF"></stop><stop offset="1" stop-color="#E9FFFF"></stop></linearGradient><linearGradient id="paint20_linear_1_1757" x1="116.818" y1="152.111" x2="130.119" y2="152.111" gradientUnits="userSpaceOnUse"><stop stop-color="#C0D6FF"></stop><stop offset="0.2978" stop-color="#C5DBFF"></stop><stop offset="0.6488" stop-color="#D3E9FF"></stop><stop offset="1" stop-color="#E9FFFF"></stop></linearGradient><linearGradient id="paint21_linear_1_1757" x1="88.3765" y1="137.601" x2="140.094" y2="137.601" gradientUnits="userSpaceOnUse"><stop stop-color="#C0D6FF"></stop><stop offset="0.2978" stop-color="#C5DBFF"></stop><stop offset="0.6488" stop-color="#D3E9FF"></stop><stop offset="1" stop-color="#E9FFFF"></stop></linearGradient><linearGradient id="paint22_linear_1_1757" x1="84.9729" y1="133.802" x2="98.2111" y2="133.802" gradientUnits="userSpaceOnUse"><stop stop-color="#C0D6FF"></stop><stop offset="0.2978" stop-color="#C5DBFF"></stop><stop offset="0.6488" stop-color="#D3E9FF"></stop><stop offset="1" stop-color="#E9FFFF"></stop></linearGradient><linearGradient id="paint23_linear_1_1757" x1="75.4174" y1="71.6811" x2="78.5643" y2="71.6811" gradientUnits="userSpaceOnUse"><stop stop-color="#C0D6FF"></stop><stop offset="0.2978" stop-color="#C5DBFF"></stop><stop offset="0.6488" stop-color="#D3E9FF"></stop><stop offset="1" stop-color="#E9FFFF"></stop></linearGradient><linearGradient id="paint24_linear_1_1757" x1="75.0341" y1="72.0018" x2="77.6365" y2="72.0018" gradientUnits="userSpaceOnUse"><stop stop-color="#5778FF"></stop><stop offset="0.1779" stop-color="#5C7DFF"></stop><stop offset="0.3876" stop-color="#6A8AFF"></stop><stop offset="0.6134" stop-color="#82A0FF"></stop><stop offset="0.849" stop-color="#A3BEFF"></stop><stop offset="1" stop-color="#BCD5FF"></stop></linearGradient><linearGradient id="paint25_linear_1_1757" x1="11.0684" y1="34.7217" x2="14.2153" y2="34.7217" gradientUnits="userSpaceOnUse"><stop stop-color="#C0D6FF"></stop><stop offset="0.2978" stop-color="#C5DBFF"></stop><stop offset="0.6488" stop-color="#D3E9FF"></stop><stop offset="1" stop-color="#E9FFFF"></stop></linearGradient><linearGradient id="paint26_linear_1_1757" x1="10.6851" y1="35.0426" x2="13.2875" y2="35.0426" gradientUnits="userSpaceOnUse"><stop stop-color="#5778FF"></stop><stop offset="0.1779" stop-color="#5C7DFF"></stop><stop offset="0.3876" stop-color="#6A8AFF"></stop><stop offset="0.6134" stop-color="#82A0FF"></stop><stop offset="0.849" stop-color="#A3BEFF"></stop><stop offset="1" stop-color="#BCD5FF"></stop></linearGradient><linearGradient id="paint27_linear_1_1757" x1="75.4165" y1="196.85" x2="78.5634" y2="196.85" gradientUnits="userSpaceOnUse"><stop stop-color="#C0D6FF"></stop><stop offset="0.2978" stop-color="#C5DBFF"></stop><stop offset="0.6488" stop-color="#D3E9FF"></stop><stop offset="1" stop-color="#E9FFFF"></stop></linearGradient><linearGradient id="paint28_linear_1_1757" x1="75.0336" y1="197.212" x2="77.6361" y2="197.212" gradientUnits="userSpaceOnUse"><stop stop-color="#5778FF"></stop><stop offset="0.1779" stop-color="#5C7DFF"></stop><stop offset="0.3876" stop-color="#6A8AFF"></stop><stop offset="0.6134" stop-color="#82A0FF"></stop><stop offset="0.849" stop-color="#A3BEFF"></stop><stop offset="1" stop-color="#BCD5FF"></stop></linearGradient><linearGradient id="paint29_linear_1_1757" x1="75.4174" y1="197.117" x2="78.5643" y2="197.117" gradientUnits="userSpaceOnUse"><stop stop-color="#C0D6FF"></stop><stop offset="0.2978" stop-color="#C5DBFF"></stop><stop offset="0.6488" stop-color="#D3E9FF"></stop><stop offset="1" stop-color="#E9FFFF"></stop></linearGradient><linearGradient id="paint30_linear_1_1757" x1="75.0335" y1="197.117" x2="77.636" y2="197.117" gradientUnits="userSpaceOnUse"><stop stop-color="#5778FF"></stop><stop offset="0.1779" stop-color="#5C7DFF"></stop><stop offset="0.3876" stop-color="#6A8AFF"></stop><stop offset="0.6134" stop-color="#82A0FF"></stop><stop offset="0.849" stop-color="#A3BEFF"></stop><stop offset="1" stop-color="#BCD5FF"></stop></linearGradient><linearGradient id="paint31_linear_1_1757" x1="11.0682" y1="159.891" x2="14.2151" y2="159.891" gradientUnits="userSpaceOnUse"><stop stop-color="#C0D6FF"></stop><stop offset="0.2978" stop-color="#C5DBFF"></stop><stop offset="0.6488" stop-color="#D3E9FF"></stop><stop offset="1" stop-color="#E9FFFF"></stop></linearGradient><linearGradient id="paint32_linear_1_1757" x1="10.6853" y1="160.253" x2="13.2877" y2="160.253" gradientUnits="userSpaceOnUse"><stop stop-color="#5778FF"></stop><stop offset="0.1779" stop-color="#5C7DFF"></stop><stop offset="0.3876" stop-color="#6A8AFF"></stop><stop offset="0.6134" stop-color="#82A0FF"></stop><stop offset="0.849" stop-color="#A3BEFF"></stop><stop offset="1" stop-color="#BCD5FF"></stop></linearGradient><linearGradient id="paint33_linear_1_1757" x1="11.0691" y1="160.158" x2="14.216" y2="160.158" gradientUnits="userSpaceOnUse"><stop stop-color="#C0D6FF"></stop><stop offset="0.2978" stop-color="#C5DBFF"></stop><stop offset="0.6488" stop-color="#D3E9FF"></stop><stop offset="1" stop-color="#E9FFFF"></stop></linearGradient><linearGradient id="paint34_linear_1_1757" x1="10.6852" y1="160.158" x2="13.2876" y2="160.158" gradientUnits="userSpaceOnUse"><stop stop-color="#5778FF"></stop><stop offset="0.1779" stop-color="#5C7DFF"></stop><stop offset="0.3876" stop-color="#6A8AFF"></stop><stop offset="0.6134" stop-color="#82A0FF"></stop><stop offset="0.849" stop-color="#A3BEFF"></stop><stop offset="1" stop-color="#BCD5FF"></stop></linearGradient></defs></svg>