<svg xmlns="http://www.w3.org/2000/svg" width="122" height="204" viewBox="0 0 122 204" fill="none"><path d="M74.8576 62.4072H82.8919C81.7057 59.7097 80.9687 58.0373 80.9687 58.0373L0.894745 26.7651V160.558C0.894745 160.576 0.894745 160.594 0.894745 160.594V160.719C0.930693 160.953 1.07448 161.187 1.38004 161.367L74.3902 203.537C74.534 203.609 74.6778 203.681 74.8576 203.717V62.4072Z" fill="#242993"></path><path d="M121.877 43.2554L75.8101 69.5643V150.092L75.7742 150.074V203.842C75.7921 203.842 75.7922 203.842 75.8101 203.842C76.3314 203.824 76.8706 203.681 77.284 203.447L121.176 178.091C121.626 177.839 121.859 177.497 121.877 177.174V43.2554Z" fill="url(#paint0_linear_1_1675)"></path><path d="M72.4854 29.3186V148.185V182.856V202.458L74.3906 203.555C74.7501 203.77 75.2534 203.86 75.7566 203.842C76.2959 203.824 76.3138 203.519 76.7452 203.267L77.1406 203.105L76.7093 182.569V150.379L77.6619 29.3186H72.4854Z" fill="#3947BA"></path><path d="M77.6794 182.856V151.189V68.4854L75.7922 69.5643V150.092L75.7562 150.074V203.842C75.7742 203.842 75.7742 203.842 75.7922 203.842C75.9 203.842 76.0078 203.824 76.1157 203.806C76.1336 203.806 76.1516 203.806 76.1696 203.806C76.4212 203.77 76.6549 203.699 76.8706 203.627C76.8885 203.627 76.9065 203.609 76.9245 203.609C77.0503 203.555 77.1582 203.501 77.266 203.447L77.6794 203.213V182.856Z" fill="#CAE7FF"></path><g opacity="0.51"><path opacity="0.51" d="M4.5074 34.1201L68.8542 71.2907V196.505L4.5074 159.335V34.1201Z" fill="#4553C7"></path></g><g opacity="0.51"><path opacity="0.51" d="M0.894745 141.262L72.485 93.3197V68.5933L0.894745 26.7651V141.262Z" fill="#4553C7"></path></g><path d="M74.4077 69.6903L1.39748 27.5204C0.660547 27.0889 0.750417 26.3516 1.59519 25.866L45.4876 0.510177C46.3324 0.0246398 47.6265 -0.0293117 48.3634 0.384294L121.374 42.5541C122.111 42.9857 122.021 43.723 121.176 44.2085L77.2835 69.5644C76.4208 70.0679 75.1446 70.1218 74.4077 69.6903Z" fill="#BCD5FF"></path><mask id="mask0_1_1675" style="mask-type:alpha" maskUnits="userSpaceOnUse" x="0" y="2" width="76" height="64"><path d="M47.645 2.27246H42.4325L1.59572 25.848C0.750946 26.3335 0.643101 27.0888 1.39801 27.5024L3.37514 28.6533L66.8052 65.2844L75.1452 65.1945L47.645 2.27246Z" fill="url(#paint1_linear_1_1675)"></path></mask><g mask="url(#mask0_1_1675)"><path opacity="0.78" d="M47.645 2.27246H42.4325L1.59572 25.848C0.750946 26.3335 0.643101 27.0888 1.39801 27.5024L3.37514 28.6533L66.8052 65.2844L75.1452 65.1945L47.645 2.27246Z" fill="url(#paint2_linear_1_1675)"></path><path d="M47.645 4.88013L12.5598 25.1288L9.16272 24.4994V27.107L75.1272 65.2126L108.523 42.4823L47.645 4.88013Z" fill="url(#paint3_linear_1_1675)"></path><path d="M113.61 40.3782V42.9677L75.1273 65.2125V62.605L113.61 40.3782Z" fill="url(#paint4_linear_1_1675)"></path><path d="M75.1271 62.605L9.16272 24.4993L47.645 2.27246L113.609 40.3782L75.1271 62.605Z" fill="url(#paint5_linear_1_1675)"></path><path d="M33.7872 21.73L32.7267 21.1186L32.8166 20.615L42.5585 14.9504L43.9245 15.5978L43.6729 16.0114L33.7872 21.73Z" fill="#3F38FC"></path><path d="M42.6122 15.4L43.6727 16.0114L44.3377 15.6158L42.6122 14.6267L32.0615 20.7229L32.7265 21.1185L42.6122 15.4Z" fill="url(#paint6_linear_1_1675)"></path><path d="M36.9684 23.5642L35.9259 22.9528L36.0157 22.4673L45.7576 16.7847L47.1057 17.4321L46.854 17.8457L36.9684 23.5642Z" fill="#3F38FC"></path><path d="M45.8115 17.2522L46.854 17.8456L47.537 17.45L45.8115 16.4609L35.2429 22.5571L35.9259 22.9527L45.8115 17.2522Z" fill="url(#paint7_linear_1_1675)"></path><path d="M40.1679 25.3984L39.1074 24.787L39.1973 24.3015L48.9392 18.6189L50.3052 19.2663L50.0535 19.6799L40.1679 25.3984Z" fill="#3F38FC"></path><path d="M48.993 19.0864L50.0534 19.6798L50.7185 19.3022L48.993 18.2952L38.4422 24.3914L39.1073 24.787L48.993 19.0864Z" fill="url(#paint8_linear_1_1675)"></path><path d="M43.3491 27.2327L42.3066 26.6213L42.3785 26.1357L52.1383 20.4531L53.4864 21.1005L53.2347 21.5321L43.3491 27.2327Z" fill="#3F38FC"></path><path d="M52.1923 20.9206L53.2348 21.5321L53.9178 21.1364L52.1923 20.1294L41.6236 26.2436L42.3066 26.6212L52.1923 20.9206Z" fill="url(#paint9_linear_1_1675)"></path><path d="M52.6772 32.6636L51.6347 32.0522L51.7066 31.5486L61.4665 25.884L62.8145 26.5314L62.5629 26.945L52.6772 32.6636Z" fill="#3F38FC"></path><path d="M61.5205 26.3336L62.563 26.945L63.246 26.5494L61.5205 25.5603L50.9518 31.6565L51.6348 32.0521L61.5205 26.3336Z" fill="url(#paint10_linear_1_1675)"></path><path d="M55.8769 34.4978L54.8164 33.8864L54.9063 33.4009L64.6482 27.7183L66.0142 28.3656L65.7626 28.7793L55.8769 34.4978Z" fill="#3F38FC"></path><path d="M64.702 28.1858L65.7625 28.7792L66.4275 28.3836L64.702 27.3945L54.1513 33.4907L54.8163 33.8863L64.702 28.1858Z" fill="url(#paint11_linear_1_1675)"></path><path d="M59.0581 36.332L58.0156 35.7206L58.0875 35.2351L67.8474 29.5525L69.1954 30.1999L68.9438 30.6135L59.0581 36.332Z" fill="#3F38FC"></path><path d="M67.9014 30.02L68.9439 30.6134L69.6269 30.2358L67.9014 29.2288L57.3327 35.325L58.0157 35.7206L67.9014 30.02Z" fill="url(#paint12_linear_1_1675)"></path><path d="M62.2581 38.1663L61.1976 37.5548L61.2875 37.0693L71.0294 31.3867L72.3954 32.0341L72.1438 32.4657L62.2581 38.1663Z" fill="#3F38FC"></path><path d="M71.0828 31.8542L72.1433 32.4656L72.8083 32.07L71.0828 31.063L60.5321 37.1772L61.1971 37.5548L71.0828 31.8542Z" fill="url(#paint13_linear_1_1675)"></path><path d="M71.5865 43.5972L70.5261 42.9858L70.6159 42.4822L80.3578 36.8176L81.7238 37.465L81.4722 37.8786L71.5865 43.5972Z" fill="#3F38FC"></path><path d="M80.4112 37.2672L81.4717 37.8786L82.1368 37.483L80.4112 36.4939L69.8605 42.5901L70.5256 42.9857L80.4112 37.2672Z" fill="url(#paint14_linear_1_1675)"></path><path d="M74.7674 45.4314L73.7249 44.82L73.7968 44.3344L83.5567 38.6519L84.9047 39.2992L84.6531 39.7128L74.7674 45.4314Z" fill="#3F38FC"></path><path d="M83.6108 39.1014L84.6533 39.7128L85.3363 39.3172L83.6108 38.3281L73.0421 44.4243L73.7251 44.8199L83.6108 39.1014Z" fill="url(#paint15_linear_1_1675)"></path></g><path opacity="0.51" d="M84.5636 151.458C84.3299 151.458 84.1142 151.404 83.8985 151.278C83.4851 151.045 83.2335 150.613 83.2335 150.128V108.641C83.2335 107.67 83.7548 106.753 84.5995 106.267L114.544 88.9678C114.958 88.734 115.461 88.734 115.874 88.9678C116.288 89.2016 116.539 89.6332 116.539 90.1187V131.605C116.539 132.576 116.018 133.493 115.173 133.979L85.2286 151.278C85.0129 151.386 84.7793 151.458 84.5636 151.458ZM115.209 89.6871C115.137 89.6871 115.065 89.7051 114.993 89.7411L85.0489 107.041C84.4737 107.364 84.1322 107.976 84.1322 108.641V150.128C84.1322 150.343 84.276 150.469 84.3479 150.505C84.4198 150.541 84.5816 150.613 84.7793 150.505L114.724 133.206C115.299 132.882 115.641 132.271 115.641 131.605V90.1187C115.641 89.9029 115.497 89.777 115.425 89.7411C115.389 89.7231 115.317 89.6871 115.209 89.6871Z" fill="#4553C7"></path><path d="M70.6163 71.7584C70.6163 70.9312 70.0411 69.9241 69.3221 69.5105C68.9627 69.2947 68.6391 69.2767 68.4055 69.4206L67.4888 69.9601L68.064 69.9781C68.046 70.068 68.046 70.1579 68.046 70.2658C68.046 71.093 68.6212 72.1001 69.3401 72.5137C69.43 72.5676 69.5199 72.6036 69.6097 72.6395L69.3401 73.1431L70.2388 72.6216C70.4725 72.4597 70.6163 72.172 70.6163 71.7584Z" fill="url(#paint16_linear_1_1675)"></path><path d="M69.6813 72.2977C69.6813 73.125 69.1061 73.4666 68.3871 73.053C67.6682 72.6394 67.093 71.6324 67.093 70.8052C67.093 69.978 67.6682 69.6363 68.3871 70.0499C69.1061 70.4635 69.6813 71.4705 69.6813 72.2977Z" fill="url(#paint17_linear_1_1675)"></path><path d="M69.1419 71.9741C69.1419 72.4596 68.8004 72.6395 68.387 72.4057C67.9736 72.1719 67.6321 71.5785 67.6321 71.1109C67.6321 70.6254 67.9736 70.4455 68.387 70.6793C68.8004 70.9131 69.1419 71.5065 69.1419 71.9741Z" fill="#3F38FC"></path><path d="M6.26915 34.8035C6.26915 33.9763 5.69398 32.9693 4.97502 32.5557C4.61554 32.3399 4.29202 32.3219 4.05836 32.4658L3.14168 33.0053L3.71685 33.0232C3.69887 33.1132 3.69887 33.2031 3.69887 33.311C3.69887 34.1382 4.27404 35.1452 4.993 35.5588C5.08287 35.6128 5.19072 35.6487 5.28059 35.6847L5.01098 36.1882L5.90968 35.6667C6.12536 35.5049 6.26915 35.2171 6.26915 34.8035Z" fill="url(#paint18_linear_1_1675)"></path><path d="M5.33416 35.3432C5.33416 36.1704 4.75899 36.512 4.04003 36.0984C3.32108 35.6848 2.74591 34.6778 2.74591 33.8506C2.74591 33.0234 3.32108 32.6817 4.04003 33.0953C4.75899 33.4909 5.33416 34.5159 5.33416 35.3432Z" fill="url(#paint19_linear_1_1675)"></path><path d="M4.79477 35.0193C4.79477 35.5048 4.45327 35.6846 4.03987 35.4508C3.62647 35.2171 3.28497 34.6236 3.28497 34.1561C3.28497 33.6705 3.62647 33.4907 4.03987 33.7245C4.45327 33.9583 4.79477 34.5337 4.79477 35.0193Z" fill="#3F38FC"></path><path d="M70.6159 196.919C70.6159 196.092 70.0407 195.085 69.3218 194.671C68.9623 194.455 68.6387 194.437 68.4051 194.581L67.4884 195.121C67.7221 194.995 68.0456 195.013 68.4051 195.211C69.124 195.624 69.6992 196.631 69.6992 197.459C69.6992 197.854 69.5554 198.142 69.3397 198.286L70.2384 197.764C70.4721 197.638 70.6159 197.333 70.6159 196.919Z" fill="url(#paint20_linear_1_1675)"></path><path d="M69.3219 197.674C69.232 197.62 69.1421 197.566 69.0523 197.494C68.9265 197.71 68.6748 197.746 68.3872 197.584C67.9738 197.351 67.6323 196.757 67.6323 196.29C67.6323 195.948 67.7941 195.768 68.0457 195.768C68.0278 195.66 68.0098 195.552 68.0098 195.444C68.0098 195.336 68.0098 195.247 68.0278 195.157L67.4526 195.139C67.2189 195.283 67.0751 195.57 67.0751 195.984C67.0751 196.811 67.6503 197.818 68.3693 198.232C68.7467 198.448 69.0702 198.448 69.3219 198.304L69.5915 197.818C69.5016 197.764 69.4118 197.728 69.3219 197.674Z" fill="url(#paint21_linear_1_1675)"></path><path d="M69.6812 197.458C69.6812 196.631 69.1061 195.624 68.3871 195.211C68.0276 195.013 67.7041 194.977 67.4705 195.121L68.0456 195.139C68.0277 195.229 68.0276 195.319 68.0276 195.426C68.0276 195.534 68.0456 195.642 68.0636 195.75C68.1714 195.75 68.2793 195.768 68.4051 195.84C68.8185 196.074 69.16 196.667 69.16 197.135C69.16 197.279 69.1241 197.387 69.0701 197.476C69.16 197.548 69.2499 197.602 69.3398 197.656C69.4296 197.71 69.5195 197.746 69.6093 197.782L69.3398 198.268C69.5554 198.142 69.6812 197.872 69.6812 197.458Z" fill="url(#paint22_linear_1_1675)"></path><path d="M69.6812 197.458C69.6812 196.631 69.1061 195.624 68.3871 195.211C68.0276 195.013 67.7041 194.977 67.4705 195.121L68.0456 195.139C68.0277 195.229 68.0276 195.319 68.0276 195.426C68.0276 195.534 68.0456 195.642 68.0636 195.75C68.1714 195.75 68.2793 195.768 68.4051 195.84C68.8185 196.074 69.16 196.667 69.16 197.135C69.16 197.279 69.1241 197.387 69.0701 197.476C69.16 197.548 69.2499 197.602 69.3398 197.656C69.4296 197.71 69.5195 197.746 69.6093 197.782L69.3398 198.268C69.5554 198.142 69.6812 197.872 69.6812 197.458Z" fill="url(#paint23_linear_1_1675)"></path><path d="M67.6322 196.29C67.6322 196.775 67.9737 197.351 68.3871 197.584C68.6747 197.746 68.9263 197.71 69.0521 197.494C68.5488 197.081 68.1534 196.398 68.0456 195.75C67.8119 195.75 67.6322 195.948 67.6322 196.29Z" fill="#3F38FC"></path><path d="M69.0524 197.495C69.1064 197.405 69.1423 197.297 69.1423 197.153C69.1423 196.667 68.8008 196.092 68.3874 195.858C68.2616 195.786 68.1537 195.75 68.0459 195.768C68.1537 196.398 68.5492 197.081 69.0524 197.495Z" fill="#3F38FC"></path><path d="M4.97521 157.716C4.61573 157.501 4.29221 157.483 4.05855 157.626L3.14188 158.166C3.37554 158.04 3.69907 158.058 4.05855 158.256C4.77751 158.669 5.35266 159.676 5.35266 160.504C5.35266 160.899 5.20888 161.187 4.99319 161.331L5.89189 160.809C6.12555 160.684 6.28732 160.378 6.28732 159.964C6.26934 159.137 5.69417 158.13 4.97521 157.716Z" fill="url(#paint24_linear_1_1675)"></path><path d="M4.97487 160.719C4.885 160.665 4.79514 160.612 4.70527 160.54C4.57945 160.755 4.32781 160.791 4.04023 160.629C3.62683 160.396 3.28533 159.802 3.28533 159.335C3.28533 158.993 3.44708 158.813 3.68074 158.813C3.66277 158.705 3.6448 158.597 3.6448 158.49C3.6448 158.382 3.66278 158.292 3.66278 158.202L3.08761 158.184C2.85395 158.328 2.71016 158.615 2.71016 159.029C2.71016 159.856 3.28531 160.863 4.00427 161.277C4.38173 161.493 4.70527 161.493 4.9569 161.349L5.2265 160.863C5.15461 160.809 5.06474 160.773 4.97487 160.719Z" fill="url(#paint25_linear_1_1675)"></path><path d="M5.33425 160.504C5.33425 159.676 4.75908 158.669 4.04012 158.256C3.68064 158.058 3.3571 158.022 3.12344 158.166L3.69861 158.184C3.68064 158.274 3.68063 158.364 3.68063 158.472C3.68063 158.579 3.69861 158.687 3.71659 158.795C3.82443 158.795 3.93228 158.813 4.0581 158.885C4.4715 159.119 4.813 159.712 4.813 160.18C4.813 160.324 4.77705 160.432 4.72312 160.522C4.81299 160.594 4.90287 160.648 4.99274 160.701C5.08261 160.755 5.19046 160.791 5.28033 160.827L5.01071 161.313C5.20843 161.187 5.33425 160.899 5.33425 160.504Z" fill="url(#paint26_linear_1_1675)"></path><path d="M5.33425 160.504C5.33425 159.676 4.75908 158.669 4.04012 158.256C3.68064 158.058 3.3571 158.022 3.12344 158.166L3.69861 158.184C3.68064 158.274 3.68063 158.364 3.68063 158.472C3.68063 158.579 3.69861 158.687 3.71659 158.795C3.82443 158.795 3.93228 158.813 4.0581 158.885C4.4715 159.119 4.813 159.712 4.813 160.18C4.813 160.324 4.77705 160.432 4.72312 160.522C4.81299 160.594 4.90287 160.648 4.99274 160.701C5.08261 160.755 5.19046 160.791 5.28033 160.827L5.01071 161.313C5.20843 161.187 5.33425 160.899 5.33425 160.504Z" fill="url(#paint27_linear_1_1675)"></path><path d="M3.28516 159.317C3.28516 159.802 3.62666 160.378 4.04006 160.612C4.32764 160.773 4.57928 160.737 4.7051 160.522C4.20183 160.108 3.80639 159.425 3.69855 158.777C3.44691 158.795 3.28516 158.993 3.28516 159.317Z" fill="#3F38FC"></path><path d="M4.705 160.54C4.75892 160.45 4.79486 160.342 4.79486 160.198C4.79486 159.712 4.45335 159.137 4.03995 158.903C3.91413 158.831 3.80628 158.795 3.69844 158.813C3.80628 159.443 4.20172 160.126 4.705 160.54Z" fill="#3F38FC"></path><defs><linearGradient id="paint0_linear_1_1675" x1="98.8175" y1="203.835" x2="98.8175" y2="43.2608" gradientUnits="userSpaceOnUse"><stop stop-color="#C0D6FF"></stop><stop offset="0.2978" stop-color="#C5DBFF"></stop><stop offset="0.6488" stop-color="#D3E9FF"></stop><stop offset="1" stop-color="#E9FFFF"></stop></linearGradient><linearGradient id="paint1_linear_1_1675" x1="12.434" y1="33.7855" x2="86.6661" y2="33.7855" gradientUnits="userSpaceOnUse"><stop></stop><stop offset="0.0469" stop-color="#2F2F2F"></stop><stop offset="0.0981" stop-color="#5A5A5A"></stop><stop offset="0.155" stop-color="#828282"></stop><stop offset="0.2161" stop-color="#A4A4A4"></stop><stop offset="0.2828" stop-color="#C0C0C0"></stop><stop offset="0.3571" stop-color="#D7D7D7"></stop><stop offset="0.442" stop-color="#E9E9E9"></stop><stop offset="0.5443" stop-color="#F6F6F6"></stop><stop offset="0.6813" stop-color="#FDFDFD"></stop><stop offset="1" stop-color="white"></stop></linearGradient><linearGradient id="paint2_linear_1_1675" x1="12.434" y1="33.7855" x2="86.6661" y2="33.7855" gradientUnits="userSpaceOnUse"><stop stop-color="#E9FFFF"></stop><stop offset="0.0374" stop-color="#D3EBFF"></stop><stop offset="0.1056" stop-color="#B2CCFF"></stop><stop offset="0.1817" stop-color="#96B2FF"></stop><stop offset="0.2663" stop-color="#7F9DFF"></stop><stop offset="0.3632" stop-color="#6D8CFF"></stop><stop offset="0.4798" stop-color="#6081FF"></stop><stop offset="0.6363" stop-color="#597AFF"></stop><stop offset="1" stop-color="#5778FF"></stop></linearGradient><linearGradient id="paint3_linear_1_1675" x1="9.15841" y1="35.0379" x2="108.525" y2="35.0379" gradientUnits="userSpaceOnUse"><stop stop-color="#5778FF"></stop><stop offset="0.1779" stop-color="#5C7DFF"></stop><stop offset="0.3876" stop-color="#6A8AFF"></stop><stop offset="0.6134" stop-color="#82A0FF"></stop><stop offset="0.849" stop-color="#A3BEFF"></stop><stop offset="1" stop-color="#BCD5FF"></stop></linearGradient><linearGradient id="paint4_linear_1_1675" x1="75.1249" y1="52.791" x2="113.604" y2="52.791" gradientUnits="userSpaceOnUse"><stop stop-color="#C0D6FF"></stop><stop offset="0.2978" stop-color="#C5DBFF"></stop><stop offset="0.6488" stop-color="#D3E9FF"></stop><stop offset="1" stop-color="#E9FFFF"></stop></linearGradient><linearGradient id="paint5_linear_1_1675" x1="9.15841" y1="32.4398" x2="113.604" y2="32.4398" gradientUnits="userSpaceOnUse"><stop stop-color="#C0D6FF"></stop><stop offset="0.2978" stop-color="#C5DBFF"></stop><stop offset="0.6488" stop-color="#D3E9FF"></stop><stop offset="1" stop-color="#E9FFFF"></stop></linearGradient><linearGradient id="paint6_linear_1_1675" x1="32.0548" y1="17.8705" x2="44.3442" y2="17.8705" gradientUnits="userSpaceOnUse"><stop stop-color="#5778FF"></stop><stop offset="0.1779" stop-color="#5C7DFF"></stop><stop offset="0.3876" stop-color="#6A8AFF"></stop><stop offset="0.6134" stop-color="#82A0FF"></stop><stop offset="0.849" stop-color="#A3BEFF"></stop><stop offset="1" stop-color="#BCD5FF"></stop></linearGradient><linearGradient id="paint7_linear_1_1675" x1="35.2448" y1="19.7074" x2="47.534" y2="19.7074" gradientUnits="userSpaceOnUse"><stop stop-color="#5778FF"></stop><stop offset="0.1779" stop-color="#5C7DFF"></stop><stop offset="0.3876" stop-color="#6A8AFF"></stop><stop offset="0.6134" stop-color="#82A0FF"></stop><stop offset="0.849" stop-color="#A3BEFF"></stop><stop offset="1" stop-color="#BCD5FF"></stop></linearGradient><linearGradient id="paint8_linear_1_1675" x1="38.4349" y1="21.5443" x2="50.724" y2="21.5443" gradientUnits="userSpaceOnUse"><stop stop-color="#5778FF"></stop><stop offset="0.1779" stop-color="#5C7DFF"></stop><stop offset="0.3876" stop-color="#6A8AFF"></stop><stop offset="0.6134" stop-color="#82A0FF"></stop><stop offset="0.849" stop-color="#A3BEFF"></stop><stop offset="1" stop-color="#BCD5FF"></stop></linearGradient><linearGradient id="paint9_linear_1_1675" x1="41.6249" y1="23.3811" x2="53.914" y2="23.3811" gradientUnits="userSpaceOnUse"><stop stop-color="#5778FF"></stop><stop offset="0.1779" stop-color="#5C7DFF"></stop><stop offset="0.3876" stop-color="#6A8AFF"></stop><stop offset="0.6134" stop-color="#82A0FF"></stop><stop offset="0.849" stop-color="#A3BEFF"></stop><stop offset="1" stop-color="#BCD5FF"></stop></linearGradient><linearGradient id="paint10_linear_1_1675" x1="50.9532" y1="28.8039" x2="63.2424" y2="28.8039" gradientUnits="userSpaceOnUse"><stop stop-color="#5778FF"></stop><stop offset="0.1779" stop-color="#5C7DFF"></stop><stop offset="0.3876" stop-color="#6A8AFF"></stop><stop offset="0.6134" stop-color="#82A0FF"></stop><stop offset="0.849" stop-color="#A3BEFF"></stop><stop offset="1" stop-color="#BCD5FF"></stop></linearGradient><linearGradient id="paint11_linear_1_1675" x1="54.1432" y1="30.6408" x2="66.4325" y2="30.6408" gradientUnits="userSpaceOnUse"><stop stop-color="#5778FF"></stop><stop offset="0.1779" stop-color="#5C7DFF"></stop><stop offset="0.3876" stop-color="#6A8AFF"></stop><stop offset="0.6134" stop-color="#82A0FF"></stop><stop offset="0.849" stop-color="#A3BEFF"></stop><stop offset="1" stop-color="#BCD5FF"></stop></linearGradient><linearGradient id="paint12_linear_1_1675" x1="57.3332" y1="32.4777" x2="69.6224" y2="32.4777" gradientUnits="userSpaceOnUse"><stop stop-color="#5778FF"></stop><stop offset="0.1779" stop-color="#5C7DFF"></stop><stop offset="0.3876" stop-color="#6A8AFF"></stop><stop offset="0.6134" stop-color="#82A0FF"></stop><stop offset="0.849" stop-color="#A3BEFF"></stop><stop offset="1" stop-color="#BCD5FF"></stop></linearGradient><linearGradient id="paint13_linear_1_1675" x1="60.5233" y1="34.3145" x2="72.8124" y2="34.3145" gradientUnits="userSpaceOnUse"><stop stop-color="#5778FF"></stop><stop offset="0.1779" stop-color="#5C7DFF"></stop><stop offset="0.3876" stop-color="#6A8AFF"></stop><stop offset="0.6134" stop-color="#82A0FF"></stop><stop offset="0.849" stop-color="#A3BEFF"></stop><stop offset="1" stop-color="#BCD5FF"></stop></linearGradient><linearGradient id="paint14_linear_1_1675" x1="69.8519" y1="39.7373" x2="82.1411" y2="39.7373" gradientUnits="userSpaceOnUse"><stop stop-color="#5778FF"></stop><stop offset="0.1779" stop-color="#5C7DFF"></stop><stop offset="0.3876" stop-color="#6A8AFF"></stop><stop offset="0.6134" stop-color="#82A0FF"></stop><stop offset="0.849" stop-color="#A3BEFF"></stop><stop offset="1" stop-color="#BCD5FF"></stop></linearGradient><linearGradient id="paint15_linear_1_1675" x1="73.0421" y1="41.5742" x2="85.3313" y2="41.5742" gradientUnits="userSpaceOnUse"><stop stop-color="#5778FF"></stop><stop offset="0.1779" stop-color="#5C7DFF"></stop><stop offset="0.3876" stop-color="#6A8AFF"></stop><stop offset="0.6134" stop-color="#82A0FF"></stop><stop offset="0.849" stop-color="#A3BEFF"></stop><stop offset="1" stop-color="#BCD5FF"></stop></linearGradient><linearGradient id="paint16_linear_1_1675" x1="67.4697" y1="71.2243" x2="70.6166" y2="71.2243" gradientUnits="userSpaceOnUse"><stop stop-color="#C0D6FF"></stop><stop offset="0.2978" stop-color="#C5DBFF"></stop><stop offset="0.6488" stop-color="#D3E9FF"></stop><stop offset="1" stop-color="#E9FFFF"></stop></linearGradient><linearGradient id="paint17_linear_1_1675" x1="67.0864" y1="71.545" x2="69.6888" y2="71.545" gradientUnits="userSpaceOnUse"><stop stop-color="#5778FF"></stop><stop offset="0.1779" stop-color="#5C7DFF"></stop><stop offset="0.3876" stop-color="#6A8AFF"></stop><stop offset="0.6134" stop-color="#82A0FF"></stop><stop offset="0.849" stop-color="#A3BEFF"></stop><stop offset="1" stop-color="#BCD5FF"></stop></linearGradient><linearGradient id="paint18_linear_1_1675" x1="3.12119" y1="34.2651" x2="6.26807" y2="34.2651" gradientUnits="userSpaceOnUse"><stop stop-color="#C0D6FF"></stop><stop offset="0.2978" stop-color="#C5DBFF"></stop><stop offset="0.6488" stop-color="#D3E9FF"></stop><stop offset="1" stop-color="#E9FFFF"></stop></linearGradient><linearGradient id="paint19_linear_1_1675" x1="2.73782" y1="34.5861" x2="5.34027" y2="34.5861" gradientUnits="userSpaceOnUse"><stop stop-color="#5778FF"></stop><stop offset="0.1779" stop-color="#5C7DFF"></stop><stop offset="0.3876" stop-color="#6A8AFF"></stop><stop offset="0.6134" stop-color="#82A0FF"></stop><stop offset="0.849" stop-color="#A3BEFF"></stop><stop offset="1" stop-color="#BCD5FF"></stop></linearGradient><linearGradient id="paint20_linear_1_1675" x1="67.4694" y1="196.393" x2="70.6162" y2="196.393" gradientUnits="userSpaceOnUse"><stop stop-color="#C0D6FF"></stop><stop offset="0.2978" stop-color="#C5DBFF"></stop><stop offset="0.6488" stop-color="#D3E9FF"></stop><stop offset="1" stop-color="#E9FFFF"></stop></linearGradient><linearGradient id="paint21_linear_1_1675" x1="67.0865" y1="196.756" x2="69.6889" y2="196.756" gradientUnits="userSpaceOnUse"><stop stop-color="#5778FF"></stop><stop offset="0.1779" stop-color="#5C7DFF"></stop><stop offset="0.3876" stop-color="#6A8AFF"></stop><stop offset="0.6134" stop-color="#82A0FF"></stop><stop offset="0.849" stop-color="#A3BEFF"></stop><stop offset="1" stop-color="#BCD5FF"></stop></linearGradient><linearGradient id="paint22_linear_1_1675" x1="67.4703" y1="196.661" x2="70.6171" y2="196.661" gradientUnits="userSpaceOnUse"><stop stop-color="#C0D6FF"></stop><stop offset="0.2978" stop-color="#C5DBFF"></stop><stop offset="0.6488" stop-color="#D3E9FF"></stop><stop offset="1" stop-color="#E9FFFF"></stop></linearGradient><linearGradient id="paint23_linear_1_1675" x1="67.0864" y1="196.661" x2="69.6888" y2="196.661" gradientUnits="userSpaceOnUse"><stop stop-color="#5778FF"></stop><stop offset="0.1779" stop-color="#5C7DFF"></stop><stop offset="0.3876" stop-color="#6A8AFF"></stop><stop offset="0.6134" stop-color="#82A0FF"></stop><stop offset="0.849" stop-color="#A3BEFF"></stop><stop offset="1" stop-color="#BCD5FF"></stop></linearGradient><linearGradient id="paint24_linear_1_1675" x1="3.12139" y1="159.434" x2="6.26826" y2="159.434" gradientUnits="userSpaceOnUse"><stop stop-color="#C0D6FF"></stop><stop offset="0.2978" stop-color="#C5DBFF"></stop><stop offset="0.6488" stop-color="#D3E9FF"></stop><stop offset="1" stop-color="#E9FFFF"></stop></linearGradient><linearGradient id="paint25_linear_1_1675" x1="2.73802" y1="159.796" x2="5.34046" y2="159.796" gradientUnits="userSpaceOnUse"><stop stop-color="#5778FF"></stop><stop offset="0.1779" stop-color="#5C7DFF"></stop><stop offset="0.3876" stop-color="#6A8AFF"></stop><stop offset="0.6134" stop-color="#82A0FF"></stop><stop offset="0.849" stop-color="#A3BEFF"></stop><stop offset="1" stop-color="#BCD5FF"></stop></linearGradient><linearGradient id="paint26_linear_1_1675" x1="3.12183" y1="159.701" x2="6.26871" y2="159.701" gradientUnits="userSpaceOnUse"><stop stop-color="#C0D6FF"></stop><stop offset="0.2978" stop-color="#C5DBFF"></stop><stop offset="0.6488" stop-color="#D3E9FF"></stop><stop offset="1" stop-color="#E9FFFF"></stop></linearGradient><linearGradient id="paint27_linear_1_1675" x1="2.7379" y1="159.701" x2="5.34036" y2="159.701" gradientUnits="userSpaceOnUse"><stop stop-color="#5778FF"></stop><stop offset="0.1779" stop-color="#5C7DFF"></stop><stop offset="0.3876" stop-color="#6A8AFF"></stop><stop offset="0.6134" stop-color="#82A0FF"></stop><stop offset="0.849" stop-color="#A3BEFF"></stop><stop offset="1" stop-color="#BCD5FF"></stop></linearGradient></defs></svg>