<svg xmlns="http://www.w3.org/2000/svg" width="387" height="304" viewBox="0 0 387 304" fill="none"><path d="M278.769 129.633L257.344 2.42229L259.07 1.70297L256.481 0.210397V0.22838C255.978 -0.113295 255.277 -0.0773288 254.486 0.372243L83.1945 99.314C81.7925 100.123 80.732 102.209 80.9657 103.666L102.57 231.902C102.678 232.567 103.02 233.017 103.469 233.214L106.003 234.671L106.435 232.297L106.291 232.333L276.54 133.985C277.96 133.176 279.021 131.09 278.769 129.633Z" fill="url(#paint0_linear_146_10)"></path><path d="M84.1473 102.785L81.3254 101.544C81.0019 102.263 80.8581 103.019 80.9659 103.666L102.571 231.902C102.678 232.567 103.02 233.017 103.469 233.214L106.004 234.671L106.435 232.297L106.291 232.333L114.901 227.352L84.1473 102.785Z" fill="url(#paint1_linear_146_10)"></path><path d="M279.237 135.531L107.945 234.473C106.615 235.228 105.482 234.797 105.267 233.43L83.662 105.194C83.4104 103.738 84.4708 101.652 85.8908 100.842L257.183 1.90076C258.513 1.14548 259.645 1.57707 259.861 2.94377L281.465 131.18C281.717 132.636 280.639 134.722 279.237 135.531Z" fill="#242993"></path><g opacity="0.51"><path opacity="0.51" d="M254.936 10.083L89.827 105.464L110.299 226.237L275.3 130.928L254.936 10.083Z" fill="#4553C7"></path></g><path d="M386.919 196.241L377.572 201.133L283.838 146.986C282.274 146.087 279.524 146.195 277.727 147.238L116.069 240.623C114.523 239.76 107.46 236.361 107.46 236.361L110.875 245.281L110.893 245.263C111.036 245.658 111.342 246.036 111.845 246.324L210.558 303.347C212.122 304.246 214.872 304.139 216.669 303.096L382.102 207.535C382.839 207.103 383.306 206.582 383.486 206.06H383.504L386.919 196.241Z" fill="url(#paint2_linear_146_10)"></path><path d="M385.463 197.788L215.914 295.723C214.063 296.802 211.259 296.91 209.641 295.974L108.466 237.53C106.866 236.595 107.064 234.977 108.915 233.916L278.464 135.981C280.315 134.902 283.119 134.794 284.737 135.729L385.912 194.173C387.53 195.091 387.314 196.709 385.463 197.788Z" fill="url(#paint3_linear_146_10)"></path><path d="M164.778 274.539V272.687C164.778 272.507 164.886 272.435 165.012 272.507L171.572 276.301C171.698 276.373 171.806 276.589 171.806 276.751V278.603C171.806 278.783 171.698 278.855 171.572 278.783L165.012 274.988C164.886 274.917 164.778 274.719 164.778 274.539Z" fill="#2859CB"></path><path d="M174.592 280.203V278.351C174.592 278.171 174.7 278.099 174.826 278.171L181.386 281.966C181.512 282.038 181.62 282.253 181.62 282.415V284.268C181.62 284.447 181.512 284.519 181.386 284.447L174.826 280.653C174.7 280.581 174.592 280.383 174.592 280.203Z" fill="#2859CB"></path><path d="M134.852 232.063L275.75 150.673C276.685 150.133 277.853 150.133 278.788 150.673L328.953 179.715C329.672 180.129 329.672 181.172 328.953 181.585L188.127 262.94C187.192 263.479 186.024 263.479 185.089 262.94L134.852 233.934C134.133 233.52 134.133 232.477 134.852 232.063Z" fill="#ADC8FF"></path><path d="M134.852 233.934L135.355 234.221L275.75 153.119C276.685 152.579 277.853 152.579 278.788 153.119L328.45 181.873L328.953 181.585C329.672 181.172 329.672 180.129 328.953 179.715L278.788 150.673C277.853 150.133 276.685 150.133 275.75 150.673L134.852 232.063C134.133 232.477 134.133 233.52 134.852 233.934Z" fill="#91AFFF"></path><path d="M282.562 158.028L160.177 228.737L154.731 225.59L277.134 154.899L282.562 158.028Z" fill="#242993"></path><path d="M295.916 165.743L181.117 232.045L175.671 228.898L290.47 162.596L295.916 165.743Z" fill="#242993"></path><path d="M304.598 170.76L169.433 248.823L164.005 245.694L299.151 167.613L304.598 170.76Z" fill="#242993"></path><path d="M313.279 175.777L178.133 253.859L172.687 250.712L307.851 172.63L313.279 175.777Z" fill="#242993"></path><path d="M321.979 180.794L186.814 258.876L181.368 255.729L316.532 177.647L321.979 180.794Z" fill="#242993"></path><path d="M152.79 232.999L147.344 236.146L141.898 232.999L147.344 229.852L152.79 232.999Z" fill="#242993"></path><path d="M171.986 237.332L160.68 243.842L155.234 240.713L166.54 234.185L171.986 237.332Z" fill="#242993"></path><path d="M281.178 251.755L319.175 229.816C320.667 228.952 320.667 227.568 319.175 226.705L293.203 211.707C291.711 210.844 289.302 210.844 287.828 211.707L249.832 233.646C248.34 234.509 248.34 235.894 249.832 236.757L275.804 251.755C277.278 252.618 279.686 252.618 281.178 251.755Z" fill="url(#paint4_linear_146_10)"></path><path d="M249.813 234.923L287.81 212.984C289.302 212.12 291.711 212.12 293.184 212.984L319.157 227.981C319.624 228.251 319.912 228.557 320.091 228.898C320.487 228.143 320.181 227.298 319.157 226.705L293.184 211.707C291.693 210.844 289.284 210.844 287.81 211.707L249.813 233.646C248.789 234.239 248.483 235.085 248.879 235.84C249.058 235.498 249.364 235.174 249.813 234.923Z" fill="#91AFFF"></path><g opacity="0.11"><g opacity="0.11"><path opacity="0.11" d="M278.644 135.783L109.095 233.718C107.244 234.797 104.44 234.905 102.822 233.97L1.64691 175.525C0.0472287 174.59 0.244942 172.972 2.09626 171.911L171.645 73.976C173.496 72.8971 176.3 72.7892 177.918 73.7243L279.093 132.169C280.693 133.086 280.495 134.704 278.644 135.783Z" fill="url(#paint5_linear_146_10)"></path><path opacity="0.11" d="M108.592 153.334L146.589 131.395C148.081 130.532 148.081 129.147 146.589 128.284L120.599 113.287C119.107 112.423 116.698 112.423 115.225 113.287L77.2276 135.226C75.7357 136.089 75.7357 137.473 77.2276 138.337L103.2 153.334C104.692 154.198 107.1 154.198 108.592 153.334Z" fill="url(#paint6_linear_146_10)"></path><path opacity="0.11" d="M77.2277 136.502L115.225 114.545C116.717 113.682 119.125 113.682 120.599 114.545L146.571 129.543C147.039 129.813 147.326 130.119 147.506 130.46C147.901 129.705 147.596 128.86 146.571 128.266L120.599 113.287C119.107 112.423 116.699 112.423 115.225 113.287L77.2277 135.226C76.2032 135.819 75.8977 136.664 76.2931 137.42C76.4728 137.078 76.7784 136.754 77.2277 136.502Z" fill="#91AFFF"></path><g opacity="0.11"><path opacity="0.11" d="M60.5298 187.628L201.428 106.237C202.362 105.698 203.531 105.698 204.465 106.237L254.631 135.28C255.35 135.693 255.35 136.736 254.631 137.15L113.805 218.504C112.87 219.044 111.702 219.044 110.767 218.504L60.5298 189.498C59.8109 189.084 59.8109 188.041 60.5298 187.628Z" fill="#ADC8FF"></path><path opacity="0.11" d="M60.5298 189.498L61.0331 189.786L201.428 108.683C202.362 108.144 203.531 108.144 204.465 108.683L254.127 137.438L254.631 137.15C255.35 136.736 255.35 135.693 254.631 135.28L204.465 106.237C203.531 105.698 202.362 105.698 201.428 106.237L60.5298 187.628C59.8109 188.041 59.8109 189.084 60.5298 189.498Z" fill="#91AFFF"></path><g opacity="0.11"><path opacity="0.11" d="M241.51 133.302L118.766 204.208L123.619 207.014L246.363 136.107L241.51 133.302Z" fill="#242993"></path><path opacity="0.11" d="M228.569 125.839L111.9 193.221L116.771 196.044L233.44 128.644L228.569 125.839Z" fill="#242993"></path><path opacity="0.11" d="M103.182 198.256L92.2902 204.55L97.1611 207.355L108.053 201.061L103.182 198.256Z" fill="#242993"></path><path opacity="0.11" d="M112.816 207.643L105.231 212.031L110.084 214.836L117.669 210.448L112.816 207.643Z" fill="#242993"></path><path opacity="0.11" d="M220.462 121.163L84.1835 199.874L89.0544 202.68L225.333 123.969L220.462 121.163Z" fill="#242993"></path><path opacity="0.11" d="M212.356 116.47L76.0957 195.199L80.9486 198.004L217.227 119.275L212.356 116.47Z" fill="#242993"></path><path opacity="0.11" d="M204.25 111.794L67.9893 190.505L72.8422 193.311L209.121 114.6L204.25 111.794Z" fill="#242993"></path></g></g></g></g><path d="M114.757 115.139L111.235 116.991L110.803 114.491L114.326 112.639L114.757 115.139Z" fill="#42FFFF"></path><path d="M117.669 132.025L114.146 133.877L111.63 119.257L115.153 117.423L117.669 132.025Z" fill="#42FFFF"></path><path d="M119.053 140.117L115.548 141.951L114.542 136.143L118.064 134.309L119.053 140.117Z" fill="#42FFFF"></path><path d="M120.509 148.479L116.986 150.331L115.98 144.523L119.502 142.688L120.509 148.479Z" fill="#42FFFF"></path><path d="M121.39 120.48L117.885 122.314L116.878 116.523L120.401 114.671L121.39 120.48Z" fill="#42FFFF"></path><path d="M123.313 131.557L119.79 133.409L118.316 124.886L121.839 123.051L123.313 131.557Z" fill="#42FFFF"></path><path d="M125.074 141.771L121.551 143.606L120.293 136.305L123.816 134.47L125.074 141.771Z" fill="#42FFFF"></path><path d="M121.947 156.859L118.424 158.693L117.435 152.903L120.94 151.051L121.947 156.859Z" fill="#42FFFF"></path><path d="M120.006 112.405L116.483 114.24L116.051 111.74L119.574 109.906L120.006 112.405Z" fill="#42FFFF"></path><path d="M125.973 163.603L119.826 166.821L119.413 164.394L125.542 161.193L125.973 163.603Z" fill="#42FFFF"></path><defs><linearGradient id="paint0_linear_146_10" x1="80.9348" y1="117.328" x2="278.811" y2="117.328" gradientUnits="userSpaceOnUse"><stop stop-color="#C0D6FF"></stop><stop offset="0.2978" stop-color="#C5DBFF"></stop><stop offset="0.6488" stop-color="#D3E9FF"></stop><stop offset="1" stop-color="#E9FFFF"></stop></linearGradient><linearGradient id="paint1_linear_146_10" x1="80.9363" y1="168.099" x2="114.914" y2="168.099" gradientUnits="userSpaceOnUse"><stop stop-color="#5778FF"></stop><stop offset="0.1779" stop-color="#5C7DFF"></stop><stop offset="0.3876" stop-color="#6A8AFF"></stop><stop offset="0.6134" stop-color="#82A0FF"></stop><stop offset="0.849" stop-color="#A3BEFF"></stop><stop offset="1" stop-color="#BCD5FF"></stop></linearGradient><linearGradient id="paint2_linear_146_10" x1="107.446" y1="225.172" x2="386.912" y2="225.172" gradientUnits="userSpaceOnUse"><stop stop-color="#5778FF"></stop><stop offset="0.1779" stop-color="#5C7DFF"></stop><stop offset="0.3876" stop-color="#6A8AFF"></stop><stop offset="0.6134" stop-color="#82A0FF"></stop><stop offset="0.849" stop-color="#A3BEFF"></stop><stop offset="1" stop-color="#BCD5FF"></stop></linearGradient><linearGradient id="paint3_linear_146_10" x1="201.348" y1="215.849" x2="480.963" y2="215.849" gradientUnits="userSpaceOnUse"><stop stop-color="#C0D6FF"></stop><stop offset="0.2978" stop-color="#C5DBFF"></stop><stop offset="0.6488" stop-color="#D3E9FF"></stop><stop offset="1" stop-color="#E9FFFF"></stop></linearGradient><linearGradient id="paint4_linear_146_10" x1="248.7" y1="231.73" x2="320.274" y2="231.73" gradientUnits="userSpaceOnUse"><stop stop-color="#C0D6FF"></stop><stop offset="0.2978" stop-color="#C5DBFF"></stop><stop offset="0.6488" stop-color="#D3E9FF"></stop><stop offset="1" stop-color="#E9FFFF"></stop></linearGradient><linearGradient id="paint5_linear_146_10" x1="94.5185" y1="153.842" x2="374.134" y2="153.842" gradientUnits="userSpaceOnUse"><stop stop-color="#C0D6FF"></stop><stop offset="0.2978" stop-color="#C5DBFF"></stop><stop offset="0.6488" stop-color="#D3E9FF"></stop><stop offset="1" stop-color="#E9FFFF"></stop></linearGradient><linearGradient id="paint6_linear_146_10" x1="76.1153" y1="133.307" x2="147.689" y2="133.307" gradientUnits="userSpaceOnUse"><stop stop-color="#C0D6FF"></stop><stop offset="0.2978" stop-color="#C5DBFF"></stop><stop offset="0.6488" stop-color="#D3E9FF"></stop><stop offset="1" stop-color="#E9FFFF"></stop></linearGradient></defs></svg>