<svg xmlns="http://www.w3.org/2000/svg" width="192" height="46" viewBox="0 0 192 46" fill="none"><path d="M48.4951 32.895V7.23537C48.4951 6.8736 48.6235 6.56352 48.8802 6.30511C49.137 6.04671 49.4579 5.91751 49.843 5.91751H57.1603C63.0655 5.91751 66.0181 8.55324 66.0181 13.8247C66.0181 16.0211 65.5303 17.7524 64.5546 19.0186C63.579 20.259 62.2568 21.0859 60.5879 21.4993L65.9796 31.6934C66.0823 31.8743 66.1336 32.0681 66.1336 32.2748C66.1336 32.7916 65.864 33.2697 65.3249 33.709C64.8114 34.1482 64.2594 34.3679 63.6689 34.3679C63.0013 34.3679 62.4622 33.9674 62.0514 33.1663L56.4286 22.0807H52.5389V32.895C52.5389 33.3084 52.3335 33.6444 51.9227 33.9028C51.5376 34.1353 51.0626 34.2516 50.4977 34.2516C49.9586 34.2516 49.4836 34.1353 49.0728 33.9028C48.6877 33.6444 48.4951 33.3084 48.4951 32.895ZM52.5389 18.7861H57.1603C60.344 18.7861 61.9358 17.2486 61.9358 14.1735C61.9358 11.0985 60.344 9.56102 57.1603 9.56102H52.5389V18.7861Z" fill="#161F38"></path><path d="M68.3643 26.8483V23.166C68.3643 21.1246 69.1474 19.3675 70.7136 17.8946C72.2797 16.3958 74.1668 15.6465 76.3748 15.6465C78.4801 15.6465 80.2774 16.3312 81.7665 17.7008C83.2813 19.0445 84.0387 20.7499 84.0387 22.8172C84.0387 23.5924 83.9489 24.2255 83.7691 24.7165C83.5894 25.1816 83.307 25.5175 82.9219 25.7242C82.5368 25.9051 82.1773 26.0214 81.8435 26.0731C81.5098 26.1248 81.0733 26.1506 80.5341 26.1506H72.4081V27.0421C72.4081 28.3341 72.8702 29.3678 73.7945 30.143C74.7188 30.8923 75.9255 31.267 77.4146 31.267C78.4673 31.267 79.4558 31.0215 80.3801 30.5306C81.33 30.0396 81.9077 29.7941 82.1131 29.7941C82.5496 29.7941 82.9219 30.0008 83.23 30.4143C83.5381 30.8277 83.6921 31.2283 83.6921 31.6159C83.6921 32.2619 83.0759 32.9208 81.8435 33.5927C80.6111 34.2387 79.0963 34.5617 77.2991 34.5617C74.6803 34.5617 72.5365 33.8511 70.8676 32.4298C69.1987 31.0086 68.3643 29.1481 68.3643 26.8483ZM72.4081 23.6312H78.8011C79.3659 23.6312 79.7382 23.5536 79.9179 23.3986C80.1233 23.2436 80.226 22.9335 80.226 22.4683C80.226 21.4347 79.8537 20.5561 79.1092 19.8326C78.3646 19.1091 77.4403 18.7473 76.3363 18.7473C75.258 18.7473 74.3337 19.0962 73.5634 19.7938C72.7932 20.4657 72.4081 21.3314 72.4081 22.3908V23.6312Z" fill="#161F38"></path><path d="M85.5265 17.4682C85.5265 17.0031 85.8218 16.6025 86.4123 16.2666C87.0028 15.9049 87.5934 15.724 88.1839 15.724C88.8257 15.724 89.2365 15.9695 89.4163 16.4604L93.9992 28.7088L98.5821 16.5379C98.7875 15.9953 99.1983 15.724 99.8145 15.724C100.302 15.724 100.867 15.9049 101.509 16.2666C102.151 16.6284 102.472 17.0289 102.472 17.4682C102.472 17.6491 102.42 17.8687 102.318 18.1271L95.8478 33.8252C95.6167 34.3679 95.0005 34.6392 93.9992 34.6392C92.9979 34.6392 92.3817 34.3679 92.1506 33.8252L85.7191 18.1271C85.5907 17.8687 85.5265 17.6491 85.5265 17.4682Z" fill="#161F38"></path><path d="M104.628 9.13465C104.628 8.54032 104.859 8.03643 105.321 7.62298C105.783 7.20953 106.335 7.00281 106.977 7.00281C107.619 7.00281 108.171 7.20953 108.633 7.62298C109.095 8.03643 109.326 8.54032 109.326 9.13465C109.326 9.70314 109.095 10.207 108.633 10.6463C108.171 11.0598 107.619 11.2665 106.977 11.2665C106.335 11.2665 105.783 11.0598 105.321 10.6463C104.859 10.207 104.628 9.70314 104.628 9.13465ZM104.975 32.895V17.1969C104.975 16.8093 105.154 16.4992 105.514 16.2666C105.899 16.0082 106.387 15.879 106.977 15.879C107.568 15.879 108.055 16.0082 108.441 16.2666C108.826 16.4992 109.018 16.8093 109.018 17.1969V32.895C109.018 33.2309 108.813 33.541 108.402 33.8252C108.017 34.1095 107.542 34.2516 106.977 34.2516C106.412 34.2516 105.937 34.1095 105.552 33.8252C105.167 33.541 104.975 33.2309 104.975 32.895Z" fill="#161F38"></path><path d="M112.555 26.8483V23.166C112.555 21.1246 113.338 19.3675 114.905 17.8946C116.471 16.3958 118.358 15.6465 120.566 15.6465C122.671 15.6465 124.468 16.3312 125.958 17.7008C127.472 19.0445 128.23 20.7499 128.23 22.8172C128.23 23.5924 128.14 24.2255 127.96 24.7165C127.78 25.1816 127.498 25.5175 127.113 25.7242C126.728 25.9051 126.368 26.0214 126.035 26.0731C125.701 26.1248 125.264 26.1506 124.725 26.1506H116.599V27.0421C116.599 28.3341 117.061 29.3678 117.986 30.143C118.91 30.8923 120.117 31.267 121.606 31.267C122.658 31.267 123.647 31.0215 124.571 30.5306C125.521 30.0396 126.099 29.7941 126.304 29.7941C126.741 29.7941 127.113 30.0008 127.421 30.4143C127.729 30.8277 127.883 31.2283 127.883 31.6159C127.883 32.2619 127.267 32.9208 126.035 33.5927C124.802 34.2387 123.287 34.5617 121.49 34.5617C118.871 34.5617 116.728 33.8511 115.059 32.4298C113.39 31.0086 112.555 29.1481 112.555 26.8483ZM116.599 23.6312H122.992C123.557 23.6312 123.929 23.5536 124.109 23.3986C124.314 23.2436 124.417 22.9335 124.417 22.4683C124.417 21.4347 124.045 20.5561 123.3 19.8326C122.556 19.1091 121.631 18.7473 120.527 18.7473C119.449 18.7473 118.525 19.0962 117.755 19.7938C116.984 20.4657 116.599 21.3314 116.599 22.3908V23.6312Z" fill="#161F38"></path><path d="M129.756 17.4294C129.756 16.9643 130.039 16.5638 130.603 16.2279C131.168 15.8919 131.746 15.724 132.336 15.724C132.978 15.724 133.389 15.9695 133.569 16.4604L137.844 28.515L141.117 17.8171C141.297 17.2227 141.772 16.9256 142.542 16.9256C143.312 16.9256 143.787 17.2227 143.967 17.8171L147.202 28.5925L151.515 16.4604C151.669 15.9695 152.067 15.724 152.709 15.724C153.274 15.724 153.839 15.8919 154.404 16.2279C154.994 16.5638 155.29 16.9772 155.29 17.4682C155.29 17.6749 155.238 17.8817 155.136 18.0884L149.166 33.8252C148.961 34.3679 148.422 34.6392 147.549 34.6392C146.676 34.6392 146.124 34.3808 145.893 33.864L142.542 23.8637L139.23 33.7477C138.999 34.342 138.421 34.6392 137.497 34.6392C136.65 34.6392 136.111 34.342 135.88 33.7477L129.91 18.0884C129.807 17.7783 129.756 17.5586 129.756 17.4294Z" fill="#161F38"></path><path d="M157.123 26.8483V23.166C157.123 21.1246 157.906 19.3675 159.472 17.8946C161.038 16.3958 162.925 15.6465 165.133 15.6465C167.238 15.6465 169.036 16.3312 170.525 17.7008C172.04 19.0445 172.797 20.7499 172.797 22.8172C172.797 23.5924 172.707 24.2255 172.527 24.7165C172.348 25.1816 172.065 25.5175 171.68 25.7242C171.295 25.9051 170.936 26.0214 170.602 26.0731C170.268 26.1248 169.831 26.1506 169.292 26.1506H161.166V27.0421C161.166 28.3341 161.628 29.3678 162.553 30.143C163.477 30.8923 164.684 31.267 166.173 31.267C167.226 31.267 168.214 31.0215 169.138 30.5306C170.088 30.0396 170.666 29.7941 170.871 29.7941C171.308 29.7941 171.68 30.0008 171.988 30.4143C172.296 30.8277 172.45 31.2283 172.45 31.6159C172.45 32.2619 171.834 32.9208 170.602 33.5927C169.369 34.2387 167.855 34.5617 166.057 34.5617C163.438 34.5617 161.295 33.8511 159.626 32.4298C157.957 31.0086 157.123 29.1481 157.123 26.8483ZM161.166 23.6312H167.559C168.124 23.6312 168.496 23.5536 168.676 23.3986C168.882 23.2436 168.984 22.9335 168.984 22.4683C168.984 21.4347 168.612 20.5561 167.867 19.8326C167.123 19.1091 166.199 18.7473 165.095 18.7473C164.016 18.7473 163.092 19.0962 162.322 19.7938C161.551 20.4657 161.166 21.3314 161.166 22.3908V23.6312Z" fill="#161F38"></path><path d="M176.095 32.895V6.26635C176.095 5.87874 176.275 5.56866 176.634 5.33609C176.993 5.07769 177.468 4.94849 178.059 4.94849C178.649 4.94849 179.137 5.07769 179.522 5.33609C179.933 5.56866 180.139 5.87874 180.139 6.26635V18.5923C180.575 17.7654 181.23 17.0677 182.103 16.4992C182.976 15.9307 183.977 15.6465 185.107 15.6465C187.007 15.6465 188.624 16.3958 189.959 17.8946C191.32 19.3933 192 21.1892 192 23.2823V26.8483C192 28.8639 191.32 30.6598 189.959 32.236C188.598 33.7865 187.019 34.5617 185.222 34.5617C184.067 34.5617 183.001 34.2645 182.026 33.6702C181.05 33.0759 180.344 32.3652 179.908 31.5384V32.895C179.908 33.2309 179.715 33.541 179.33 33.8252C178.97 34.1095 178.547 34.2516 178.059 34.2516C177.494 34.2516 177.019 34.1095 176.634 33.8252C176.275 33.541 176.095 33.2309 176.095 32.895ZM180.139 27.7398C180.139 28.3083 180.537 28.9931 181.332 29.7941C182.154 30.5693 183.065 30.9569 184.067 30.9569C185.119 30.9569 186.031 30.5435 186.801 29.7166C187.571 28.8639 187.957 27.9078 187.957 26.8483V23.2823C187.957 22.2487 187.559 21.3184 186.763 20.4915C185.992 19.6646 185.081 19.2512 184.028 19.2512C183.027 19.2512 182.128 19.6259 181.332 20.3753C180.537 21.1246 180.139 22.0937 180.139 23.2823V27.7398Z" fill="#161F38"></path><path d="M18.8639 30.8659C23.4823 31.235 28.9954 38.8249 34.748 31.4515C35.1157 30.934 35.4816 30.4033 35.8473 29.8591C35.48 30.4541 35.1135 30.983 34.748 31.4515C30.4845 37.4536 25.9929 41.7034 19.1218 45.1041C18.7604 45.283 18.3403 45.0178 18.3403 44.6146V31.3806C18.3403 31.0872 18.5714 30.8425 18.8639 30.8659Z" fill="#269DF3"></path><path d="M39.0028 19.5014C39.0028 30.2717 30.2717 39.0028 19.5014 39.0028C8.73107 39.0028 0 30.2717 0 19.5014C0 8.73107 8.73107 0 19.5014 0C30.2717 0 39.0028 8.73107 39.0028 19.5014Z" fill="#41AFFF"></path><path d="M28.2277 16.8208L22.5462 15.9937L20.0065 10.8363C19.9371 10.6951 19.823 10.5808 19.682 10.5114C19.3285 10.3365 18.8988 10.4822 18.722 10.8363L16.1823 15.9937L10.5008 16.8208C10.3442 16.8432 10.201 16.9172 10.0913 17.0292C9.95877 17.1657 9.88573 17.3493 9.88825 17.5397C9.89076 17.7301 9.96864 17.9117 10.1048 18.0446L14.2154 22.0588L13.2442 27.7272C13.2214 27.8591 13.236 27.9947 13.2863 28.1187C13.3365 28.2427 13.4205 28.3501 13.5286 28.4287C13.6366 28.5074 13.7646 28.5541 13.8978 28.5636C14.0311 28.5731 14.1644 28.5451 14.2825 28.4826L19.3643 25.8064L24.446 28.4826C24.5848 28.5566 24.7459 28.5812 24.9003 28.5543C25.2896 28.4871 25.5514 28.1172 25.4843 27.7272L24.5132 22.0588L28.6238 18.0446C28.7356 17.9347 28.8095 17.7913 28.8319 17.6344C28.8923 17.2422 28.6193 16.8791 28.2277 16.8208ZM22.7834 21.494L23.5912 26.2076L19.3643 23.9842L15.1373 26.2098L15.9451 21.4963L12.5259 18.1566L17.2519 17.4685L19.3643 13.1808L21.4766 17.4685L26.2026 18.1566L22.7834 21.494Z" fill="white"></path></svg>