<svg xmlns="http://www.w3.org/2000/svg" width="678" height="386" viewBox="0 0 678 386" fill="none"><mask id="mask0_147_13" style="mask-type:alpha" maskUnits="userSpaceOnUse" x="0" y="0" width="678" height="386"><rect width="678" height="386" fill="#C4C4C4"></rect></mask><g mask="url(#mask0_147_13)"><path opacity="0.5" d="M308.775 330.412C306.881 330.412 304.986 329.926 303.292 328.973L268.354 309.066L269.83 306.549L304.768 326.456C307.245 327.876 310.323 327.876 312.801 326.456L348.139 306.315L349.615 308.832L314.276 328.973C312.582 329.926 310.669 330.412 308.775 330.412Z" fill="white"></path><path opacity="0.5" d="M381.201 290.22C373.805 286.012 361.837 286.012 354.442 290.22C347.046 294.428 347.046 301.262 354.442 305.47C361.837 309.678 373.805 309.678 381.201 305.47C388.596 301.262 388.596 294.428 381.201 290.22ZM375.044 301.963C371.054 304.247 364.57 304.247 360.58 301.963C356.591 299.679 356.591 295.993 360.58 293.709C364.57 291.425 371.054 291.425 375.044 293.709C379.051 296.011 379.051 299.697 375.044 301.963Z" fill="white"></path><g opacity="0.5"><path d="M367.812 313.958C360.945 313.958 354.078 312.465 348.85 309.48C343.512 306.441 340.562 302.305 340.562 297.827C340.562 293.367 343.494 289.231 348.85 286.192C359.306 280.222 376.319 280.24 386.775 286.192C392.112 289.231 395.063 293.367 395.063 297.827C395.063 302.287 392.13 306.423 386.775 309.462C381.547 312.465 374.68 313.958 367.812 313.958ZM367.812 284.592C361.473 284.592 355.152 285.958 350.325 288.71C345.935 291.209 343.512 294.464 343.512 297.845C343.512 301.226 345.935 304.481 350.325 306.98C359.98 312.483 375.663 312.483 385.299 306.98C389.689 304.481 392.112 301.226 392.112 297.845C392.112 294.464 389.689 291.209 385.299 288.71C380.49 285.976 374.151 284.592 367.812 284.592Z" fill="white"></path></g><path opacity="0.35" d="M133.084 385.925C130.88 385.925 128.567 385.385 126.727 384.342L3.16954 313.922C1.16581 312.771 0 311.134 0 309.444C0 307.951 0.874356 306.62 2.45913 305.721L185.072 201.061C188.078 199.353 193.105 199.533 196.512 201.475L320.069 271.896C322.091 273.046 323.239 274.665 323.239 276.355C323.239 277.848 322.364 279.179 320.779 280.078L138.166 384.738C136.782 385.529 134.961 385.925 133.084 385.925ZM190.118 202.787C188.752 202.787 187.477 203.039 186.548 203.579L3.9346 308.239C3.57029 308.455 2.95095 308.886 2.95095 309.444C2.95095 309.911 3.40635 310.685 4.66323 311.404L128.221 381.825C130.716 383.245 134.596 383.425 136.709 382.238L319.322 277.578C319.686 277.362 320.306 276.931 320.306 276.373C320.306 275.906 319.85 275.132 318.594 274.413L195.036 203.992C193.633 203.201 191.812 202.787 190.118 202.787Z" fill="white"></path><path d="M137.42 363.608L320.033 258.948C322.583 257.491 322.273 254.956 319.322 253.265L195.765 182.844C192.814 181.172 188.351 180.974 185.801 182.431L3.18789 287.091C0.637681 288.548 0.947349 291.083 3.8983 292.774L127.456 363.195C130.407 364.885 134.87 365.065 137.42 363.608Z" fill="url(#paint0_linear_147_13)"></path><g opacity="0.5"><path d="M13.1516 281.049L51.9693 278.549L184.853 202.248C187.203 200.899 191.32 201.079 194.034 202.626L279.484 251.323L310.105 249.345V254.326H310.068C310.068 255.171 309.577 255.999 308.502 256.61L138.403 354.131C136.053 355.48 131.936 355.3 129.222 353.754L15.3921 288.889C13.953 288.062 13.2062 287.019 13.1698 286.03H13.1516V281.049Z" fill="white"></path><path d="M138.385 349.222L308.484 251.701C310.834 250.352 310.542 248.014 307.828 246.468L193.998 181.586C191.284 180.039 187.167 179.877 184.817 181.208L14.7367 278.747C12.3868 280.096 12.6783 282.434 15.3924 283.98L129.223 348.862C131.937 350.409 136.035 350.571 138.385 349.222Z" fill="white"></path></g><path d="M9.03477 258.049L49.0184 255.477L185.163 177.306C187.586 175.921 191.812 176.101 194.617 177.683L282.635 227.856L314.167 225.824V247.547H314.13C314.13 248.428 313.62 249.273 312.527 249.885L138.021 349.923C135.598 351.308 131.372 351.128 128.567 349.546L11.3482 282.721C9.8727 281.876 9.10764 280.797 9.05299 279.772H9.03477V258.049Z" fill="url(#paint1_linear_147_13)"></path><path d="M138.057 328.038L312.564 227.999C314.987 226.615 314.677 224.205 311.89 222.605L194.654 155.78C191.848 154.18 187.622 154.018 185.2 155.385L10.6926 255.423C8.26993 256.808 8.5796 259.218 11.3666 260.818L128.603 327.642C131.39 329.243 135.634 329.423 138.057 328.038Z" fill="url(#paint2_linear_147_13)"></path><g opacity="0.5"><path d="M25.2286 225.518C22.4052 225.518 19.5635 224.888 17.3594 223.63C14.9914 222.281 13.6981 220.411 13.6981 218.361C13.6981 216.311 14.9914 214.44 17.3594 213.092C21.7676 210.574 28.6714 210.574 33.0796 213.092C35.4295 214.44 36.741 216.311 36.741 218.361C36.741 220.411 35.4477 222.281 33.0796 223.63C30.8937 224.888 28.0521 225.518 25.2286 225.518ZM25.2286 213.955C22.8606 213.955 20.4925 214.458 18.7438 215.465C17.2866 216.293 16.4486 217.354 16.4486 218.379C16.4486 219.404 17.2866 220.465 18.7438 221.292C22.2595 223.288 28.1978 223.288 31.7317 221.292C33.1889 220.465 34.0268 219.404 34.0268 218.379C34.0268 217.354 33.1889 216.293 31.7317 215.465C29.9647 214.458 27.5967 213.955 25.2286 213.955Z" fill="white"></path></g><g opacity="0.5"><path d="M8.26995 238.411C6.66697 238.411 5.06398 238.052 3.80709 237.332C2.36805 236.523 1.54834 235.3 1.54834 234.006C1.54834 232.711 2.36805 231.488 3.80709 230.679C6.32087 229.24 10.2373 229.258 12.751 230.679C14.1901 231.488 15.0098 232.711 15.0098 234.006C15.0098 235.3 14.1901 236.523 12.751 237.332C11.4941 238.052 9.87294 238.411 8.26995 238.411ZM8.26995 232.297C7.14058 232.297 6.0112 232.531 5.17327 233.017C4.6268 233.322 4.29892 233.7 4.29892 234.006C4.29892 234.311 4.64502 234.689 5.17327 234.995C6.84912 235.948 9.69078 235.948 11.3666 234.995C11.9131 234.689 12.241 234.311 12.241 234.006C12.241 233.7 11.8949 233.34 11.3666 233.017C10.5287 232.549 9.39933 232.297 8.26995 232.297Z" fill="white"></path></g><g opacity="0.5"><path d="M232.724 384.253C228.99 384.253 225.256 383.425 222.341 381.771C219.299 380.027 217.605 377.635 217.605 375.027C217.605 372.42 219.281 370.01 222.323 368.284C228.134 364.975 237.26 364.975 243.071 368.284C246.113 370.028 247.807 372.42 247.807 375.027C247.807 377.653 246.131 380.045 243.071 381.771C240.193 383.425 236.458 384.253 232.724 384.253ZM232.724 368.679C229.5 368.679 226.276 369.381 223.817 370.783C221.722 371.988 220.556 373.481 220.556 375.027C220.556 376.556 221.722 378.066 223.817 379.271C228.735 382.077 236.713 382.077 241.632 379.271C243.727 378.066 244.892 376.574 244.892 375.027C244.892 373.499 243.727 371.988 241.632 370.783C239.173 369.381 235.948 368.679 232.724 368.679Z" fill="white"></path></g><path opacity="0.5" d="M425.356 332.084C423.771 332.084 422.186 331.689 420.765 330.879L377.23 306.063L378.596 303.725L422.132 328.542C424.117 329.674 426.594 329.674 428.598 328.542L460.111 310.037L461.514 312.357L429.983 330.861C428.543 331.671 426.94 332.084 425.356 332.084Z" fill="white"></path><g opacity="0.5"><path d="M507.728 337.263C505.196 337.263 502.664 336.616 500.423 335.339L410.164 283.89C409.071 283.279 408.415 282.164 408.415 280.923C408.415 279.682 409.071 278.567 410.164 277.938L573.396 184.912L670.959 240.515C672.052 241.127 672.708 242.242 672.708 243.483C672.708 244.723 672.052 245.838 670.959 246.468L515.051 335.339C512.774 336.616 510.242 337.263 507.728 337.263ZM573.377 188.024L411.53 280.276C411.184 280.473 411.148 280.797 411.148 280.923C411.148 281.049 411.184 281.373 411.53 281.552L501.789 333.001C505.451 335.087 510.005 335.087 513.684 333.001L669.593 244.13C669.921 243.932 669.957 243.609 669.957 243.483C669.957 243.357 669.921 243.033 669.593 242.853L573.377 188.024Z" fill="white"></path></g><g opacity="0.5"><path opacity="0.5" d="M568.55 197.465L429.928 276.481C428.726 277.165 428.726 278.873 429.928 279.556L506.908 323.435C510.405 325.431 514.723 325.431 518.22 323.435L651.195 247.637C652.397 246.953 652.397 245.245 651.195 244.562L568.55 197.465Z" fill="#242993"></path></g></g><defs><linearGradient id="paint0_linear_147_13" x1="241.899" y1="263.883" x2="5.57861" y2="346.7" gradientUnits="userSpaceOnUse"><stop stop-color="#42FFFF"></stop><stop offset="0.1507" stop-color="#43FAFF"></stop><stop offset="0.3285" stop-color="#45ECFF"></stop><stop offset="0.5199" stop-color="#49D4FF"></stop><stop offset="0.7209" stop-color="#4EB3FF"></stop><stop offset="0.9274" stop-color="#5489FF"></stop><stop offset="1" stop-color="#5778FF"></stop></linearGradient><linearGradient id="paint1_linear_147_13" x1="283.109" y1="263.614" x2="125.372" y2="263.614" gradientUnits="userSpaceOnUse"><stop offset="0.3548" stop-color="#BCD5FF"></stop><stop offset="0.4436" stop-color="#B5CFFF"></stop><stop offset="0.5695" stop-color="#A3BEFF"></stop><stop offset="0.7175" stop-color="#84A2FF"></stop><stop offset="0.8814" stop-color="#5A7BFF"></stop><stop offset="0.8925" stop-color="#5778FF"></stop></linearGradient><linearGradient id="paint2_linear_147_13" x1="253.499" y1="189.343" x2="163.37" y2="347.468" gradientUnits="userSpaceOnUse"><stop stop-color="#E9FFFF"></stop><stop offset="0.3512" stop-color="#D3E9FF"></stop><stop offset="0.7022" stop-color="#C5DBFF"></stop><stop offset="1" stop-color="#C0D6FF"></stop></linearGradient></defs></svg>